<svg xmlns="http://www.w3.org/2000/svg" fill="none" viewBox="30.48 12.72 95.32 128.44">
<path fill-rule="evenodd" clip-rule="evenodd" d="M62.5048 12.7243C69.4729 12.5494 75.3568 14.9621 80.157 19.9623C83.7806 24.0039 85.7568 28.7523 86.086 34.2073C86.9765 35.0502 87.6056 36.064 87.9725 37.2488C88.0699 37.6949 88.1981 38.1312 88.3575 38.5578C89.012 41.2393 88.6397 43.7676 87.241 46.1423C86.8933 46.657 86.5018 47.1383 86.0668 47.586C87.415 47.3381 88.7498 47.017 90.0708 46.6235C91.9307 46.0013 93.7914 45.3853 95.6533 44.7755C96.7024 44.4937 97.7677 44.3012 98.8488 44.198C100.146 44.0813 101.404 44.2481 102.622 44.6985C104.507 45.6267 105.348 47.1475 105.144 49.2608C104.907 50.8816 104.317 52.3573 103.373 53.6883C101.944 55.6306 100.179 57.1898 98.0788 58.366C96.1272 59.5002 94.0609 60.373 91.8803 60.984C91.841 61.004 91.8156 61.036 91.8033 61.0803C92.1028 62.1613 92.3661 63.2524 92.5925 64.3528C92.8782 64.5391 93.0707 64.7955 93.17 65.1228C93.5635 66.9785 93.6339 68.8457 93.3818 70.7245C93.4476 72.0166 93.4152 73.3063 93.2855 74.5938C93.1496 75.7611 92.8674 76.8903 92.4385 77.9818C92.4127 78.0588 92.4127 78.1358 92.4385 78.2128C95.6028 88.1296 98.7598 98.0499 101.91 107.973C106.01 107.951 109.283 109.568 111.727 112.824C112.823 114.402 113.491 116.147 113.729 118.06C113.744 118.096 113.769 118.121 113.806 118.137C117.216 117.368 120.225 118.131 122.834 120.428C125.154 122.741 126.11 125.532 125.703 128.802C125.051 132.293 123.107 134.763 119.87 136.213C117.686 137.067 115.479 137.138 113.248 136.425C112.854 137.211 112.372 137.942 111.804 138.619C110.217 140.301 108.26 141.148 105.933 141.16C104.235 141.116 102.708 140.59 101.351 139.582C99.3015 140.985 97.1201 141.222 94.8063 140.294C94.1698 139.972 93.5793 139.58 93.0353 139.12C92.1297 139.322 91.225 139.322 90.321 139.12C88.4849 140.694 86.3867 141.188 84.0263 140.602C83.6516 140.498 83.2924 140.358 82.9483 140.179C82.6106 139.994 82.2834 139.795 81.9665 139.582C79.814 141.119 77.4593 141.524 74.9018 140.795C72.6749 140.037 71.0964 138.58 70.1663 136.425C66.1865 137.578 62.7666 136.667 59.906 133.691C57.7512 131.074 57.0709 128.11 57.8655 124.798C58.9801 121.298 61.3093 119.059 64.8533 118.08C66.0367 117.81 67.2302 117.758 68.4338 117.926C68.8326 117.996 69.2303 118.067 69.6273 118.137C70.1116 114.401 71.9465 111.545 75.1328 109.571C76.1218 108.993 77.174 108.576 78.2898 108.32C78.2605 106.767 78.2154 105.214 78.155 103.661C78.1369 103.594 78.1111 103.53 78.078 103.469C77.2822 105.097 75.9925 106.091 74.2088 106.453C72.8158 106.733 71.4167 106.772 70.0123 106.568C69.0405 106.31 68.2255 105.803 67.5675 105.047C66.9057 104.225 66.3925 103.314 66.0275 102.314C65.4385 100.605 65.092 98.8465 64.988 97.0393C64.1137 96.3832 63.3568 95.6132 62.7165 94.7293C61.2562 92.6098 60.2425 90.2867 59.675 87.7608C59.1275 85.3145 58.8322 82.8374 58.7895 80.3303C57.4308 78.5885 56.4364 76.6508 55.8058 74.5168C54.5152 74.4763 53.6363 73.8603 53.1685 72.6688C52.8532 71.3367 53.2705 70.3099 54.4198 69.5888C54.4325 69.5503 54.4455 69.5118 54.4583 69.4733C54.1118 67.7281 53.855 65.9698 53.6883 64.1988C48.0288 63.8942 42.7415 62.3481 37.8263 59.5595C36.4416 58.7452 35.1455 57.8085 33.9378 56.749C32.7242 55.6125 31.781 54.2842 31.108 52.7643C30.4443 51.165 30.3031 49.5222 30.6845 47.8363C31.411 45.4416 33.0088 44.0236 35.4778 43.582C36.3783 43.4592 37.2767 43.4723 38.1728 43.6205C38.6921 43.7248 39.2057 43.853 39.7128 44.0055C40.9347 44.4598 42.154 44.9218 43.3703 45.3915C43.4141 45.4204 43.4526 45.4138 43.4858 45.3723C41.2905 40.9116 40.5909 36.2275 41.3875 31.3198C42.5494 25.3665 45.5459 20.5861 50.3773 16.9785C54.0055 14.4023 58.048 12.9842 62.5048 12.7243Z" fill="#371A46"/>
<path fill-rule="evenodd" clip-rule="evenodd" d="M84.3728 31.0503C84.3389 31.7336 84.2361 32.401 84.0648 33.0523C83.1123 32.8378 82.1629 32.8507 81.2158 33.0908C80.5151 29.2516 78.9427 25.8251 76.4995 22.8113C72.288 17.7246 66.8787 14.882 60.2718 14.2835C66.6062 13.39 72.253 14.9428 77.2118 18.942C80.9755 22.1493 83.3625 26.1854 84.3728 31.0503Z" fill="#FDFDFE"/>
<path fill-rule="evenodd" clip-rule="evenodd" d="M57.1532 15.4192C65.2575 15.1501 71.7062 18.2558 76.4995 24.7362C78.3371 27.3214 79.5306 30.1832 80.08 33.3217C80.1058 33.4116 80.1058 33.5014 80.08 33.5912C79.752 33.7679 79.444 33.9732 79.156 34.2072C78.6193 30.2996 77.0924 26.8474 74.5745 23.8507C69.556 18.1194 63.2486 15.7388 55.6517 16.709C53.6644 17.0748 51.8164 17.7806 50.1077 18.8265C51.6986 17.5106 53.4569 16.4582 55.3822 15.6695C55.9767 15.5729 56.5669 15.4894 57.1532 15.4192Z" fill="#FCFBFC"/>
<path fill-rule="evenodd" clip-rule="evenodd" d="M57.1147 19.6927C60.4438 19.5152 63.5623 20.2275 66.4702 21.8295C66.9122 22.0795 67.3165 22.3811 67.683 22.7342C67.7265 22.8053 67.7458 22.8823 67.7407 22.9652C64.6269 22.5577 61.5211 22.6154 58.4237 23.1385C55.9782 23.564 53.7198 24.4495 51.6477 25.795C50.0161 26.984 48.855 28.5304 48.1635 30.4342C47.0093 33.4588 46.4957 36.5902 46.6235 39.8282C44.3378 36.6232 43.8888 33.171 45.276 29.4717C46.1561 27.1458 47.4266 25.0668 49.0875 23.2347C50.6768 21.5576 52.6079 20.486 54.8817 20.02C55.6271 19.8788 56.3713 19.7697 57.1147 19.6927Z" fill="#9B8CA1"/>
<path fill-rule="evenodd" clip-rule="evenodd" d="M72.3607 30.6268C73.8415 30.5991 74.8744 31.2665 75.46 32.6288C75.9759 34.0788 75.7576 35.4006 74.8055 36.5943C73.811 37.5409 72.7011 37.7013 71.4752 37.0755C70.3156 36.2321 69.7832 35.0835 69.8775 33.6298C70.0454 32.0705 70.8731 31.0695 72.3607 30.6268Z" fill="#9B8CA1"/>
<path fill-rule="evenodd" clip-rule="evenodd" d="M72.2452 41.1373C72.258 41.1373 72.271 41.1373 72.2837 41.1373C72.6237 41.6108 73.073 41.7456 73.6312 41.5415C74.1375 41.2674 74.3812 40.8373 74.3627 40.2518C74.3643 39.8186 74.2103 39.4594 73.9007 39.1738C73.888 39.148 73.875 39.1225 73.8622 39.0968C73.9477 39.1091 74.0186 39.0837 74.074 39.0198C74.1294 38.8442 74.2322 38.7033 74.382 38.5963C74.4794 38.3582 74.6207 38.1528 74.8055 37.9803C74.8236 37.913 74.8494 37.8489 74.8825 37.7878C75.0889 37.5546 75.2556 37.298 75.383 37.0178C75.5358 36.8839 75.6321 36.7171 75.6717 36.5173C75.7938 36.3248 75.9155 36.1323 76.0375 35.9398C76.0471 35.8131 76.0856 35.6976 76.153 35.5933C76.2835 35.4734 76.3863 35.3323 76.461 35.1698C76.727 34.439 77.035 33.7203 77.385 33.0138C77.4289 32.8876 77.4612 32.7593 77.4812 32.6288C77.5197 32.6288 77.5582 32.6288 77.5967 32.6288C77.7292 33.4587 77.832 34.2929 77.9047 35.1313C77.9255 35.3217 77.8678 35.4757 77.7315 35.5933C77.713 35.6298 77.7065 35.6683 77.7122 35.7088C77.6737 35.7088 77.6352 35.7088 77.5967 35.7088C77.6068 35.7657 77.5941 35.817 77.5582 35.8628C77.3207 36.2096 77.0832 36.5561 76.846 36.9023C75.6425 39.1711 75.2509 41.5966 75.6717 44.1788C75.6694 44.3867 75.5986 44.5664 75.46 44.7178C75.4407 44.7936 75.4346 44.8706 75.4407 44.9488C75.4022 44.9488 75.3637 44.9488 75.3252 44.9488C75.2205 45.2221 75.0665 45.4662 74.8632 45.6803C74.8375 45.7445 74.812 45.8085 74.7862 45.8728C74.4132 46.3617 74.0216 46.8364 73.612 47.2973C73.5935 47.3338 73.587 47.3723 73.5927 47.4128C73.5415 47.4128 73.49 47.4128 73.4387 47.4128C73.4445 47.4532 73.438 47.4917 73.4195 47.5283C73.182 47.7531 72.9575 47.9903 72.7457 48.2405C72.6918 48.2959 72.6276 48.3279 72.5532 48.3368C72.489 48.4395 72.425 48.542 72.3607 48.6448C72.3095 48.6448 72.258 48.6448 72.2067 48.6448C72.2195 48.7603 72.1682 48.8115 72.0527 48.7988C72.0527 48.85 72.0527 48.9015 72.0527 48.9528C71.6219 49.208 71.2115 49.5029 70.8207 49.8383C70.5135 50.0377 70.2055 50.2429 69.8967 50.4543C69.4856 50.6787 69.0748 50.9035 68.6647 51.128C68.5662 51.1696 68.4634 51.1888 68.3567 51.1858C68.3567 51.2243 68.3567 51.2628 68.3567 51.3013C68.1192 51.3571 67.8944 51.4468 67.683 51.5708C67.6021 51.6012 67.5186 51.6139 67.4327 51.6093C67.4327 51.6478 67.4327 51.6863 67.4327 51.7248C67.3269 51.7128 67.2245 51.7255 67.1247 51.7633C66.8514 51.8668 66.5819 51.9758 66.3162 52.0905C63.7156 52.8909 61.0591 53.1281 58.3467 52.8028C58.2767 52.797 58.2189 52.7712 58.1735 52.7258C58.1261 52.7492 58.0749 52.7619 58.0195 52.7643C57.3877 52.7073 56.7652 52.5983 56.1522 52.437C54.6519 52.0277 53.202 51.5018 51.8017 50.8585C51.6643 50.758 51.523 50.6683 51.3782 50.589C51.0029 50.4754 50.6756 50.2895 50.3965 50.0308C50.1667 49.9264 49.9422 49.8175 49.7227 49.7035C49.5256 49.5245 49.3073 49.377 49.0682 49.2608C49.0767 49.2153 49.064 49.1768 49.0297 49.1453C48.8064 49.0271 48.5882 48.8989 48.3752 48.7603C48.341 48.7287 48.3283 48.6902 48.3367 48.6448C48.1131 48.5393 47.9075 48.4045 47.7207 48.2405C47.6341 48.192 47.5829 48.1215 47.5667 48.0288C47.3785 48.0057 47.263 47.9029 47.2202 47.7208C47.1506 47.7211 47.0863 47.7019 47.0277 47.663C46.7733 47.4339 46.5292 47.1902 46.2962 46.9315C46.2597 46.913 46.2212 46.9065 46.1807 46.9123C46.1807 46.8738 46.1807 46.8353 46.1807 46.7968C46.1238 46.8068 46.0726 46.7941 46.0267 46.7583C46.001 46.707 45.9625 46.6685 45.9112 46.6428C45.8754 46.5969 45.8627 46.5457 45.8727 46.4888C45.8342 46.4888 45.7957 46.4888 45.7572 46.4888C45.7572 46.4375 45.7572 46.386 45.7572 46.3348C46.3286 46.5392 46.9061 46.7378 47.4897 46.9315C50.5424 47.8185 53.6609 48.1777 56.8452 48.0095C59.2253 47.8443 61.5353 47.3631 63.7752 46.5658C63.8411 46.6085 63.8669 46.5827 63.8522 46.4888C64.347 46.349 64.8221 46.1565 65.2767 45.9113C65.4708 45.8847 65.6375 45.8077 65.7772 45.6803C67.2445 45.0342 68.6047 44.2126 69.8582 43.2163C69.8925 43.1847 69.9052 43.1462 69.8967 43.1008C69.9495 43.1069 70.0011 43.1004 70.0507 43.0815C70.2425 42.9537 70.4219 42.8128 70.5897 42.658C70.6375 42.6137 70.676 42.5621 70.7052 42.504C70.7418 42.4855 70.7803 42.479 70.8207 42.4848C70.8207 42.4205 70.8207 42.3565 70.8207 42.2923C70.8612 42.298 70.8997 42.2915 70.9362 42.273C70.9875 42.2472 70.9875 42.2218 70.9362 42.196C71.004 42.1883 71.0679 42.1691 71.1287 42.1383C71.2208 42.0462 71.3236 41.9692 71.4367 41.9073C71.707 41.6497 71.9765 41.3933 72.2452 41.1373Z" fill="#220F2D"/>
<path fill-rule="evenodd" clip-rule="evenodd" d="M84.3728 31.0502C84.541 31.7678 84.6438 32.4993 84.6808 33.2447C84.4678 33.1951 84.2623 33.1309 84.0648 33.0522C84.2361 32.4009 84.3389 31.7336 84.3728 31.0502Z" fill="#B6ABBB"/>
<path fill-rule="evenodd" clip-rule="evenodd" d="M78.9442 41.0602C78.2293 41.4322 77.5686 41.3552 76.9615 40.8292C76.9426 40.7796 76.9361 40.728 76.9422 40.6752C77.2895 38.4206 78.329 36.5661 80.0607 35.112C80.7056 34.6357 81.4244 34.3277 82.2167 34.188C83.4056 34.0667 84.4324 34.4132 85.2967 35.2275C83.863 35.0147 82.6052 35.3869 81.5237 36.344C80.167 37.6392 79.3069 39.2115 78.9442 41.0602Z" fill="#FDFDFD"/>
<path fill-rule="evenodd" clip-rule="evenodd" d="M87.5298 40.9448C86.9661 41.8869 86.2346 42.6761 85.3353 43.3125C84.4563 43.8885 83.4938 44.1195 82.4478 44.0055C81.4006 43.7872 80.6113 43.2159 80.08 42.2923C80.0034 42.1479 79.9714 41.9939 79.9838 41.8303C80.239 39.978 81.0475 38.419 82.4093 37.1525C82.9028 36.739 83.4672 36.4695 84.1033 36.344C85.1878 36.2735 86.0283 36.6906 86.625 37.5953C87.2549 38.6201 87.5563 39.7366 87.5298 40.9448Z" fill="#FEFEFE"/>
<path fill-rule="evenodd" clip-rule="evenodd" d="M73.8623 39.0967C73.875 39.1225 73.888 39.1479 73.9008 39.1737C73.4053 39.8171 72.8728 40.4331 72.303 41.0217C72.2845 41.0583 72.278 41.0968 72.2838 41.1372C72.271 41.1372 72.258 41.1372 72.2453 41.1372C71.8599 40.5332 71.8406 39.9172 72.1875 39.2892C72.6903 38.7468 73.2486 38.6825 73.8623 39.0967Z" fill="#9B8CA1"/>
<path fill-rule="evenodd" clip-rule="evenodd" d="M73.9008 39.1738C74.2103 39.4594 74.3643 39.8186 74.3628 40.2518C74.3812 40.8373 74.1375 41.2674 73.6313 41.5415C73.073 41.7456 72.6237 41.6108 72.2838 41.1373C72.278 41.0968 72.2845 41.0583 72.303 41.0218C72.8728 40.4331 73.4053 39.8171 73.9008 39.1738Z" fill="#908596"/>
<path fill-rule="evenodd" clip-rule="evenodd" d="M76.9423 40.6752C76.9361 40.728 76.9426 40.7796 76.9615 40.8292C77.5686 41.3552 78.2293 41.4322 78.9443 41.0602C78.5365 42.8174 78.6586 44.5372 79.31 46.2192C79.6811 47.0716 80.2394 47.7712 80.9848 48.3175C80.0985 48.2744 79.3285 47.9537 78.6748 47.355C77.9128 46.5954 77.3931 45.6906 77.1155 44.6407C76.8414 43.5924 76.7513 42.5271 76.846 41.4452C76.8537 41.18 76.886 40.9232 76.9423 40.6752Z" fill="#B9AEBE"/>
<path fill-rule="evenodd" clip-rule="evenodd" d="M87.5297 40.9447C87.5174 42.991 86.8691 44.8005 85.5855 46.3732C84.9637 47.0917 84.1876 47.5471 83.2562 47.74C82.3446 47.8135 81.5938 47.499 81.004 46.7967C80.3356 45.8831 79.9637 44.8563 79.8875 43.7167C79.8436 43.078 79.8756 42.4493 79.9837 41.8302C79.9714 41.9939 80.0034 42.1479 80.08 42.2922C80.6113 43.2159 81.4005 43.7872 82.4477 44.0055C83.4938 44.1195 84.4563 43.8885 85.3352 43.3125C86.2346 42.6761 86.9661 41.8868 87.5297 40.9447Z" fill="#B9AEBE"/>
<path fill-rule="evenodd" clip-rule="evenodd" d="M44.4868 59.1552C43.4195 58.5947 42.5533 57.812 41.888 56.8067C41.7948 56.6335 41.6924 56.4668 41.58 56.3062C41.1661 55.2436 40.768 54.1784 40.3865 53.1107C40.1158 52.4543 39.8144 51.8125 39.4818 51.1857C39.8175 51.3132 40.164 51.3582 40.5213 51.3205C40.6063 51.2354 40.619 51.1392 40.5598 51.0317C39.8517 50.6421 39.2165 50.1543 38.654 49.5687C38.2489 49.0602 37.9602 48.4892 37.7878 47.8555C37.3537 47.9194 36.9174 47.9833 36.4788 48.048C35.8978 48.1362 35.3203 48.1231 34.7463 48.0095C34.2056 47.8593 33.9939 47.5063 34.111 46.9507C34.3007 46.5041 34.6023 46.1515 35.0158 45.892C36.3444 45.1389 37.7561 44.9333 39.2508 45.276C41.0129 45.872 42.7585 46.5138 44.4868 47.201C45.0023 47.9733 45.5478 48.7241 46.123 49.4532C44.8171 52.5506 44.2719 55.7846 44.4868 59.1552Z" fill="#FEFEFE"/>
<path fill-rule="evenodd" clip-rule="evenodd" d="M103.007 46.4887C103.46 47.2972 103.582 48.157 103.372 49.0682C103.04 50.5497 102.238 51.6986 100.966 52.514C99.7065 53.1893 98.5257 53.0738 97.4242 52.1675C97 51.7371 96.6277 51.2689 96.3077 50.7622C97.0496 50.8269 97.7681 50.7307 98.4637 50.4735C99.4066 50.0192 99.7978 49.2684 99.638 48.2212C99.3392 46.9985 98.6016 46.158 97.4242 45.6995C98.8241 45.4192 100.223 45.4192 101.621 45.6995C102.151 45.855 102.613 46.118 103.007 46.4887Z" fill="#FEFEFE"/>
<path fill-rule="evenodd" clip-rule="evenodd" d="M36.5558 49.2992C36.6071 49.2992 36.6584 49.2992 36.7098 49.2992C36.7409 50.1512 36.6959 50.9982 36.575 51.8402C36.1935 53.8457 35.0449 54.5002 33.1293 53.8037C32.1597 52.39 31.7041 50.8242 31.7625 49.1067C31.878 47.8235 32.4041 46.7455 33.341 45.8727C33.2179 46.1064 33.1024 46.3501 32.9945 46.6042C32.7424 48.0565 33.3391 48.9354 34.7848 49.2415C35.3737 49.2939 35.964 49.3131 36.5558 49.2992Z" fill="#FDFDFE"/>
<path fill-rule="evenodd" clip-rule="evenodd" d="M76.1722 46.0652C76.2107 46.0618 76.2427 46.0749 76.2685 46.1037C76.4306 46.441 76.6038 46.7748 76.7882 47.1047C74.2376 50.7684 70.8111 53.2262 66.5087 54.4775C62.3962 55.5848 58.3021 55.5205 54.2272 54.285C52.5017 53.4307 50.9232 52.3658 49.4917 51.0895C51.8291 52.4766 54.3443 53.4261 57.0377 53.9385C61.5673 54.7216 65.8666 54.0544 69.9352 51.9365C72.5178 50.5155 74.5968 48.5581 76.1722 46.0652Z" fill="#B8ADBD"/>
<path fill-rule="evenodd" clip-rule="evenodd" d="M94.0362 52.2253C94.0532 52.2226 94.0659 52.2291 94.0747 52.2445C93.061 54.0394 91.7647 55.6052 90.1862 56.9415C89.7173 57.2853 89.2295 57.5995 88.7232 57.8848C87.9567 56.8376 87.4628 55.6695 87.241 54.3813C86.9549 52.4932 86.9615 50.6067 87.2602 48.7218C89.1163 48.2675 90.9516 47.7346 92.7657 47.124C93.5535 46.9304 94.3493 46.7764 95.1527 46.662C95.9609 46.5427 96.7309 46.6582 97.4627 47.0085C98.0595 47.3735 98.406 47.8998 98.5022 48.587C98.5307 48.9412 98.3894 49.198 98.0787 49.357C97.8913 49.4263 97.6988 49.4779 97.5012 49.511C96.6308 49.5641 95.7711 49.4937 94.9217 49.2993C94.8705 49.312 94.819 49.3251 94.7677 49.3378C94.6137 49.9541 94.3377 50.5058 93.94 50.9933C93.3752 51.5962 92.7334 52.0967 92.015 52.4948C91.9711 52.7839 92.0932 52.8801 92.3807 52.7835C92.9656 52.683 93.5173 52.4971 94.0362 52.2253Z" fill="#FEFEFE"/>
<path fill-rule="evenodd" clip-rule="evenodd" d="M64.4298 56.4217C63.8523 56.4283 63.2748 56.4217 62.6973 56.4025C62.6757 56.3879 62.663 56.3686 62.6588 56.3447C68.0018 55.877 72.5001 53.7083 76.153 49.8382C76.6435 49.2646 77.1117 48.6744 77.5583 48.0672C78.0953 48.6051 78.7113 49.0286 79.4063 49.3377C76.3455 52.7558 72.5598 54.9695 68.0488 55.979C66.8553 56.2316 65.649 56.379 64.4298 56.4217Z" fill="#B9ADBE"/>
<path fill-rule="evenodd" clip-rule="evenodd" d="M87.7608 58.2697C87.278 58.4938 86.7648 58.6286 86.2208 58.674C85.6048 58.7495 84.9888 58.7495 84.3728 58.674C83.3675 58.4973 82.405 58.1893 81.4853 57.75C81.1526 57.5837 80.8192 57.417 80.4843 57.2495C80.3252 57.1763 80.1582 57.1444 79.9838 57.1532C79.8417 57.4851 79.797 57.8316 79.849 58.1927C80.0369 58.8761 80.2679 59.5433 80.542 60.1947C80.5678 60.246 80.5678 60.2975 80.542 60.3487C80.3784 60.4723 80.2051 60.5813 80.0223 60.676C79.3146 60.9721 78.6343 61.3186 77.9818 61.7155C77.7588 61.9126 77.7973 62.0408 78.0973 62.1005C78.5693 62.174 79.0444 62.2252 79.5218 62.2545C79.6973 62.2695 79.864 62.3146 80.0223 62.3892C80.8311 63.2567 81.1584 64.2834 81.004 65.4692C80.9027 66.1311 80.7295 66.7725 80.4843 67.3942C78.7768 67.9621 77.0312 68.3729 75.2483 68.6262C75.1666 68.1546 75.1089 67.6799 75.075 67.2017C74.8606 66.5253 74.4051 66.1211 73.7083 65.989C72.7773 65.8954 71.8468 65.7992 70.917 65.7002C66.4267 66.0872 61.9288 66.2219 57.4228 66.1045C56.2832 66.4094 55.661 67.1475 55.5555 68.3182C55.0265 65.3665 54.7505 62.3892 54.7278 59.3862C54.7278 59.0397 54.7278 58.6932 54.7278 58.3467C60.5701 60.9705 66.4737 61.1053 72.4378 58.751C76.9869 56.8129 80.5031 53.7137 82.9868 49.4532C84.069 49.2985 85.147 49.1187 86.2208 48.9142C85.9332 50.8835 85.9655 52.847 86.317 54.8047C86.5776 56.0572 87.0589 57.2122 87.7608 58.2697Z" fill="#FEFEFE"/>
<path fill-rule="evenodd" clip-rule="evenodd" d="M39.4817 51.1857C39.8144 51.8125 40.1158 52.4543 40.3865 53.1107C40.768 54.1783 41.1661 55.2436 41.58 56.3062C41.6924 56.4668 41.7948 56.6335 41.888 56.8067C42.5533 57.812 43.4195 58.5947 44.4867 59.1552C44.5268 59.8298 44.6165 60.497 44.7562 61.1572C44.737 61.1699 44.7177 61.183 44.6985 61.1957C41.4618 60.1647 38.491 58.644 35.7857 56.6335C34.7578 55.8173 33.8723 54.874 33.1292 53.8037C35.0449 54.5002 36.1935 53.8457 36.575 51.8402C36.6959 50.9982 36.7409 50.1512 36.7097 49.2992C36.6584 49.2992 36.6071 49.2992 36.5557 49.2992C36.702 49.25 36.856 49.2307 37.0177 49.2415C37.5973 50.2001 38.4186 50.8481 39.4817 51.1857Z" fill="#B9AEBE"/>
<path fill-rule="evenodd" clip-rule="evenodd" d="M82.9868 49.4532C80.5031 53.7137 76.9869 56.8129 72.4378 58.751C66.4737 61.1053 60.5701 60.9705 54.7278 58.3467C54.715 57.5444 54.7278 56.7486 54.7663 55.9597C57.4316 57.0993 60.2163 57.6896 63.1208 57.7307C63.6274 57.7754 64.1406 57.782 64.6608 57.75C64.9772 57.7435 65.2852 57.7111 65.5848 57.6537C71.3497 57.0651 76.2073 54.6781 80.157 50.4927C80.3988 50.2206 80.6363 49.9445 80.8693 49.665C81.5788 49.628 82.2849 49.5572 82.9868 49.4532Z" fill="#B9AEBE"/>
<path fill-rule="evenodd" clip-rule="evenodd" d="M103.007 46.4888C103.463 46.9142 103.739 47.4405 103.835 48.0673C103.935 49.0532 103.794 50.003 103.411 50.9163C102.72 52.5452 101.712 53.9504 100.389 55.132C98.9404 56.3702 97.3488 57.397 95.6148 58.212C94.2372 58.8507 92.8189 59.3836 91.3605 59.8098C90.2914 59.4271 89.4124 58.7857 88.7233 57.8848C89.2295 57.5995 89.7173 57.2853 90.1863 56.9415C91.7648 55.6052 93.061 54.0394 94.0748 52.2445C94.0659 52.2291 94.0532 52.2226 94.0363 52.2253C94.6576 51.841 95.1581 51.3344 95.5378 50.7045C95.7953 50.7026 96.0521 50.7218 96.3078 50.7623C96.6277 51.2689 97 51.7371 97.4243 52.1675C98.5257 53.0738 99.7065 53.1893 100.966 52.514C102.238 51.6986 103.04 50.5497 103.373 49.0683C103.582 48.157 103.46 47.2973 103.007 46.4888Z" fill="#B9AEBE"/>
<path fill-rule="evenodd" clip-rule="evenodd" d="M49.4147 52.7257C49.7978 53.6717 50.3176 54.5318 50.974 55.3052C51.7124 56.153 52.5275 56.9103 53.4187 57.5767C53.4187 58.0387 53.4187 58.5007 53.4187 58.9627C53.4253 59.1814 53.4187 59.3993 53.3995 59.6172C52.7531 60.2132 51.9892 60.5659 51.1087 60.676C49.1968 60.631 47.3361 60.3037 45.5262 59.6942C45.1913 56.4499 45.634 53.3183 46.8545 50.3002C47.6426 51.185 48.4961 51.9935 49.4147 52.7257Z" fill="#FEFEFE"/>
<path fill-rule="evenodd" clip-rule="evenodd" d="M49.4147 52.7258C50.6425 53.721 51.9642 54.5807 53.3802 55.3053C53.4187 56.0622 53.4315 56.8191 53.4187 57.5768C52.5275 56.9103 51.7124 56.153 50.974 55.3053C50.3176 54.5318 49.7978 53.6717 49.4147 52.7258Z" fill="#B9AEBE"/>
<path fill-rule="evenodd" clip-rule="evenodd" d="M54.7663 55.9597C54.7278 56.7486 54.715 57.5444 54.7278 58.3467C54.7278 58.6932 54.7278 59.0397 54.7278 59.3862C54.6765 58.2374 54.6765 57.0824 54.7278 55.9212C54.7512 55.9259 54.7639 55.939 54.7663 55.9597Z" fill="#75627F"/>
<path fill-rule="evenodd" clip-rule="evenodd" d="M62.6587 56.3448C62.663 56.3686 62.6757 56.3879 62.6972 56.4025C63.2747 56.4218 63.8522 56.4283 64.4297 56.4218C63.6778 56.4757 62.9209 56.4691 62.1582 56.4025C62.3219 56.3567 62.4886 56.3374 62.6587 56.3448Z" fill="#917E99"/>
<path fill-rule="evenodd" clip-rule="evenodd" d="M87.7608 58.2698C88.3375 59.0324 89.0305 59.6677 89.8398 60.1755C88.7479 60.4292 87.6441 60.6217 86.5288 60.753C85.2706 60.8643 84.0132 60.9798 82.7558 61.0995C82.3353 61.1392 82.0212 61.3382 81.8125 61.6963C81.7563 61.8595 81.7436 62.0262 81.774 62.1968C81.8849 62.581 82.0262 62.9529 82.1975 63.3133C82.6222 64.1884 83.0264 65.0739 83.4103 65.9698C83.0399 66.2581 82.6418 66.5084 82.2168 66.7205C81.6554 66.9885 81.0779 67.2129 80.4843 67.3943C80.7295 66.7725 80.9027 66.1311 81.004 65.4693C81.1584 64.2835 80.8311 63.2567 80.0223 62.3893C79.864 62.3146 79.6973 62.2695 79.5218 62.2545C79.0444 62.2252 78.5693 62.174 78.0973 62.1005C77.7973 62.0408 77.7588 61.9126 77.9818 61.7155C78.6343 61.3186 79.3146 60.9721 80.0223 60.676C80.2051 60.5813 80.3784 60.4723 80.542 60.3488C80.5678 60.2975 80.5678 60.246 80.542 60.1948C80.2679 59.5433 80.0369 58.8761 79.849 58.1928C79.797 57.8316 79.8417 57.4851 79.9838 57.1533C80.1582 57.1444 80.3252 57.1764 80.4843 57.2495C80.8192 57.417 81.1526 57.5837 81.4853 57.75C82.405 58.1893 83.3675 58.4973 84.3728 58.674C84.9888 58.7495 85.6048 58.7495 86.2208 58.674C86.7648 58.6286 87.278 58.4938 87.7608 58.2698Z" fill="#B9AEBE"/>
<path fill-rule="evenodd" clip-rule="evenodd" d="M65.5848 57.6537C65.2852 57.7111 64.9772 57.7435 64.6608 57.75C64.1406 57.782 63.6274 57.7754 63.1208 57.7307C63.9435 57.74 64.7647 57.7142 65.5848 57.6537Z" fill="#9888A0"/>
<path fill-rule="evenodd" clip-rule="evenodd" d="M53.4187 58.9628C53.4407 60.2667 53.4919 61.5757 53.5727 62.8898C50.9582 62.7223 48.3918 62.2795 45.8727 61.5615C45.7992 61.4541 45.7546 61.332 45.738 61.1958C45.6502 60.6956 45.5798 60.1951 45.5262 59.6943C47.3361 60.3037 49.1968 60.631 51.1087 60.676C51.9892 60.5659 52.7531 60.2132 53.3995 59.6173C53.4187 59.3993 53.4253 59.1814 53.4187 58.9628Z" fill="#B9AEBE"/>
<path fill-rule="evenodd" clip-rule="evenodd" d="M90.4558 61.3498C90.4943 61.3463 90.5262 61.3594 90.552 61.3883C90.8011 62.2868 91.0256 63.1916 91.2258 64.1025C91.213 64.1218 91.2 64.141 91.1873 64.1603C89.6985 64.5287 88.2097 64.8945 86.7213 65.2575C86.2077 65.4889 85.8931 65.8804 85.778 66.4318C85.4893 66.0498 85.117 65.7803 84.6615 65.6233C84.1903 64.5395 83.709 63.4615 83.2178 62.3893C83.2382 62.3627 83.2636 62.3434 83.2948 62.3315C85.3526 62.2283 87.3931 61.9846 89.4163 61.6C89.7693 61.523 90.1158 61.4398 90.4558 61.3498Z" fill="#FDFDFD"/>
<path fill-rule="evenodd" clip-rule="evenodd" d="M92.3422 69.6658C92.1055 69.9734 91.836 70.249 91.5337 70.4935C90.7072 71.0537 89.8602 71.0791 88.9927 70.5705C88.8688 70.4766 88.7406 70.3934 88.6077 70.3203C88.2755 69.5175 88.0572 68.6832 87.9532 67.8178C87.9598 67.6761 87.9532 67.5348 87.934 67.3943C87.8859 67.4909 87.8666 67.5937 87.8762 67.7023C87.8501 68.5439 87.9144 69.3782 88.0687 70.2048C88.0657 70.6321 87.8605 70.7988 87.4527 70.7053C87.0489 69.3362 86.8887 67.9375 86.9715 66.5088C87.0308 66.4364 87.1016 66.3786 87.1832 66.3355C88.6616 65.9886 90.1377 65.629 91.6107 65.2575C91.8152 65.209 91.963 65.2795 92.0535 65.4693C92.3326 66.856 92.4289 68.2547 92.3422 69.6658Z" fill="#FDFDFD"/>
<path fill-rule="evenodd" clip-rule="evenodd" d="M85.3352 68.0487C85.0989 68.2786 84.8552 68.503 84.6037 68.7225C82.5887 70.1139 80.3557 70.9482 77.9047 71.225C77.1109 71.3116 76.3155 71.3501 75.5177 71.3405C74.9295 71.2261 74.4482 70.9374 74.074 70.4742C74.0555 70.4377 74.049 70.3992 74.0547 70.3587C74.1102 70.1197 74.2257 69.9145 74.4012 69.7427C76.7243 69.4455 78.9958 68.9258 81.2157 68.1835C82.3419 67.7989 83.3748 67.2537 84.315 66.5472C84.7474 66.6843 85.0423 66.9665 85.2005 67.3942C85.2825 67.6052 85.3275 67.8231 85.3352 68.0487Z" fill="#FDFDFD"/>
<path fill-rule="evenodd" clip-rule="evenodd" d="M72.5918 71.3213C72.564 71.57 72.4805 71.801 72.3415 72.0143C72.1744 72.2972 71.9885 72.5667 71.7833 72.8228C71.7105 72.5394 71.6077 72.2699 71.4753 72.0143C71.6227 70.9097 71.2508 70.0303 70.3588 69.377C70.0904 69.2234 69.8017 69.1398 69.4925 69.1268C69.0109 69.1799 68.5296 69.2376 68.0488 69.3C67.4751 69.3974 67.0451 69.6992 66.759 70.2048C66.414 70.8658 66.337 71.5588 66.528 72.2838C66.6997 72.8851 67.0397 73.3602 67.5483 73.7083C67.6476 74.2215 67.8913 74.6515 68.2798 74.998C67.4944 75.1878 66.6989 75.316 65.8928 75.383C65.4184 75.4138 64.9433 75.4331 64.4683 75.4408C64.3755 74.5564 64.2919 73.6709 64.218 72.7843C64.1187 72.3511 63.8938 71.9985 63.5443 71.7255C63.2039 71.5234 62.8574 71.3309 62.5048 71.148C62.3092 71.004 62.1744 70.8181 62.1005 70.5898C61.9465 69.424 61.8118 68.2563 61.6963 67.0863C64.7836 67.0986 67.8636 66.9577 70.9363 66.6628C71.6747 66.6893 72.1305 67.0612 72.303 67.7793C72.4008 68.9597 72.497 70.1405 72.5918 71.3213Z" fill="#FEFEFE"/>
<path fill-rule="evenodd" clip-rule="evenodd" d="M73.0153 66.8937C73.4384 66.8441 73.791 66.9727 74.074 67.2787C74.1729 67.7742 74.2307 68.2747 74.2473 68.7802C74.1564 68.7741 74.0667 68.7802 73.9778 68.7995C73.7776 68.987 73.5916 69.1856 73.4195 69.3962C73.361 68.7668 73.2967 68.1381 73.227 67.5097C73.1881 67.2911 73.1173 67.0859 73.0153 66.8937Z" fill="#FAFAFB"/>
<path fill-rule="evenodd" clip-rule="evenodd" d="M63.6598 75.3253C63.6682 75.3707 63.6555 75.4092 63.6213 75.4408C61.8938 75.3715 60.2383 74.9926 58.6548 74.305C58.1727 74.0705 57.7107 73.8076 57.2688 73.5158C57.0358 71.8999 56.7983 70.2829 56.5565 68.6648C56.473 67.8628 56.8129 67.33 57.5768 67.067C58.6802 67.0709 59.784 67.0839 60.8878 67.1055C61.0387 68.2374 61.1734 69.3732 61.292 70.5128C61.3613 71.0044 61.5858 71.4086 61.9658 71.7255C62.3508 71.9438 62.7358 72.1617 63.1208 72.38C63.2767 72.5232 63.3856 72.6965 63.448 72.8998C63.5281 73.7075 63.5985 74.516 63.6598 75.3253Z" fill="#FEFEFE"/>
<path fill-rule="evenodd" clip-rule="evenodd" d="M87.9532 67.8178C87.9275 67.7793 87.902 67.7408 87.8762 67.7023C87.8666 67.5937 87.8859 67.4909 87.934 67.3943C87.9532 67.5348 87.9598 67.6761 87.9532 67.8178Z" fill="#928199"/>
<path fill-rule="evenodd" clip-rule="evenodd" d="M85.3353 68.0488C85.3391 68.4314 85.2301 68.7779 85.008 69.0883C84.7162 69.4571 84.3762 69.7716 83.9878 70.0315C81.9453 71.3755 79.6992 72.1455 77.2503 72.3415C76.4167 72.3993 75.5828 72.412 74.7478 72.38C74.4051 71.9962 74.1676 71.5534 74.0355 71.0518C74.0039 70.8138 74.0105 70.5828 74.0548 70.3588C74.049 70.3992 74.0555 70.4377 74.074 70.4743C74.4482 70.9374 74.9295 71.2262 75.5178 71.3405C76.3155 71.3501 77.1109 71.3116 77.9048 71.225C80.3557 70.9482 82.5887 70.1139 84.6038 68.7225C84.8552 68.5031 85.0989 68.2786 85.3353 68.0488Z" fill="#B9AEBE"/>
<path fill-rule="evenodd" clip-rule="evenodd" d="M71.4752 72.0142C71.3528 72.7715 70.9551 73.3298 70.2817 73.689C69.6719 73.8276 69.0559 73.9238 68.4337 73.9777C68.1138 73.965 67.8185 73.8753 67.5482 73.7082C67.0397 73.3602 66.6997 72.8851 66.528 72.2837C66.337 71.5588 66.414 70.8658 66.759 70.2047C67.0451 69.6992 67.4751 69.3974 68.0487 69.3C68.5296 69.2376 69.0109 69.1799 69.4925 69.1267C69.8017 69.1398 70.0904 69.2234 70.3587 69.377C71.2508 70.0303 71.6227 70.9097 71.4752 72.0142Z" fill="#371B46"/>
<path fill-rule="evenodd" clip-rule="evenodd" d="M70.2818 70.3587C70.1447 70.2968 70.0034 70.2452 69.8583 70.2047C69.7774 70.1277 69.7004 70.0446 69.6273 69.9545C69.9025 69.9899 70.1208 70.1247 70.2818 70.3587Z" fill="#F2F2F6"/>
<path fill-rule="evenodd" clip-rule="evenodd" d="M69.3193 70.9362C68.6713 70.3002 68.0037 70.2748 67.3173 70.8592C67.6333 70.0588 68.1596 69.8729 68.8958 70.301C69.0917 70.4773 69.233 70.6891 69.3193 70.9362Z" fill="#F5F6F8"/>
<path fill-rule="evenodd" clip-rule="evenodd" d="M56.0752 72.2068C55.6868 72.3076 55.2891 72.3011 54.8817 72.1875C54.6492 72.0843 54.4309 71.9623 54.2272 71.8218C54.29 71.1619 54.6365 70.7191 55.2667 70.4935C55.4562 70.4454 55.6487 70.4261 55.8442 70.4358C55.9274 71.0252 56.0044 71.6158 56.0752 72.2068Z" fill="#FCFBFC"/>
<path fill-rule="evenodd" clip-rule="evenodd" d="M69.3192 70.9362C69.4116 71.0864 69.4629 71.2535 69.4732 71.4367C69.4813 71.5299 69.4682 71.6196 69.4347 71.7062C69.0871 72.1024 68.6509 72.2499 68.1257 72.149C67.7496 72.0551 67.4609 71.8433 67.2595 71.5137C67.2402 71.3859 67.2337 71.2577 67.2402 71.1287C67.2368 71.0267 67.2626 70.9366 67.3172 70.8592C68.0037 70.2748 68.6713 70.3002 69.3192 70.9362Z" fill="#24A6F0"/>
<path fill-rule="evenodd" clip-rule="evenodd" d="M92.3422 69.6657C92.3157 71.0398 91.6354 71.8868 90.3017 72.2067C89.745 71.9388 89.3023 71.5411 88.9735 71.0132C88.8414 70.7872 88.7194 70.5562 88.6077 70.3202C88.7406 70.3934 88.8688 70.4766 88.9927 70.5705C89.8602 71.0791 90.7072 71.0537 91.5337 70.4935C91.836 70.249 92.1055 69.9734 92.3422 69.6657Z" fill="#B8AEBE"/>
<path fill-rule="evenodd" clip-rule="evenodd" d="M84.2957 87.7222C83.7352 86.6516 83.2793 85.5351 82.929 84.3727C82.8478 83.9358 82.7577 83.4996 82.6595 83.0637C82.6337 82.6787 82.6337 82.2937 82.6595 81.9087C82.8389 80.5254 82.9929 79.1394 83.1215 77.7507C83.1588 77.0554 83.133 76.3624 83.0445 75.6717C82.9429 75.1077 82.6541 74.665 82.1782 74.3435C81.4198 73.9065 80.6113 73.5985 79.7527 73.4195C79.2823 73.3155 78.8072 73.2447 78.3282 73.2077C80.2506 72.9198 82.0601 72.2976 83.7567 71.3405C84.1356 71.0933 84.5079 70.8365 84.8732 70.5705C84.9156 70.5539 84.9414 70.5732 84.9502 70.6282C85.4511 72.6772 85.6629 74.7562 85.5855 76.8652C85.4546 78.3152 85.3264 79.7655 85.2005 81.2157C85.1019 82.5756 85.0892 83.9362 85.162 85.2967C85.2594 85.773 85.3491 86.2477 85.4315 86.7212C85.0692 87.0774 84.6908 87.4108 84.2957 87.7222Z" fill="#B9AEBE"/>
<path fill-rule="evenodd" clip-rule="evenodd" d="M69.8583 70.2047C70.0034 70.2452 70.1447 70.2968 70.2818 70.3587C70.485 70.5743 70.6198 70.8311 70.686 71.1287C70.7053 71.2177 70.7114 71.3074 70.7053 71.3982C70.5736 71.5041 70.4327 71.5942 70.2818 71.6677C70.2525 71.1472 70.1112 70.6594 69.8583 70.2047Z" fill="#25A3EB"/>
<path fill-rule="evenodd" clip-rule="evenodd" d="M88.0688 70.2047C88.2328 70.9205 88.5342 71.575 88.9735 72.1682C89.0001 72.2002 88.9935 72.226 88.9543 72.2452C88.1692 72.0119 87.6687 71.4987 87.4528 70.7052C87.8605 70.7988 88.0657 70.6321 88.0688 70.2047Z" fill="#B7ACBD"/>
<path fill-rule="evenodd" clip-rule="evenodd" d="M86.7983 72.0528C86.7675 72.139 86.7032 72.1775 86.6058 72.1683C86.5249 71.9211 86.4799 71.6643 86.471 71.3983C86.5807 71.6173 86.6897 71.8356 86.7983 72.0528Z" fill="#F3EFF4"/>
<path fill-rule="evenodd" clip-rule="evenodd" d="M67.2403 71.1288C67.2337 71.2577 67.2403 71.3859 67.2595 71.5138C67.4609 71.8433 67.7496 72.0551 68.1258 72.149C68.6509 72.2499 69.0871 72.1024 69.4348 71.7063C69.4682 71.6196 69.4813 71.5299 69.4733 71.4368C69.5899 72.0643 69.4101 72.5968 68.9343 73.0345C68.5462 73.232 68.1739 73.2066 67.8178 72.9575C67.308 72.4458 67.1155 71.836 67.2403 71.1288Z" fill="#2A75B3"/>
<path fill-rule="evenodd" clip-rule="evenodd" d="M70.7053 71.3983C70.7722 71.9861 70.5928 72.4805 70.1663 72.8805C70.1131 72.9282 70.0619 72.9348 70.0123 72.8998C70.1847 72.5078 70.2744 72.097 70.2818 71.6678C70.4327 71.5942 70.5736 71.5041 70.7053 71.3983Z" fill="#2A73B0"/>
<path fill-rule="evenodd" clip-rule="evenodd" d="M72.5917 71.3213C72.6988 72.4701 72.8016 73.6251 72.8997 74.7863C72.8416 75.6979 72.3538 76.1792 71.4367 76.23C69.1645 76.5615 66.8803 76.7478 64.5837 76.7883C64.536 76.3397 64.4975 75.8908 64.4682 75.4408C64.9433 75.4331 65.4184 75.4138 65.8927 75.383C66.6989 75.316 67.4943 75.1878 68.2797 74.998C67.8913 74.6515 67.6476 74.2215 67.5482 73.7083C67.8185 73.8753 68.1138 73.9651 68.4337 73.9778C69.0559 73.9239 69.6719 73.8276 70.2817 73.689C70.9551 73.3298 71.3528 72.7716 71.4752 72.0143C71.6077 72.2699 71.7105 72.5394 71.7832 72.8228C71.9885 72.5667 72.1744 72.2972 72.3415 72.0143C72.4805 71.801 72.564 71.57 72.5917 71.3213Z" fill="#B9AEBE"/>
<path fill-rule="evenodd" clip-rule="evenodd" d="M54.2273 71.8217C54.4309 71.9623 54.6492 72.0843 54.8818 72.1875C55.2891 72.3011 55.6868 72.3076 56.0753 72.2067C56.1507 72.5575 56.2019 72.9167 56.2293 73.2847C55.5836 73.433 55.0254 73.279 54.5545 72.8227C54.327 72.529 54.218 72.1952 54.2273 71.8217Z" fill="#B8ADBD"/>
<path fill-rule="evenodd" clip-rule="evenodd" d="M86.7983 72.0527C87.3168 72.8385 88.0483 73.2944 88.9928 73.4195C90.1139 73.5485 91.1403 73.2982 92.0728 72.6687C92.1086 74.2673 91.8583 75.8204 91.322 77.3272C91.1199 77.7477 90.8442 78.1134 90.4943 78.4245C90.1173 78.724 89.7196 78.9935 89.3008 79.233C88.4353 79.6734 87.5367 80.0261 86.6058 80.2917C86.6704 79.1868 86.754 78.083 86.856 76.9807C86.8818 76.1722 86.8818 75.3637 86.856 74.5552C86.7852 73.7579 86.702 72.9621 86.6058 72.1682C86.7032 72.1775 86.7675 72.139 86.7983 72.0527Z" fill="#B9AEBE"/>
<path fill-rule="evenodd" clip-rule="evenodd" d="M78.3283 73.2077C78.8072 73.2447 79.2823 73.3155 79.7528 73.4195C80.6113 73.5985 81.4198 73.9065 82.1783 74.3435C82.6541 74.665 82.9429 75.1077 83.0445 75.6717C83.1331 76.3624 83.1588 77.0554 83.1215 77.7507C82.9929 79.1394 82.8389 80.5254 82.6595 81.9087C82.6337 82.2937 82.6337 82.6787 82.6595 83.0637C82.7577 83.4996 82.8478 83.9358 82.929 84.3727C83.2794 85.5351 83.7352 86.6516 84.2958 87.7222C80.865 90.5555 76.9892 91.3963 72.6688 90.244C72.6329 90.229 72.6075 90.2036 72.5918 90.167C72.0839 88.597 71.8529 86.9861 71.8988 85.3352C71.9369 85.06 71.9496 84.7778 71.9373 84.4882C71.851 84.4771 71.774 84.4898 71.7063 84.5267C71.6293 84.5267 71.5523 84.5267 71.4753 84.5267C71.7282 83.3548 71.2531 82.79 70.0508 82.8327C69.5491 82.8616 69.0486 82.9067 68.5493 82.9675C66.6208 83.0872 64.7343 82.8628 62.8898 82.2937C60.9578 81.0614 59.4563 79.4313 58.3853 77.4042C62.9494 77.9425 67.5051 77.8462 72.0528 77.1155C72.3015 77.0204 72.5583 76.9561 72.8228 76.923C73.6197 76.6061 74.4024 76.2596 75.1713 75.8835C75.5047 75.6078 75.7037 75.2548 75.768 74.8247C75.7584 74.3489 75.726 73.8742 75.6718 73.4002C76.5611 73.3848 77.4466 73.3209 78.3283 73.2077Z" fill="#FEFEFE"/>
<path fill-rule="evenodd" clip-rule="evenodd" d="M73.7083 72.6687C73.9085 72.894 74.1137 73.1188 74.3243 73.3425C74.4521 73.3617 74.5803 73.3683 74.7093 73.3617C74.7281 73.7471 74.7535 74.1321 74.7863 74.5167C74.8271 74.7859 74.7374 74.9976 74.5168 75.152C74.2884 75.2409 74.0636 75.3372 73.843 75.4407C73.8626 75.0954 73.8626 74.7489 73.843 74.4012C73.7799 73.8249 73.7348 73.2474 73.7083 72.6687Z" fill="#B8ADBD"/>
<path fill-rule="evenodd" clip-rule="evenodd" d="M57.2688 73.5157C57.7107 73.8076 58.1727 74.0705 58.6548 74.305C60.2383 74.9926 61.8938 75.3714 63.6213 75.4407C63.6555 75.4092 63.6682 75.3707 63.6598 75.3252C63.7237 75.8053 63.7622 76.2928 63.7753 76.7882C62.1128 76.7848 60.4573 76.6758 58.8088 76.461C58.1924 76.409 57.7754 76.0949 57.5575 75.5177C57.4362 74.8544 57.34 74.1868 57.2688 73.5157Z" fill="#B9AEBE"/>
<path fill-rule="evenodd" clip-rule="evenodd" d="M99.7342 105.432C99.5768 105.536 99.397 105.6 99.1952 105.625C99.0878 105.363 98.9338 105.132 98.7332 104.932C98.7075 104.881 98.682 104.829 98.6562 104.778C96.25 97.1424 93.8183 89.5194 91.3605 81.9087C91.1499 81.2188 90.9509 80.5258 90.7637 79.8297C90.9747 79.6788 91.1803 79.5187 91.3797 79.3485C91.4175 79.3258 91.4433 79.3385 91.4567 79.387C94.2299 88.0714 96.9888 96.7532 99.7342 105.432Z" fill="#EBEAF3"/>
<path fill-rule="evenodd" clip-rule="evenodd" d="M90.7637 79.8297C90.9509 80.5258 91.1499 81.2188 91.3605 81.9087C93.8183 89.5194 96.25 97.1424 98.6562 104.778C96.8209 102.609 94.4724 101.505 91.6107 101.467C91.2635 101.47 90.917 101.483 90.5712 101.505C90.6667 100.3 90.6733 99.0936 90.5905 97.8862C90.4542 96.4795 90.2617 95.0807 90.013 93.6897C89.76 92.6352 89.3493 91.6469 88.781 90.7252C88.1065 89.7485 87.5417 88.709 87.087 87.6067C86.3959 85.6764 86.21 83.7001 86.5287 81.6777C88.0364 81.27 89.4482 80.654 90.7637 79.8297Z" fill="#C0C0DA"/>
<path fill-rule="evenodd" clip-rule="evenodd" d="M70.7052 87.5683C70.8111 88.4026 70.9778 89.2238 71.2057 90.0323C68.4295 90.4723 65.6829 90.3118 62.9667 89.551C62.3831 89.3951 61.8375 89.1579 61.3305 88.8388C60.7118 86.7266 60.3333 84.5706 60.1947 82.3708C61.6504 84.0844 63.4472 85.3614 65.5847 86.2015C66.6112 86.6058 67.6637 86.9265 68.7417 87.164C69.4009 87.2807 70.0554 87.4154 70.7052 87.5683Z" fill="#FEFEFE"/>
<path fill-rule="evenodd" clip-rule="evenodd" d="M69.8197 85.8358C70.0692 85.8739 70.326 85.8866 70.5897 85.8743C70.5778 85.9978 70.5905 86.1133 70.6282 86.2208C70.6359 86.6712 70.6617 87.1201 70.7052 87.5683C70.0554 87.4154 69.4009 87.2807 68.7417 87.164C67.6637 86.9265 66.6112 86.6058 65.5847 86.2015C63.4472 85.3614 61.6504 84.0844 60.1947 82.3708C60.1505 82.1983 60.1439 82.0185 60.1755 81.8318C62.9121 84.28 66.1268 85.6148 69.8197 85.8358Z" fill="#B9AEBE"/>
<path fill-rule="evenodd" clip-rule="evenodd" d="M62.8898 82.2937C64.7343 82.8628 66.6208 83.0872 68.5493 82.9675C69.0486 82.9067 69.5491 82.8616 70.0508 82.8327C71.2531 82.79 71.7282 83.3548 71.4753 84.5267C68.6116 84.6738 65.9293 84.0513 63.4288 82.6595C63.2397 82.5463 63.0603 82.4243 62.8898 82.2937Z" fill="#B9AEBE"/>
<path fill-rule="evenodd" clip-rule="evenodd" d="M71.7063 84.5268C71.774 84.4898 71.851 84.4771 71.9373 84.4883C71.9496 84.7778 71.9369 85.06 71.8988 85.3353C71.8988 85.0658 71.8988 84.7963 71.8988 84.5268C71.8345 84.5268 71.7705 84.5268 71.7063 84.5268Z" fill="#AB9FB0"/>
<path fill-rule="evenodd" clip-rule="evenodd" d="M69.8197 85.8358C70.0892 85.8358 70.3587 85.8358 70.6282 85.8358C70.6282 85.964 70.6282 86.0925 70.6282 86.2208C70.5905 86.1133 70.5778 85.9978 70.5897 85.8743C70.326 85.8866 70.0692 85.8739 69.8197 85.8358Z" fill="#675270"/>
<path fill-rule="evenodd" clip-rule="evenodd" d="M80.2917 104.662C81.6839 105.142 83.1084 105.277 84.5652 105.066C85.9859 104.75 86.9549 103.909 87.472 102.545C87.9301 101.144 88.0972 99.7061 87.9725 98.2327C87.8566 96.4598 87.5744 94.7146 87.1255 92.9967C86.8183 92.0231 86.4079 91.0991 85.8935 90.2247C85.5458 89.6661 85.1928 89.1144 84.8347 88.5692C85.1404 88.309 85.4419 88.0395 85.7395 87.7607C85.9462 88.2647 86.1645 88.7652 86.394 89.2622C86.8922 90.132 87.4054 90.992 87.934 91.8417C88.5635 93.0757 88.9354 94.3847 89.0505 95.7687C89.2834 97.365 89.3858 98.9692 89.3585 100.581C89.3246 101.38 89.1964 102.162 88.9735 102.93C88.6024 104.135 87.8389 104.988 86.6827 105.49C85.9016 105.785 85.0931 105.952 84.2572 105.99C83.627 106.024 82.9983 106.011 82.3707 105.952C81.5222 105.766 80.8292 105.336 80.2917 104.662Z" fill="#B9AEBE"/>
<path fill-rule="evenodd" clip-rule="evenodd" d="M84.8347 88.5692C85.1928 89.1144 85.5458 89.6661 85.8935 90.2247C86.4079 91.0991 86.8183 92.0231 87.1255 92.9967C87.5744 94.7146 87.8566 96.4598 87.9725 98.2327C88.0972 99.7061 87.9301 101.144 87.472 102.545C86.9549 103.909 85.9859 104.75 84.5652 105.066C83.1084 105.277 81.6839 105.142 80.2917 104.662C79.9006 104.215 79.5864 103.714 79.3485 103.161C78.5465 101.135 78.1296 99.0308 78.0972 96.8467C77.9733 96.8233 77.8578 96.7782 77.7507 96.712C75.6117 95.4203 74.0524 93.6301 73.073 91.3412C76.759 92.1698 80.2047 91.5857 83.4102 89.5895C83.9 89.268 84.3747 88.9277 84.8347 88.5692Z" fill="#FEFEFE"/>
<path fill-rule="evenodd" clip-rule="evenodd" d="M76.1723 97.2317C76.2462 98.6316 76.0213 99.9791 75.4985 101.274C74.7793 102.703 73.6309 103.582 72.0528 103.911C70.8666 104.121 69.6731 104.179 68.4723 104.085C67.7277 103.109 67.2079 102.018 66.913 100.812C66.5122 99.325 66.3005 97.8104 66.2778 96.2692C66.1026 96.2073 65.9359 96.1241 65.7773 96.019C64.4964 94.9649 63.4761 93.7009 62.7165 92.2267C62.3827 91.5719 62.0809 90.9047 61.8118 90.2247C64.2938 91.0148 66.8479 91.3547 69.4733 91.245C70.1474 91.208 70.8146 91.1245 71.4753 90.9947C72.4428 93.5277 74.0086 95.6067 76.1723 97.2317Z" fill="#FEFEFE"/>
<path fill-rule="evenodd" clip-rule="evenodd" d="M76.1723 97.2318C76.3782 97.3796 76.59 97.5205 76.8075 97.6553C76.8941 98.91 77.0805 100.148 77.3658 101.371C77.2248 102.46 76.7759 103.397 76.0183 104.181C75.1766 104.852 74.2141 105.237 73.1308 105.336C72.3103 105.394 71.4891 105.407 70.6668 105.375C69.7701 105.221 69.0386 104.792 68.4723 104.085C69.6731 104.179 70.8666 104.121 72.0528 103.912C73.6309 103.582 74.7793 102.703 75.4985 101.274C76.0213 99.9791 76.2462 98.6316 76.1723 97.2318Z" fill="#B9AEBE"/>
<path fill-rule="evenodd" clip-rule="evenodd" d="M98.6563 104.778C98.682 104.829 98.7075 104.881 98.7333 104.932C99.062 106.039 99.402 107.142 99.7535 108.243C99.7793 108.272 99.8113 108.285 99.8498 108.281C99.7543 108.315 99.6515 108.341 99.5418 108.358C97.0831 105.164 93.8426 103.868 89.8205 104.47C89.7885 104.457 89.7562 104.444 89.7243 104.431C90.1859 103.508 90.4681 102.533 90.5713 101.505C90.917 101.483 91.2635 101.47 91.6108 101.467C94.4725 101.505 96.821 102.609 98.6563 104.778Z" fill="#9186A8"/>
<path fill-rule="evenodd" clip-rule="evenodd" d="M98.7333 104.932C98.9338 105.132 99.0878 105.363 99.1953 105.625C99.397 105.6 99.5768 105.536 99.7343 105.432C100.046 106.33 100.328 107.241 100.581 108.166C100.335 108.192 100.092 108.23 99.8498 108.281C99.8113 108.285 99.7793 108.272 99.7535 108.243C99.402 107.142 99.062 106.039 98.7333 104.932Z" fill="#ADA1B7"/>
<path fill-rule="evenodd" clip-rule="evenodd" d="M79.5218 105.779C80.3021 106.618 81.2646 107.112 82.4093 107.261C83.1665 107.274 83.9235 107.287 84.6808 107.299C84.4032 107.616 84.1398 107.943 83.8915 108.281C83.8545 108.335 83.8033 108.361 83.7375 108.358C82.3761 108.025 80.9963 107.922 79.5988 108.05C79.5757 107.293 79.5502 106.536 79.5218 105.779Z" fill="#9085A7"/>
<path fill-rule="evenodd" clip-rule="evenodd" d="M123.951 124.413C124.274 125.185 124.454 125.993 124.49 126.838C124.522 127.172 124.477 127.492 124.355 127.801C122.94 130.663 120.649 132.363 117.483 132.902C115.862 133.116 114.296 132.917 112.786 132.305C111.983 134.614 110.418 136.161 108.089 136.945C105.581 137.605 103.335 137.111 101.351 135.462C99.5714 136.923 97.5821 137.289 95.3838 136.56C94.5803 136.249 93.8873 135.781 93.3048 135.154C93.2732 135.12 93.2347 135.107 93.1893 135.116C93.046 135.535 92.7638 135.824 92.3423 135.982C91.4452 136.286 90.5597 136.26 89.6858 135.905C89.0813 135.59 88.5038 135.237 87.9533 134.846C87.9209 134.672 87.857 134.512 87.7608 134.365C87.544 134.258 87.3707 134.303 87.241 134.5C87.2314 134.692 87.2379 134.885 87.2603 135.077C87.1983 135.209 87.1532 135.349 87.1255 135.501C87.1213 135.862 87.0955 136.222 87.0485 136.579C86.9226 136.76 86.7494 136.87 86.5288 136.906C84.8194 137.018 83.3051 136.537 81.9857 135.462C80.3942 136.795 78.5589 137.366 76.4802 137.176C75.5894 137.016 74.9156 136.548 74.459 135.77C74.201 135.292 73.9958 134.792 73.843 134.269C73.6644 133.669 73.5038 133.066 73.3617 132.459C73.4237 132.206 73.443 131.949 73.4195 131.689C73.2697 131.467 73.0899 131.442 72.8805 131.612C72.8004 131.833 72.7173 132.051 72.6302 132.267C69.8998 133.893 67.0635 134.092 64.1217 132.864C61.605 131.804 59.834 130.013 58.8087 127.493C58.7883 126.421 58.9808 125.394 59.3862 124.413C59.3812 124.441 59.3878 124.467 59.4055 124.49C60.8304 122.13 62.9028 120.7 65.6232 120.197C67.6626 120.018 69.6777 120.165 71.6677 120.64C71.7043 118.408 72.2753 116.329 73.381 114.403C75.3383 111.412 78.1165 110.046 81.7162 110.303C82.512 110.358 83.2886 110.505 84.0455 110.745C86.5492 107.241 89.9179 105.964 94.1518 106.915C96.3054 107.599 98.0056 108.876 99.253 110.745C101.383 110.112 103.507 110.131 105.625 110.803C107.89 111.709 109.527 113.268 110.534 115.481C111.248 117.124 111.627 118.844 111.669 120.64C113.631 120.15 115.62 120.003 117.637 120.197C120.378 120.697 122.476 122.128 123.932 124.49C123.949 124.467 123.956 124.441 123.951 124.413Z" fill="#C0C0DA"/>
<path fill-rule="evenodd" clip-rule="evenodd" d="M123.951 124.413C123.956 124.441 123.949 124.467 123.932 124.49C122.476 122.128 120.378 120.697 117.637 120.197C115.62 120.003 113.631 120.15 111.669 120.64C111.627 118.844 111.248 117.124 110.534 115.481C109.527 113.268 107.89 111.709 105.625 110.803C103.507 110.131 101.383 110.112 99.253 110.745C98.0056 108.876 96.3054 107.599 94.1518 106.914C89.9179 105.964 86.5492 107.241 84.0455 110.745C83.2886 110.505 82.512 110.358 81.7163 110.302C78.1165 110.046 75.3383 111.412 73.381 114.403C72.2753 116.329 71.7043 118.408 71.6678 120.64C69.6777 120.165 67.6626 120.018 65.6233 120.197C62.9028 120.7 60.8304 122.13 59.4055 124.49C59.3878 124.467 59.3812 124.441 59.3863 124.413C60.2879 122.157 61.8664 120.572 64.1218 119.658C65.532 119.129 66.9823 118.988 68.4723 119.234C69.2654 119.399 70.0354 119.636 70.7823 119.947C70.7291 116.515 71.9996 113.698 74.5938 111.496C77.5086 109.299 80.7168 108.747 84.2188 109.84C84.283 109.866 84.347 109.866 84.4113 109.84C86.2211 106.895 88.8645 105.483 92.3423 105.605C95.2398 105.943 97.4343 107.355 98.9258 109.84C99.4617 109.713 100.001 109.585 100.543 109.455C104.469 108.87 107.723 110.07 110.303 113.055C111.864 115.077 112.614 117.374 112.555 119.947C114.693 118.989 116.875 118.88 119.1 119.619C121.414 120.515 123.031 122.113 123.951 124.413Z" fill="#EBEAF3"/>
<path fill-rule="evenodd" clip-rule="evenodd" d="M95.8072 118.869C94.8948 115.973 92.9313 114.298 89.9167 113.845C87.5155 113.671 85.5262 114.486 83.9492 116.289C85.0484 114.365 86.7039 113.268 88.9157 112.998C91.121 112.865 92.9498 113.629 94.402 115.288C95.2332 116.335 95.7018 117.529 95.8072 118.869Z" fill="#978EAD"/>
<path fill-rule="evenodd" clip-rule="evenodd" d="M95.8072 118.869C95.9443 119.516 96.0021 120.171 95.9805 120.832C95.803 121.103 95.5978 121.129 95.3645 120.909C95.3576 120.786 95.3383 120.671 95.3067 120.563C95.038 118.247 93.8576 116.585 91.7647 115.577C89.2014 114.625 86.975 115.132 85.085 117.098C84.9406 117.286 84.8059 117.479 84.6807 117.675C84.3801 118.084 84.1491 118.533 83.9877 119.023C84.1983 119.201 84.4166 119.374 84.6422 119.543C85.0349 119.898 85.3044 120.328 85.4507 120.832C85.4061 121.124 85.2394 121.22 84.9502 121.121C84.1491 120.516 83.2636 120.08 82.2937 119.812C80.0815 119.535 78.4965 120.401 77.539 122.411C77.3681 122.901 77.2399 123.402 77.154 123.912C76.9873 124.015 76.8202 124.015 76.6535 123.912C76.498 123.167 76.5623 122.435 76.846 121.718C77.6364 119.825 79.0544 118.741 81.1002 118.465C81.2415 118.458 81.3825 118.452 81.5237 118.445C81.9357 118.469 82.3465 118.508 82.7557 118.561C82.8728 118.147 83.0333 117.749 83.237 117.367C83.4653 117 83.7028 116.641 83.9492 116.289C85.5262 114.486 87.5155 113.671 89.9167 113.845C92.9313 114.298 94.8948 115.973 95.8072 118.869Z" fill="#371A46"/>
<path fill-rule="evenodd" clip-rule="evenodd" d="M95.3068 120.563C95.3168 120.62 95.3041 120.671 95.2683 120.717C94.4952 118.181 92.8139 116.622 90.2248 116.039C88.0961 115.707 86.2546 116.278 84.7 117.752C84.6823 117.73 84.6757 117.704 84.6808 117.675C84.8059 117.479 84.9406 117.286 85.085 117.098C86.975 115.132 89.2014 114.625 91.7648 115.577C93.8576 116.585 95.038 118.247 95.3068 120.563Z" fill="#EBEAF2"/>
<path fill-rule="evenodd" clip-rule="evenodd" d="M101.775 130.765C103.402 131.588 105.07 131.672 106.78 131.016C108.138 130.428 109.145 129.472 109.802 128.147C109.91 127.894 110.006 127.637 110.091 127.377C110.248 126.903 110.37 126.415 110.456 125.914C110.57 125.769 110.718 125.724 110.899 125.78C110.985 125.827 111.043 125.897 111.072 125.991C111.192 128.899 109.941 130.971 107.319 132.209C104.909 133.118 102.715 132.759 100.735 131.131C100.535 130.944 100.349 130.745 100.177 130.534C99.9853 130.314 100.005 130.115 100.235 129.938C100.338 129.912 100.44 129.912 100.543 129.938C100.921 130.262 101.332 130.537 101.775 130.765Z" fill="#371A46"/>
<path fill-rule="evenodd" clip-rule="evenodd" d="M58.8087 127.493C59.834 130.013 61.605 131.804 64.1217 132.864C67.0635 134.092 69.8998 133.893 72.6302 132.267C71.8653 134.204 70.4408 135.288 68.3567 135.52C65.4812 135.905 63.0364 135.064 61.0225 132.998C59.6265 131.437 58.8884 129.602 58.8087 127.493Z" fill="#978EAD"/>
<path fill-rule="evenodd" clip-rule="evenodd" d="M110.091 127.377C110.006 127.637 109.91 127.894 109.802 128.147C109.145 129.472 108.138 130.428 106.78 131.016C105.07 131.672 103.402 131.588 101.775 130.765C105.105 130.986 107.877 129.857 110.091 127.377Z" fill="#EBEAF3"/>
<path fill-rule="evenodd" clip-rule="evenodd" d="M124.49 126.838C124.591 130.058 123.308 132.567 120.64 134.365C118.317 135.735 115.878 135.979 113.325 135.096C113.036 134.974 112.747 134.853 112.458 134.731C112.402 134.767 112.363 134.819 112.343 134.885C111.79 136.939 110.552 138.421 108.628 139.331C106.511 140.172 104.484 140.005 102.545 138.831C102.13 138.538 101.732 138.224 101.351 137.888C101.128 138.067 100.909 138.253 100.697 138.446C99.0886 139.63 97.343 139.874 95.4607 139.177C94.683 138.827 94.0158 138.326 93.4587 137.676C93.1477 137.728 92.8397 137.805 92.5347 137.907C91.68 138.103 90.8588 138.013 90.0707 137.637C88.992 136.989 88.2863 136.058 87.9532 134.846C88.5038 135.237 89.0813 135.59 89.6857 135.905C90.5597 136.26 91.4452 136.286 92.3422 135.982C92.7638 135.824 93.046 135.535 93.1892 135.116C93.2347 135.107 93.2732 135.12 93.3047 135.154C93.8873 135.781 94.5803 136.249 95.3837 136.559C97.5821 137.289 99.5714 136.923 101.351 135.462C103.335 137.111 105.581 137.605 108.089 136.944C110.418 136.161 111.983 134.614 112.786 132.305C114.296 132.917 115.862 133.116 117.483 132.902C120.649 132.363 122.94 130.663 124.355 127.801C124.477 127.492 124.522 127.172 124.49 126.838Z" fill="#978EAD"/>
<path fill-rule="evenodd" clip-rule="evenodd" d="M73.3618 132.459C73.5038 133.066 73.6644 133.669 73.843 134.269C73.9959 134.792 74.2011 135.292 74.459 135.77C74.9156 136.548 75.5894 137.016 76.4803 137.175C78.5589 137.366 80.3942 136.795 81.9858 135.462C83.3052 136.537 84.8194 137.018 86.5288 136.906C86.7494 136.87 86.9226 136.76 87.0485 136.579C87.0955 136.222 87.1213 135.862 87.1255 135.501C87.1532 135.349 87.1983 135.209 87.2603 135.077C87.4909 136.399 88.0942 137.515 89.0698 138.427C88.3229 139.044 87.4632 139.409 86.4903 139.524C85.3075 139.667 84.2037 139.436 83.1793 138.831C82.7635 138.531 82.3592 138.216 81.9665 137.888C79.9884 139.738 77.6976 140.27 75.0943 139.485C73.3564 138.813 72.1051 137.626 71.3405 135.924C71.3147 135.873 71.3147 135.821 71.3405 135.77C72.3777 134.889 73.0514 133.786 73.3618 132.459Z" fill="#978EAD"/>
</svg>