<svg xmlns="http://www.w3.org/2000/svg" xmlns:xlink="http://www.w3.org/1999/xlink" version="1.1" style="shape-rendering:geometricPrecision; text-rendering:geometricPrecision; image-rendering:optimizeQuality; fill-rule:evenodd; clip-rule:evenodd" viewBox="-0.5 -0.5 8333 8333">
<g><path style="opacity:0.05" fill="#d8cfca" d="M -0.5,-0.5 C 2777.17,-0.5 5554.83,-0.5 8332.5,-0.5C 8332.5,2777.17 8332.5,5554.83 8332.5,8332.5C 5554.83,8332.5 2777.17,8332.5 -0.5,8332.5C -0.5,5554.83 -0.5,2777.17 -0.5,-0.5 Z"/></g>
<g><path style="opacity:1" fill="#371a45" d="M 4984.5,7239.5 C 4982.36,7266.2 4978.86,7292.86 4974,7319.5C 4965.06,7390.42 4926.89,7437.25 4859.5,7460C 4821.67,7471.8 4783.01,7475.63 4743.5,7471.5C 4742.39,7470.71 4741.06,7470.21 4739.5,7470C 4740.83,7469.67 4742.17,7469.33 4743.5,7469C 4570.17,7468.67 4396.83,7468.33 4223.5,7468C 4223.04,7467.59 4222.71,7467.09 4222.5,7466.5C 4393.5,7465.83 4564.5,7465.17 4735.5,7464.5C 4561.06,7463.34 4386.72,7463.18 4212.5,7464C 4213.5,7464.33 4214.5,7464.67 4215.5,7465C 4212.17,7465.41 4209.17,7466.58 4206.5,7468.5C 4205.09,7467.19 4203.42,7466.36 4201.5,7466C 4204.06,7465.24 4204.06,7464.74 4201.5,7464.5C 4199.03,7465.99 4196.36,7466.66 4193.5,7466.5C 4165.35,7457.18 4143.51,7439.85 4128,7414.5C 4112.98,7387.42 4103.98,7358.42 4101,7327.5C 4098.26,7291.87 4097.76,7256.2 4099.5,7220.5C 4100.13,7172.49 4101.13,7124.49 4102.5,7076.5C 3989.68,7047.73 3882.02,7005.9 3779.5,6951C 3717.13,6915.65 3660.13,6872.98 3608.5,6823C 3524.53,6740.75 3452.36,6649.58 3392,6549.5C 3326.11,6440.57 3270.11,6326.57 3224,6207.5C 3210.43,6172.36 3197.43,6137.03 3185,6101.5C 3068.48,6033.91 2996.15,5933.91 2968,5801.5C 2966.51,5792.87 2965.34,5784.2 2964.5,5775.5C 2964.19,5772.75 2964.52,5770.09 2965.5,5767.5C 2966.33,5771.46 2966.83,5775.46 2967,5779.5C 2967.36,5771.49 2967.19,5763.49 2966.5,5755.5C 2965.5,5755.5 2964.5,5755.5 2963.5,5755.5C 2962.53,5748.86 2962.53,5742.19 2963.5,5735.5C 2964.5,5735.5 2965.5,5735.5 2966.5,5735.5C 2966.78,5745.66 2967.11,5745.82 2967.5,5736C 2966.18,5620.94 2966.18,5505.94 2967.5,5391C 2966.55,5390.52 2965.55,5390.35 2964.5,5390.5C 2964.81,5388.08 2964.47,5385.74 2963.5,5383.5C 2962.72,5384.73 2962.22,5386.06 2962,5387.5C 2961.62,5386.94 2961.12,5386.61 2960.5,5386.5C 2923.81,5356.66 2894.31,5320.99 2872,5279.5C 2825.12,5188.64 2799.45,5091.98 2795,4989.5C 2790.68,4771.94 2845.68,4570.94 2960,4386.5C 2960.33,4337.17 2960.67,4287.83 2961,4238.5C 2970.64,4094.01 3034.14,3980.18 3151.5,3897C 3159.93,3892.13 3167.93,3886.8 3175.5,3881C 3044.6,3775.13 2933.26,3652.13 2841.5,3512C 2749.05,3496.93 2657.72,3476.93 2567.5,3452C 2535.28,3442.72 2504.28,3430.39 2474.5,3415C 2458.12,3404.29 2443.96,3391.13 2432,3375.5C 2405.12,3338.41 2383.45,3298.41 2367,3255.5C 2338.69,3177.55 2318.35,3097.55 2306,3015.5C 2279.68,2849.17 2274.35,2682.17 2290,2514.5C 2293.51,2480.96 2299.84,2447.96 2309,2415.5C 2313.34,2399.78 2320.34,2385.44 2330,2372.5C 2343.93,2357.64 2359.43,2344.81 2376.5,2334C 2433.48,2299.17 2492.81,2268.51 2554.5,2242C 2582.63,2229.68 2610.96,2217.85 2639.5,2206.5C 2730.77,1889.6 2901.77,1625.1 3152.5,1413C 3435.11,1180.74 3760.44,1057.41 4128.5,1043C 4468.34,1035.43 4779.67,1124.43 5062.5,1310C 5358.06,1510.5 5565.56,1779.33 5685,2116.5C 5695.01,2146.37 5704.51,2176.37 5713.5,2206.5C 5788.69,2236.26 5862.02,2270.09 5933.5,2308C 5960.05,2322.43 5985.05,2339.1 6008.5,2358C 6027.42,2374 6039.59,2394.17 6045,2418.5C 6055.83,2459.5 6062.83,2501.16 6066,2543.5C 6079.99,2726.33 6069.32,2907.66 6034,3087.5C 6019.74,3159.26 5998.08,3228.6 5969,3295.5C 5951.43,3334.17 5928.26,3369 5899.5,3400C 5883.74,3412.55 5866.4,3422.55 5847.5,3430C 5797.27,3448.96 5745.94,3464.3 5693.5,3476C 5633.18,3489.63 5572.51,3501.63 5511.5,3512C 5407.78,3669.07 5280.45,3804.4 5129.5,3918C 5227.49,3998.8 5281.66,4102.97 5292,4230.5C 5292.33,4265.5 5292.67,4300.5 5293,4335.5C 5371.33,4455.86 5430,4585.52 5469,4724.5C 5490.52,4803.76 5502.85,4884.43 5506,4966.5C 5508.3,5033.17 5501.3,5098.84 5485,5163.5C 5455.26,5277.15 5393.26,5368.49 5299,5437.5C 5298.87,5451.77 5296.87,5465.77 5293,5479.5C 5292.67,5567.5 5292.33,5655.5 5292,5743.5C 5281.72,5880.75 5221.89,5990.42 5112.5,6072.5C 5078.3,6395.21 5040.8,6717.54 5000,7039.5C 4996.48,7062.8 4993.15,7086.13 4990,7109.5C 4988.35,7152.84 4986.52,7196.17 4984.5,7239.5 Z"/></g>
<g><path style="opacity:1" fill="#fefefe" d="M 4125.5,1117.5 C 4473.68,1109.53 4788.68,1206.36 5070.5,1408C 5203.81,1505.47 5318.48,1621.31 5414.5,1755.5C 5166.69,1497.19 4865.69,1332.36 4511.5,1261C 4222.14,1205.85 3936.8,1221.52 3655.5,1308C 3376.86,1396.32 3137.69,1546.15 2938,1757.5C 3005.5,1661.62 3083.67,1574.45 3172.5,1496C 3445.31,1259.94 3762.98,1133.78 4125.5,1117.5 Z"/></g>
<g><path style="opacity:1" fill="#fefefe" d="M 4107.5,1303.5 C 4398.74,1292.99 4674.08,1353.49 4933.5,1485C 5182.16,1614.31 5382.66,1796.81 5535,2032.5C 5573.89,2094.77 5608.56,2159.44 5639,2226.5C 5640.31,2229.09 5640.98,2231.76 5641,2234.5C 5569.14,2110.91 5480.97,1999.74 5376.5,1901C 5158.53,1699.98 4904.53,1563.64 4614.5,1492C 4352.53,1430.14 4089.19,1423.8 3824.5,1473C 3528.84,1530.85 3266.18,1655.52 3036.5,1847C 2906.18,1957.92 2798.01,2086.76 2712,2233.5C 2741.42,2164.65 2776.09,2098.65 2816,2035.5C 2977.1,1784.9 3191.6,1594.74 3459.5,1465C 3664.59,1367.81 3880.59,1313.98 4107.5,1303.5 Z"/></g>
<g><path style="opacity:1" fill="#9b8ca1" d="M 4028.5,1688.5 C 4056.21,1688.03 4083.88,1688.86 4111.5,1691C 4120.74,1692.04 4129.74,1694.04 4138.5,1697C 4143.25,1698.03 4144.92,1700.7 4143.5,1705C 3919.9,1772.94 3717.57,1879.28 3536.5,2024C 3455.58,2090.57 3384.08,2165.74 3322,2249.5C 3289.07,2294.81 3259.73,2342.47 3234,2392.5C 3153.79,2558.61 3085.46,2729.61 3029,2905.5C 3008.84,2969.49 2991.5,3034.15 2977,3099.5C 2920.91,2919.55 2893.91,2735.22 2896,2546.5C 2897.95,2444.49 2915.95,2345.49 2950,2249.5C 2986.53,2150.2 3045.69,2067.37 3127.5,2001C 3242.06,1914.37 3367.39,1846.37 3503.5,1797C 3673.21,1734.99 3848.21,1698.82 4028.5,1688.5 Z"/></g>
<g><path style="opacity:1" fill="#fefefe" d="M 2624.5,3011.5 C 2622.65,3013.45 2620.31,3014.95 2617.5,3016C 2567.88,3034.71 2516.54,3043.37 2463.5,3042C 2435.98,3039.7 2409.31,3033.86 2383.5,3024.5C 2355.59,2857.07 2348.76,2688.73 2363,2519.5C 2365.95,2492.78 2370.95,2466.44 2378,2440.5C 2381.08,2427.83 2387.58,2417.33 2397.5,2409C 2417.44,2394.42 2438.44,2381.42 2460.5,2370C 2511.56,2343.64 2563.56,2319.14 2616.5,2296.5C 2616.83,2297 2617.17,2297.5 2617.5,2298C 2566.52,2536.34 2568.85,2774.18 2624.5,3011.5 Z"/></g>
<g><path style="opacity:1" fill="#fefefe" d="M 5969.5,3023.5 C 5922.37,3041.76 5873.7,3046.92 5823.5,3039C 5790.65,3033.37 5758.65,3024.87 5727.5,3013.5C 5775.93,2809.9 5784.76,2604.56 5754,2397.5C 5748.53,2363.67 5742.53,2330 5736,2296.5C 5800.69,2323.43 5863.52,2353.93 5924.5,2388C 5940.04,2396.2 5953.87,2406.7 5966,2419.5C 5970.43,2427.02 5973.76,2435.02 5976,2443.5C 5986.01,2483.21 5992.01,2523.54 5994,2564.5C 6002.85,2718.58 5994.68,2871.58 5969.5,3023.5 Z"/></g>
<g><path style="opacity:1" fill="#9b8ca1" d="M 5289.5,2340.5 C 5351.52,2336.43 5400.69,2359.43 5437,2409.5C 5468.12,2454.53 5485.12,2504.53 5488,2559.5C 5491.72,2635.27 5474.72,2705.94 5437,2771.5C 5415.21,2807.62 5386.38,2836.79 5350.5,2859C 5308.27,2883.43 5263.94,2888.09 5217.5,2873C 5180.67,2857.51 5151.84,2832.67 5131,2798.5C 5104.57,2753.47 5090.57,2704.81 5089,2652.5C 5086.34,2572.19 5107.34,2498.85 5152,2432.5C 5177.94,2395.14 5211.77,2367.64 5253.5,2350C 5265.4,2345.99 5277.4,2342.83 5289.5,2340.5 Z"/></g>
<g><path style="opacity:1" fill="#2a1a3b" d="M 4959.5,3219.5 C 4960.17,3220.17 4960.83,3220.83 4961.5,3221.5C 4975.91,3252.39 4999.91,3271.22 5033.5,3278C 5065.11,3281.43 5093.11,3273.1 5117.5,3253C 5159.94,3213.11 5174.77,3164.61 5162,3107.5C 5160.43,3102.7 5158.59,3098.03 5156.5,3093.5C 5156.17,3092.17 5155.83,3090.83 5155.5,3089.5C 5157.58,3088.96 5159.58,3088.12 5161.5,3087C 5170.76,3079.36 5180.43,3072.19 5190.5,3065.5C 5191.43,3064.31 5191.76,3062.98 5191.5,3061.5C 5194.17,3060.5 5196.83,3059.5 5199.5,3058.5C 5199.5,3057.5 5199.5,3056.5 5199.5,3055.5C 5202.59,3053.09 5206.26,3051.59 5210.5,3051C 5211.34,3049.99 5211.67,3048.82 5211.5,3047.5C 5212.83,3047.5 5214.17,3047.5 5215.5,3047.5C 5215.5,3046.5 5215.5,3045.5 5215.5,3044.5C 5218.83,3044.5 5220.5,3042.83 5220.5,3039.5C 5224.17,3038.33 5227.5,3036.5 5230.5,3034C 5231.38,3032.64 5231.71,3031.14 5231.5,3029.5C 5234.17,3029.33 5236.5,3028.33 5238.5,3026.5C 5239.39,3025.68 5239.72,3024.68 5239.5,3023.5C 5241.17,3023.5 5242.83,3023.5 5244.5,3023.5C 5245.22,3020.68 5246.22,3018.01 5247.5,3015.5C 5250.81,3013.41 5254.48,3011.91 5258.5,3011C 5259.34,3009.99 5259.67,3008.82 5259.5,3007.5C 5260.83,3007.5 5262.17,3007.5 5263.5,3007.5C 5263.5,3005.83 5263.5,3004.17 5263.5,3002.5C 5266.01,3001.22 5268.68,3000.22 5271.5,2999.5C 5271.5,2998.17 5271.5,2996.83 5271.5,2995.5C 5272.55,2995.65 5273.55,2995.48 5274.5,2995C 5278.19,2991.31 5282.19,2987.97 5286.5,2985C 5287.34,2983.99 5287.67,2982.82 5287.5,2981.5C 5292.85,2980.56 5296.68,2977.56 5299,2972.5C 5301.67,2971.78 5303.17,2970.11 5303.5,2967.5C 5304.55,2967.65 5305.55,2967.48 5306.5,2967C 5307.33,2964.83 5308.83,2963.33 5311,2962.5C 5311.48,2961.55 5311.65,2960.55 5311.5,2959.5C 5312.98,2959.76 5314.31,2959.43 5315.5,2958.5C 5316.17,2957.17 5317.17,2956.17 5318.5,2955.5C 5319.43,2954.31 5319.76,2952.98 5319.5,2951.5C 5322.28,2951.98 5324.28,2950.98 5325.5,2948.5C 5327.12,2947.85 5328.78,2947.35 5330.5,2947C 5332.87,2940.79 5337.2,2936.96 5343.5,2935.5C 5343.5,2934.5 5343.5,2933.5 5343.5,2932.5C 5346.83,2932.5 5348.5,2930.83 5348.5,2927.5C 5349.5,2927.5 5350.5,2927.5 5351.5,2927.5C 5351.26,2924.59 5352.26,2922.26 5354.5,2920.5C 5356.05,2919.55 5357.71,2919.21 5359.5,2919.5C 5359.5,2917.83 5359.5,2916.17 5359.5,2914.5C 5362.01,2913.22 5364.68,2912.22 5367.5,2911.5C 5367.5,2910.5 5367.5,2909.5 5367.5,2908.5C 5370.83,2908.5 5372.5,2906.83 5372.5,2903.5C 5373.5,2903.5 5374.5,2903.5 5375.5,2903.5C 5377.17,2899.83 5379.83,2897.17 5383.5,2895.5C 5385.17,2891.83 5387.83,2889.17 5391.5,2887.5C 5393.17,2883.83 5395.83,2881.17 5399.5,2879.5C 5399.26,2876.59 5400.26,2874.26 5402.5,2872.5C 5404.05,2871.55 5405.71,2871.21 5407.5,2871.5C 5407.26,2868.59 5408.26,2866.26 5410.5,2864.5C 5412.05,2863.55 5413.71,2863.21 5415.5,2863.5C 5415.26,2860.59 5416.26,2858.26 5418.5,2856.5C 5420.05,2855.55 5421.71,2855.21 5423.5,2855.5C 5423.5,2854.5 5423.5,2853.5 5423.5,2852.5C 5426.83,2852.5 5428.5,2850.83 5428.5,2847.5C 5429.5,2847.5 5430.5,2847.5 5431.5,2847.5C 5431.5,2846.17 5431.5,2844.83 5431.5,2843.5C 5434.5,2843.83 5435.83,2842.5 5435.5,2839.5C 5436.83,2839.5 5438.17,2839.5 5439.5,2839.5C 5439.5,2838.17 5439.5,2836.83 5439.5,2835.5C 5440.82,2835.67 5441.99,2835.34 5443,2834.5C 5443.91,2830.48 5445.41,2826.81 5447.5,2823.5C 5448.98,2823.76 5450.31,2823.43 5451.5,2822.5C 5452.17,2821.17 5453.17,2820.17 5454.5,2819.5C 5455.43,2818.31 5455.76,2816.98 5455.5,2815.5C 5456.55,2815.65 5457.55,2815.48 5458.5,2815C 5459.33,2812.83 5460.83,2811.33 5463,2810.5C 5463.48,2809.55 5463.65,2808.55 5463.5,2807.5C 5464.68,2807.72 5465.68,2807.39 5466.5,2806.5C 5469.52,2803.63 5472.02,2800.3 5474,2796.5C 5477.09,2796.21 5478.59,2794.54 5478.5,2791.5C 5479.68,2791.72 5480.68,2791.39 5481.5,2790.5C 5484.83,2784.15 5489.5,2779.15 5495.5,2775.5C 5495.5,2774.5 5495.5,2773.5 5495.5,2772.5C 5497.39,2772.7 5498.89,2772.04 5500,2770.5C 5500.25,2768.57 5500.75,2766.73 5501.5,2765C 5503.35,2764.16 5505.18,2763.33 5507,2762.5C 5507.33,2760.83 5507.67,2759.17 5508,2757.5C 5512.91,2752.02 5517.57,2746.35 5522,2740.5C 5523.33,2739.83 5524.67,2739.17 5526,2738.5C 5527.7,2734.67 5529.54,2731 5531.5,2727.5C 5532.83,2727.5 5534.17,2727.5 5535.5,2727.5C 5535.24,2726.02 5535.57,2724.69 5536.5,2723.5C 5538.74,2721.35 5540.74,2719.02 5542.5,2716.5C 5543.45,2714.95 5543.79,2713.29 5543.5,2711.5C 5544.55,2711.65 5545.55,2711.48 5546.5,2711C 5547.33,2708.83 5548.83,2707.33 5551,2706.5C 5551.48,2705.55 5551.65,2704.55 5551.5,2703.5C 5552.68,2703.72 5553.68,2703.39 5554.5,2702.5C 5556.6,2697.97 5559.43,2693.97 5563,2690.5C 5563.48,2689.55 5563.65,2688.55 5563.5,2687.5C 5564.83,2687.5 5566.17,2687.5 5567.5,2687.5C 5570.3,2684.01 5572.47,2680.01 5574,2675.5C 5581.24,2667.33 5588.24,2658.99 5595,2650.5C 5595.72,2648.05 5596.72,2645.72 5598,2643.5C 5603.45,2637.39 5608.11,2630.72 5612,2623.5C 5614.04,2621.13 5616.37,2619.13 5619,2617.5C 5622.71,2608.68 5628.05,2601.01 5635,2594.5C 5636.54,2590.77 5638.04,2587.1 5639.5,2583.5C 5640.5,2583.5 5641.5,2583.5 5642.5,2583.5C 5644.39,2580.04 5646.06,2576.37 5647.5,2572.5C 5649.59,2572.44 5651.09,2571.44 5652,2569.5C 5655.35,2560.81 5660.35,2553.14 5667,2546.5C 5668.54,2542.77 5670.04,2539.1 5671.5,2535.5C 5677.12,2533.18 5680.12,2528.84 5680.5,2522.5C 5681.67,2522.08 5682.67,2521.41 5683.5,2520.5C 5687,2513.17 5691.5,2506.5 5697,2500.5C 5698.18,2496.64 5699.84,2492.98 5702,2489.5C 5703.11,2487.96 5704.61,2487.3 5706.5,2487.5C 5716.06,2591.51 5715.73,2695.51 5705.5,2799.5C 5701.17,2831.51 5696.83,2863.51 5692.5,2895.5C 5691.5,2895.5 5690.5,2895.5 5689.5,2895.5C 5689.16,2906.22 5688.16,2916.88 5686.5,2927.5C 5680.62,2958.39 5673.79,2989.06 5666,3019.5C 5659.96,3030.19 5653.96,3040.86 5648,3051.5C 5646.39,3057.39 5643.72,3062.72 5640,3067.5C 5639.51,3068.79 5639.34,3070.13 5639.5,3071.5C 5638.32,3071.28 5637.32,3071.61 5636.5,3072.5C 5632.31,3077.88 5629.48,3083.88 5628,3090.5C 5624.86,3093.1 5623.03,3096.44 5622.5,3100.5C 5617.44,3104.24 5614.44,3109.24 5613.5,3115.5C 5612.18,3115.33 5611.01,3115.66 5610,3116.5C 5608.07,3119.91 5607.23,3123.57 5607.5,3127.5C 5606.5,3127.5 5605.5,3127.5 5604.5,3127.5C 5602.45,3131.88 5599.62,3135.88 5596,3139.5C 5593.37,3145.48 5590.7,3151.48 5588,3157.5C 5586.89,3159.04 5585.39,3159.7 5583.5,3159.5C 5583.89,3162.86 5582.56,3165.19 5579.5,3166.5C 5576.75,3170.1 5574.58,3174.1 5573,3178.5C 5569.73,3181 5567.56,3184.33 5566.5,3188.5C 5563.91,3190.44 5561.74,3192.78 5560,3195.5C 5558.67,3198.83 5557.33,3202.17 5556,3205.5C 5554.89,3207.04 5553.39,3207.7 5551.5,3207.5C 5548.21,3214.05 5544.38,3220.39 5540,3226.5C 5537.48,3229.73 5534.48,3232.4 5531,3234.5C 5530.16,3237.68 5528.49,3240.34 5526,3242.5C 5525.51,3244.13 5525.34,3245.8 5525.5,3247.5C 5524.5,3247.5 5523.5,3247.5 5522.5,3247.5C 5521.22,3250.01 5520.22,3252.68 5519.5,3255.5C 5515.83,3256.85 5513.49,3259.51 5512.5,3263.5C 5509.24,3265.4 5507.24,3268.06 5506.5,3271.5C 5505.5,3271.5 5504.5,3271.5 5503.5,3271.5C 5503.5,3272.83 5503.5,3274.17 5503.5,3275.5C 5502.18,3275.33 5501.01,3275.66 5500,3276.5C 5499.33,3278.5 5498.67,3280.5 5498,3282.5C 5495.97,3285.89 5493.47,3288.89 5490.5,3291.5C 5489.57,3292.69 5489.24,3294.02 5489.5,3295.5C 5488.5,3295.5 5487.5,3295.5 5486.5,3295.5C 5486.83,3298.5 5485.5,3299.83 5482.5,3299.5C 5482.5,3300.83 5482.5,3302.17 5482.5,3303.5C 5481.5,3303.5 5480.5,3303.5 5479.5,3303.5C 5479.76,3304.98 5479.43,3306.31 5478.5,3307.5C 5476.26,3309.65 5474.26,3311.98 5472.5,3314.5C 5471.55,3316.05 5471.21,3317.71 5471.5,3319.5C 5470.45,3319.35 5469.45,3319.52 5468.5,3320C 5467.67,3322.17 5466.17,3323.67 5464,3324.5C 5463.52,3325.45 5463.35,3326.45 5463.5,3327.5C 5462.5,3327.5 5461.5,3327.5 5460.5,3327.5C 5460.59,3330.54 5459.09,3332.21 5456,3332.5C 5454.59,3334.65 5453.75,3336.99 5453.5,3339.5C 5452.17,3339.5 5450.83,3339.5 5449.5,3339.5C 5449.12,3341.93 5448.45,3344.26 5447.5,3346.5C 5443.83,3346.18 5442.16,3347.85 5442.5,3351.5C 5441.5,3351.5 5440.5,3351.5 5439.5,3351.5C 5439.76,3352.98 5439.43,3354.31 5438.5,3355.5C 5436.28,3356.92 5434.78,3358.92 5434,3361.5C 5432.09,3362.69 5430.09,3363.69 5428,3364.5C 5427.19,3366.44 5426.69,3368.44 5426.5,3370.5C 5425.5,3370.5 5424.5,3370.5 5423.5,3370.5C 5423.5,3372.17 5423.5,3373.83 5423.5,3375.5C 5419.83,3377.17 5417.17,3379.83 5415.5,3383.5C 5414.5,3383.5 5413.5,3383.5 5412.5,3383.5C 5412.59,3386.54 5411.09,3388.21 5408,3388.5C 5404.81,3394.59 5400.48,3399.59 5395,3403.5C 5394.51,3404.79 5394.34,3406.13 5394.5,3407.5C 5393.5,3407.5 5392.5,3407.5 5391.5,3407.5C 5391.65,3408.55 5391.48,3409.55 5391,3410.5C 5388.83,3411.33 5387.33,3412.83 5386.5,3415C 5385.55,3415.48 5384.55,3415.65 5383.5,3415.5C 5383.5,3416.5 5383.5,3417.5 5383.5,3418.5C 5380.17,3418.5 5378.5,3420.17 5378.5,3423.5C 5377.5,3423.5 5376.5,3423.5 5375.5,3423.5C 5375.74,3426.41 5374.74,3428.74 5372.5,3430.5C 5370.95,3431.45 5369.29,3431.79 5367.5,3431.5C 5367.47,3436.95 5364.8,3439.61 5359.5,3439.5C 5358.21,3445.63 5354.54,3449.8 5348.5,3452C 5347.83,3456.67 5345.17,3459.33 5340.5,3460C 5339.83,3464.67 5337.17,3467.33 5332.5,3468C 5331.83,3472.67 5329.17,3475.33 5324.5,3476C 5323.67,3480.83 5320.83,3483.67 5316,3484.5C 5315.52,3485.45 5315.35,3486.45 5315.5,3487.5C 5314.17,3487.5 5312.83,3487.5 5311.5,3487.5C 5311.5,3488.83 5311.5,3490.17 5311.5,3491.5C 5310.17,3491.5 5308.83,3491.5 5307.5,3491.5C 5307.5,3492.83 5307.5,3494.17 5307.5,3495.5C 5306.17,3495.5 5304.83,3495.5 5303.5,3495.5C 5302.78,3498.32 5301.78,3500.99 5300.5,3503.5C 5298.83,3503.5 5297.17,3503.5 5295.5,3503.5C 5295.74,3506.41 5294.74,3508.74 5292.5,3510.5C 5290.95,3511.45 5289.29,3511.79 5287.5,3511.5C 5287.5,3512.5 5287.5,3513.5 5287.5,3514.5C 5284.17,3514.5 5282.5,3516.17 5282.5,3519.5C 5281.5,3519.5 5280.5,3519.5 5279.5,3519.5C 5278.17,3522.17 5276.83,3524.83 5275.5,3527.5C 5271.43,3528.47 5267.76,3530.3 5264.5,3533C 5263.62,3534.36 5263.29,3535.86 5263.5,3537.5C 5260.05,3536.76 5258.38,3538.09 5258.5,3541.5C 5254.55,3542.19 5251.88,3544.35 5250.5,3548C 5249.55,3548.48 5248.55,3548.65 5247.5,3548.5C 5247.5,3549.5 5247.5,3550.5 5247.5,3551.5C 5243.83,3553.17 5241.17,3555.83 5239.5,3559.5C 5237.83,3559.5 5236.17,3559.5 5234.5,3559.5C 5234.5,3560.5 5234.5,3561.5 5234.5,3562.5C 5233.5,3562.5 5232.5,3562.5 5231.5,3562.5C 5231.72,3563.68 5231.39,3564.68 5230.5,3565.5C 5225.89,3569.62 5220.89,3572.96 5215.5,3575.5C 5215.5,3576.5 5215.5,3577.5 5215.5,3578.5C 5214.17,3578.5 5212.83,3578.5 5211.5,3578.5C 5211.71,3580.14 5211.38,3581.64 5210.5,3583C 5207.89,3584.27 5205.56,3585.94 5203.5,3588C 5202.21,3588.49 5200.87,3588.66 5199.5,3588.5C 5199.5,3589.5 5199.5,3590.5 5199.5,3591.5C 5196.46,3591.41 5194.79,3592.91 5194.5,3596C 5193.55,3596.48 5192.55,3596.65 5191.5,3596.5C 5191.5,3597.5 5191.5,3598.5 5191.5,3599.5C 5190.45,3599.35 5189.45,3599.52 5188.5,3600C 5187.67,3602.17 5186.17,3603.67 5184,3604.5C 5183.67,3605.83 5183.33,3607.17 5183,3608.5C 5181.51,3607.25 5180.01,3607.25 5178.5,3608.5C 5171.36,3613.91 5164.03,3619.07 5156.5,3624C 5156.21,3627.09 5154.54,3628.59 5151.5,3628.5C 5151.5,3629.5 5151.5,3630.5 5151.5,3631.5C 5145.89,3633.64 5140.55,3636.31 5135.5,3639.5C 5135.8,3641.6 5135.47,3643.6 5134.5,3645.5C 5129.29,3647.61 5124.29,3649.94 5119.5,3652.5C 5119.5,3653.5 5119.5,3654.5 5119.5,3655.5C 5116.07,3657.33 5112.41,3658.99 5108.5,3660.5C 5107.61,3661.32 5107.28,3662.32 5107.5,3663.5C 5100.94,3665.55 5095.6,3669.39 5091.5,3675C 5083.12,3679.52 5075.12,3684.52 5067.5,3690C 5065.25,3691.26 5063.92,3693.09 5063.5,3695.5C 5061.71,3695.21 5060.05,3695.55 5058.5,3696.5C 5054.52,3700.34 5049.86,3703.17 5044.5,3705C 5042.13,3706.79 5040.47,3708.96 5039.5,3711.5C 5035.9,3712.96 5032.23,3714.46 5028.5,3716C 5017.39,3724.95 5005.39,3732.45 4992.5,3738.5C 4991.61,3739.32 4991.28,3740.32 4991.5,3741.5C 4986.24,3742.46 4981.91,3744.96 4978.5,3749C 4963.5,3755.88 4949.17,3763.72 4935.5,3772.5C 4935.5,3773.5 4935.5,3774.5 4935.5,3775.5C 4932.75,3775.19 4930.09,3775.52 4927.5,3776.5C 4922.49,3780.61 4917.16,3784.28 4911.5,3787.5C 4909.58,3788.31 4907.58,3788.81 4905.5,3789C 4886.16,3799.54 4866.83,3809.38 4847.5,3818.5C 4844.83,3822.34 4841.16,3824.17 4836.5,3824C 4829.76,3827.08 4823.09,3830.24 4816.5,3833.5C 4815.61,3834.32 4815.28,3835.32 4815.5,3836.5C 4810.92,3835.79 4807.25,3837.29 4804.5,3841C 4800.12,3842.11 4795.79,3843.27 4791.5,3844.5C 4791.5,3845.5 4791.5,3846.5 4791.5,3847.5C 4788.83,3847.5 4786.17,3847.5 4783.5,3847.5C 4783.5,3848.5 4783.5,3849.5 4783.5,3850.5C 4779.28,3851.96 4774.94,3853.13 4770.5,3854C 4765.5,3857.89 4759.83,3860.22 4753.5,3861C 4750.06,3864.82 4745.73,3866.49 4740.5,3866C 4739.25,3867.96 4737.59,3869.46 4735.5,3870.5C 4730.27,3872.14 4724.93,3873.14 4719.5,3873.5C 4719.5,3874.5 4719.5,3875.5 4719.5,3876.5C 4717.47,3876.34 4715.47,3876.5 4713.5,3877C 4706.83,3881.5 4699.5,3884.17 4691.5,3885C 4684.61,3887.69 4677.94,3890.85 4671.5,3894.5C 4666.13,3895.53 4660.8,3896.53 4655.5,3897.5C 4655.5,3898.5 4655.5,3899.5 4655.5,3900.5C 4652.83,3900.5 4650.17,3900.5 4647.5,3900.5C 4647.5,3901.5 4647.5,3902.5 4647.5,3903.5C 4642.04,3903.69 4636.7,3904.36 4631.5,3905.5C 4631.5,3906.5 4631.5,3907.5 4631.5,3908.5C 4624.63,3907.32 4618.63,3908.99 4613.5,3913.5C 4604.44,3915.09 4595.78,3917.59 4587.5,3921C 4580.58,3921.33 4573.91,3922.5 4567.5,3924.5C 4567.5,3925.5 4567.5,3926.5 4567.5,3927.5C 4537.58,3935.19 4507.41,3942.19 4477,3948.5C 4464.61,3951.03 4452.11,3952.69 4439.5,3953.5C 4439.5,3954.5 4439.5,3955.5 4439.5,3956.5C 4391.63,3963.63 4343.63,3969.8 4295.5,3975C 4199.31,3981.9 4103.31,3980.06 4007.5,3969.5C 3986.11,3966.66 3964.78,3963.49 3943.5,3960C 3938.18,3959.5 3932.84,3959.33 3927.5,3959.5C 3927.5,3958.5 3927.5,3957.5 3927.5,3956.5C 3906.76,3953.49 3886.1,3949.99 3865.5,3946C 3839.42,3940.53 3813.42,3934.2 3787.5,3927C 3772.66,3921.78 3757.33,3917.45 3741.5,3914C 3710.31,3903.09 3678.97,3892.59 3647.5,3882.5C 3647.5,3881.5 3647.5,3880.5 3647.5,3879.5C 3644.83,3879.5 3642.17,3879.5 3639.5,3879.5C 3639.5,3878.5 3639.5,3877.5 3639.5,3876.5C 3632.08,3875.64 3625.42,3873.14 3619.5,3869C 3614.21,3869.02 3609.54,3867.35 3605.5,3864C 3603.53,3863.5 3601.53,3863.34 3599.5,3863.5C 3599.5,3862.5 3599.5,3861.5 3599.5,3860.5C 3592.56,3858.91 3585.9,3856.91 3579.5,3854.5C 3570.4,3849.28 3561.06,3844.62 3551.5,3840.5C 3548.91,3839.52 3546.25,3839.19 3543.5,3839.5C 3543.72,3838.32 3543.39,3837.32 3542.5,3836.5C 3537.72,3834.1 3532.72,3832.43 3527.5,3831.5C 3527.5,3830.5 3527.5,3829.5 3527.5,3828.5C 3523.28,3827.04 3518.94,3825.87 3514.5,3825C 3511.75,3821.29 3508.08,3819.79 3503.5,3820.5C 3503.72,3819.32 3503.39,3818.32 3502.5,3817.5C 3497.79,3814.75 3492.79,3813.09 3487.5,3812.5C 3487.72,3811.32 3487.39,3810.32 3486.5,3809.5C 3481.79,3806.75 3476.79,3805.09 3471.5,3804.5C 3470.27,3800.87 3467.6,3799.2 3463.5,3799.5C 3463.5,3798.5 3463.5,3797.5 3463.5,3796.5C 3458.43,3794.26 3453.1,3792.59 3447.5,3791.5C 3447.5,3790.5 3447.5,3789.5 3447.5,3788.5C 3446.13,3788.66 3444.79,3788.49 3443.5,3788C 3440.37,3784.38 3436.37,3782.88 3431.5,3783.5C 3431.5,3782.5 3431.5,3781.5 3431.5,3780.5C 3428.98,3780.24 3426.65,3779.41 3424.5,3778C 3420.91,3776.08 3417.58,3773.75 3414.5,3771C 3409.86,3768.42 3404.86,3766.92 3399.5,3766.5C 3399.58,3763.49 3398.24,3761.32 3395.5,3760C 3391.4,3757.78 3387.4,3755.28 3383.5,3752.5C 3377.65,3752.44 3372.65,3750.44 3368.5,3746.5C 3367.61,3745.68 3367.28,3744.68 3367.5,3743.5C 3365.71,3743.79 3364.05,3743.45 3362.5,3742.5C 3358.81,3737.99 3354.14,3734.82 3348.5,3733C 3345.01,3728.93 3340.68,3726.43 3335.5,3725.5C 3335.5,3724.5 3335.5,3723.5 3335.5,3722.5C 3330.54,3720.92 3326.21,3718.09 3322.5,3714C 3320.35,3712.59 3318.01,3711.75 3315.5,3711.5C 3315.5,3710.5 3315.5,3709.5 3315.5,3708.5C 3311,3709.38 3307.67,3707.88 3305.5,3704C 3301.53,3702.05 3297.53,3700.05 3293.5,3698C 3289.96,3694.63 3286.3,3691.46 3282.5,3688.5C 3280.49,3686.66 3278.16,3685.66 3275.5,3685.5C 3275.65,3684.45 3275.48,3683.45 3275,3682.5C 3272.1,3681.18 3269.6,3679.35 3267.5,3677C 3263.3,3675.23 3259.3,3673.4 3255.5,3671.5C 3253.44,3666.13 3249.44,3663.46 3243.5,3663.5C 3243.83,3660.5 3242.5,3659.17 3239.5,3659.5C 3239.5,3658.17 3239.5,3656.83 3239.5,3655.5C 3237.4,3655.8 3235.4,3655.47 3233.5,3654.5C 3231.98,3652.71 3230.15,3651.38 3228,3650.5C 3227.52,3649.55 3227.35,3648.55 3227.5,3647.5C 3224.99,3647.25 3222.65,3646.41 3220.5,3645C 3218.27,3642.4 3215.61,3640.56 3212.5,3639.5C 3212.84,3635.85 3211.17,3634.18 3207.5,3634.5C 3207.5,3633.5 3207.5,3632.5 3207.5,3631.5C 3201.99,3631.08 3197.65,3628.58 3194.5,3624C 3193.55,3623.52 3192.55,3623.35 3191.5,3623.5C 3191.72,3622.32 3191.39,3621.32 3190.5,3620.5C 3185.97,3618.4 3181.97,3615.57 3178.5,3612C 3177.55,3611.52 3176.55,3611.35 3175.5,3611.5C 3175.5,3610.17 3175.5,3608.83 3175.5,3607.5C 3174.02,3607.76 3172.69,3607.43 3171.5,3606.5C 3168.68,3603.93 3165.68,3601.59 3162.5,3599.5C 3161.56,3599.61 3160.72,3599.94 3160,3600.5C 3159.25,3597.02 3157.42,3594.18 3154.5,3592C 3153.55,3591.52 3152.55,3591.35 3151.5,3591.5C 3151.5,3590.5 3151.5,3589.5 3151.5,3588.5C 3147.56,3587.56 3144.9,3585.23 3143.5,3581.5C 3138.77,3578.46 3133.77,3575.79 3128.5,3573.5C 3127.53,3571.6 3127.2,3569.6 3127.5,3567.5C 3126.5,3567.5 3125.5,3567.5 3124.5,3567.5C 3124.15,3563.33 3121.82,3561.5 3117.5,3562C 3116.28,3560.35 3115.45,3558.52 3115,3556.5C 3113.18,3555.67 3111.35,3554.84 3109.5,3554C 3108.41,3551.83 3107.08,3549.83 3105.5,3548C 3102.01,3546.63 3098.68,3545.13 3095.5,3543.5C 3092.6,3540.05 3089.93,3536.38 3087.5,3532.5C 3084.61,3532.78 3083.11,3531.45 3083,3528.5C 3080.2,3526.37 3077.36,3524.21 3074.5,3522C 3073.55,3521.52 3072.55,3521.35 3071.5,3521.5C 3071.66,3520.13 3071.49,3518.79 3071,3517.5C 3067.88,3514.54 3064.38,3512.21 3060.5,3510.5C 3058.34,3508.37 3056.68,3506.04 3055.5,3503.5C 3054.17,3503.5 3052.83,3503.5 3051.5,3503.5C 3050.17,3500.83 3048.83,3498.17 3047.5,3495.5C 3046.17,3495.5 3044.83,3495.5 3043.5,3495.5C 3042.17,3492.83 3040.83,3490.17 3039.5,3487.5C 3038.5,3487.5 3037.5,3487.5 3036.5,3487.5C 3036.5,3484.17 3034.83,3482.5 3031.5,3482.5C 3031.5,3481.5 3031.5,3480.5 3031.5,3479.5C 3028.59,3479.74 3026.26,3478.74 3024.5,3476.5C 3023.55,3474.95 3023.21,3473.29 3023.5,3471.5C 3020.59,3471.74 3018.26,3470.74 3016.5,3468.5C 3015.55,3466.95 3015.21,3465.29 3015.5,3463.5C 3012.59,3463.74 3010.26,3462.74 3008.5,3460.5C 3007.55,3458.95 3007.21,3457.29 3007.5,3455.5C 3006.5,3455.5 3005.5,3455.5 3004.5,3455.5C 3004.5,3452.17 3002.83,3450.5 2999.5,3450.5C 2999.5,3449.5 2999.5,3448.5 2999.5,3447.5C 2998.45,3447.65 2997.45,3447.48 2996.5,3447C 2995.67,3444.83 2994.17,3443.33 2992,3442.5C 2991.52,3441.55 2991.35,3440.55 2991.5,3439.5C 2990.17,3439.5 2988.83,3439.5 2987.5,3439.5C 2986.56,3436.58 2985.22,3433.91 2983.5,3431.5C 2982.5,3431.5 2981.5,3431.5 2980.5,3431.5C 2980.66,3430.13 2980.49,3428.79 2980,3427.5C 2971.73,3419.18 2963.39,3410.85 2955,3402.5C 2954.52,3401.55 2954.35,3400.55 2954.5,3399.5C 2953.5,3399.5 2952.5,3399.5 2951.5,3399.5C 2950.31,3397.09 2948.81,3394.76 2947,3392.5C 2945.99,3391.66 2944.82,3391.33 2943.5,3391.5C 2943.65,3390.45 2943.48,3389.45 2943,3388.5C 2940.86,3386.08 2938.36,3384.41 2935.5,3383.5C 2935.66,3382.13 2935.49,3380.79 2935,3379.5C 2932.74,3377.75 2931.41,3375.42 2931,3372.5C 2929.99,3371.66 2928.82,3371.33 2927.5,3371.5C 2927.5,3370.17 2927.5,3368.83 2927.5,3367.5C 2924.59,3367.74 2922.26,3366.74 2920.5,3364.5C 2919.55,3362.95 2919.21,3361.29 2919.5,3359.5C 2918.17,3359.5 2916.83,3359.5 2915.5,3359.5C 2915.65,3358.45 2915.48,3357.45 2915,3356.5C 2908.88,3350.23 2903.38,3343.56 2898.5,3336.5C 2897.68,3335.61 2896.68,3335.28 2895.5,3335.5C 2895.66,3333.8 2895.49,3332.13 2895,3330.5C 2892.85,3329.02 2891.52,3327.02 2891,3324.5C 2889.99,3323.66 2888.82,3323.33 2887.5,3323.5C 2887.5,3322.17 2887.5,3320.83 2887.5,3319.5C 2886.5,3319.5 2885.5,3319.5 2884.5,3319.5C 2884.5,3316.17 2882.83,3314.5 2879.5,3314.5C 2876.75,3308.22 2872.58,3302.89 2867,3298.5C 2866.52,3297.55 2866.35,3296.55 2866.5,3295.5C 2865.5,3295.5 2864.5,3295.5 2863.5,3295.5C 2861.09,3292.41 2859.59,3288.74 2859,3284.5C 2857.99,3283.66 2856.82,3283.33 2855.5,3283.5C 2855.5,3282.17 2855.5,3280.83 2855.5,3279.5C 2854.5,3279.5 2853.5,3279.5 2852.5,3279.5C 2852.66,3278.13 2852.49,3276.79 2852,3275.5C 2843.66,3269.82 2837.99,3262.15 2835,3252.5C 2833.99,3251.66 2832.82,3251.33 2831.5,3251.5C 2831.5,3250.17 2831.5,3248.83 2831.5,3247.5C 2830.5,3247.5 2829.5,3247.5 2828.5,3247.5C 2828.66,3246.13 2828.49,3244.79 2828,3243.5C 2823.14,3240.74 2819.97,3236.74 2818.5,3231.5C 2817.5,3231.5 2816.5,3231.5 2815.5,3231.5C 2815.66,3230.13 2815.49,3228.79 2815,3227.5C 2813.26,3224.78 2811.09,3222.44 2808.5,3220.5C 2803.74,3213.83 2799.74,3206.83 2796.5,3199.5C 2795.5,3199.5 2794.5,3199.5 2793.5,3199.5C 2793.66,3197.8 2793.49,3196.13 2793,3194.5C 2791.27,3192.77 2789.93,3190.77 2789,3188.5C 2787.99,3187.66 2786.82,3187.33 2785.5,3187.5C 2785.22,3184.16 2783.72,3181.49 2781,3179.5C 2780.51,3178.21 2780.34,3176.87 2780.5,3175.5C 2779.5,3175.5 2778.5,3175.5 2777.5,3175.5C 2777.66,3173.8 2777.49,3172.13 2777,3170.5C 2775.27,3168.77 2773.93,3166.77 2773,3164.5C 2771.99,3163.66 2770.82,3163.33 2769.5,3163.5C 2768.43,3159.14 2766.76,3155.14 2764.5,3151.5C 2763.5,3151.5 2762.5,3151.5 2761.5,3151.5C 2760.57,3146.32 2758.07,3141.99 2754,3138.5C 2750.87,3133.9 2748.53,3128.9 2747,3123.5C 2742.26,3118.72 2738.93,3113.05 2737,3106.5C 2734.67,3103.83 2732.33,3101.17 2730,3098.5C 2723.25,3086.99 2717.08,3075.32 2711.5,3063.5C 2709.61,3063.7 2708.11,3063.04 2707,3061.5C 2705.49,3053.09 2701.99,3045.76 2696.5,3039.5C 2695.43,3033.63 2693.43,3028.3 2690.5,3023.5C 2689.5,3023.5 2688.5,3023.5 2687.5,3023.5C 2684.77,3010.17 2681.77,2996.84 2678.5,2983.5C 2677.91,2983.29 2677.41,2982.96 2677,2982.5C 2673.83,2965.09 2670.49,2947.76 2667,2930.5C 2666.5,2926.85 2666.33,2923.18 2666.5,2919.5C 2665.5,2919.5 2664.5,2919.5 2663.5,2919.5C 2663.5,2914.17 2663.5,2908.83 2663.5,2903.5C 2662.5,2903.5 2661.5,2903.5 2660.5,2903.5C 2660.83,2898.13 2660.49,2892.79 2659.5,2887.5C 2656.09,2867.86 2653.25,2848.19 2651,2828.5C 2651.72,2827.55 2652.55,2827.38 2653.5,2828C 2662.67,2838.01 2671.67,2848.17 2680.5,2858.5C 2682.66,2860.57 2684.99,2862.24 2687.5,2863.5C 2687.28,2864.68 2687.61,2865.68 2688.5,2866.5C 2690.66,2868.57 2692.99,2870.24 2695.5,2871.5C 2695.28,2872.68 2695.61,2873.68 2696.5,2874.5C 2698.66,2876.57 2700.99,2878.24 2703.5,2879.5C 2703.28,2880.68 2703.61,2881.68 2704.5,2882.5C 2706.66,2884.57 2708.99,2886.24 2711.5,2887.5C 2711.28,2888.68 2711.61,2889.68 2712.5,2890.5C 2714.66,2892.57 2716.99,2894.24 2719.5,2895.5C 2719.28,2896.68 2719.61,2897.68 2720.5,2898.5C 2722.66,2900.57 2724.99,2902.24 2727.5,2903.5C 2727.28,2904.68 2727.61,2905.68 2728.5,2906.5C 2730.66,2908.57 2732.99,2910.24 2735.5,2911.5C 2735.28,2912.68 2735.61,2913.68 2736.5,2914.5C 2738.66,2916.57 2740.99,2918.24 2743.5,2919.5C 2743.5,2920.5 2743.5,2921.5 2743.5,2922.5C 2744.55,2922.35 2745.55,2922.52 2746.5,2923C 2749.41,2926.53 2752.75,2929.53 2756.5,2932C 2763.85,2938.76 2770.52,2946.09 2776.5,2954C 2780.94,2956.41 2784.94,2959.41 2788.5,2963C 2789.45,2963.48 2790.45,2963.65 2791.5,2963.5C 2791.5,2964.83 2791.5,2966.17 2791.5,2967.5C 2794.32,2968.22 2796.99,2969.22 2799.5,2970.5C 2799.5,2972.17 2799.5,2973.83 2799.5,2975.5C 2800.98,2975.24 2802.31,2975.57 2803.5,2976.5C 2804.92,2978.72 2806.92,2980.22 2809.5,2981C 2810.69,2982.91 2811.69,2984.91 2812.5,2987C 2816.52,2987.91 2820.19,2989.41 2823.5,2991.5C 2823.35,2992.55 2823.52,2993.55 2824,2994.5C 2826.17,2995.33 2827.67,2996.83 2828.5,2999C 2829.45,2999.48 2830.45,2999.65 2831.5,2999.5C 2831.5,3000.5 2831.5,3001.5 2831.5,3002.5C 2834.17,3003.5 2836.83,3004.5 2839.5,3005.5C 2839.5,3006.83 2839.5,3008.17 2839.5,3009.5C 2840.55,3009.35 2841.55,3009.52 2842.5,3010C 2846.19,3012.73 2849.19,3016.06 2851.5,3020C 2857.18,3022.54 2862.18,3026.04 2866.5,3030.5C 2868.01,3031.75 2869.51,3031.75 2871,3030.5C 2871.33,3031.83 2871.67,3033.17 2872,3034.5C 2874.17,3035.33 2875.67,3036.83 2876.5,3039C 2877.45,3039.48 2878.45,3039.65 2879.5,3039.5C 2879.5,3040.5 2879.5,3041.5 2879.5,3042.5C 2882.17,3043.5 2884.83,3044.5 2887.5,3045.5C 2889.19,3050.85 2892.86,3054.19 2898.5,3055.5C 2898.5,3058.83 2900.17,3060.5 2903.5,3060.5C 2903.5,3061.5 2903.5,3062.5 2903.5,3063.5C 2904.83,3063.5 2906.17,3063.5 2907.5,3063.5C 2907.5,3064.5 2907.5,3065.5 2907.5,3066.5C 2911.62,3065.89 2914.62,3067.39 2916.5,3071C 2917.45,3071.48 2918.45,3071.65 2919.5,3071.5C 2919.92,3073.91 2921.25,3075.74 2923.5,3077C 2928.17,3078.73 2932.17,3081.23 2935.5,3084.5C 2935.5,3085.5 2935.5,3086.5 2935.5,3087.5C 2936.83,3087.5 2938.17,3087.5 2939.5,3087.5C 2939.33,3088.82 2939.66,3089.99 2940.5,3091C 2944.52,3092.05 2948.19,3093.55 2951.5,3095.5C 2951.5,3096.5 2951.5,3097.5 2951.5,3098.5C 2952.55,3098.35 2953.55,3098.52 2954.5,3099C 2959.1,3102.01 2963.43,3105.17 2967.5,3108.5C 2967.5,3109.5 2967.5,3110.5 2967.5,3111.5C 2968.83,3111.5 2970.17,3111.5 2971.5,3111.5C 2971.33,3112.82 2971.66,3113.99 2972.5,3115C 2981.5,3118.49 2989.5,3123.83 2996.5,3131C 3000.23,3132.54 3003.9,3134.04 3007.5,3135.5C 3007.33,3136.82 3007.66,3137.99 3008.5,3139C 3013.12,3140.47 3016.79,3143.13 3019.5,3147C 3027.12,3150.13 3033.79,3154.63 3039.5,3160.5C 3045.48,3163.77 3051.48,3166.93 3057.5,3170C 3061.33,3172.76 3065,3175.76 3068.5,3179C 3076.32,3182.5 3083.65,3186.67 3090.5,3191.5C 3090.5,3192.5 3090.5,3193.5 3090.5,3194.5C 3092.79,3194.72 3094.95,3195.39 3097,3196.5C 3101.21,3198.7 3105.04,3201.53 3108.5,3205C 3111.29,3206.6 3114.29,3207.6 3117.5,3208C 3120.97,3212.06 3125.3,3214.56 3130.5,3215.5C 3130.5,3216.5 3130.5,3217.5 3130.5,3218.5C 3137.51,3221.68 3144.51,3225.01 3151.5,3228.5C 3151.5,3229.5 3151.5,3230.5 3151.5,3231.5C 3154.17,3231.5 3156.83,3231.5 3159.5,3231.5C 3159.28,3232.68 3159.61,3233.68 3160.5,3234.5C 3168.45,3240.36 3177.11,3244.7 3186.5,3247.5C 3186.5,3248.5 3186.5,3249.5 3186.5,3250.5C 3196.78,3255.55 3207.11,3260.72 3217.5,3266C 3219.47,3266.5 3221.47,3266.66 3223.5,3266.5C 3223.5,3267.5 3223.5,3268.5 3223.5,3269.5C 3226.76,3269.01 3229.42,3270.01 3231.5,3272.5C 3233.42,3273.31 3235.42,3273.81 3237.5,3274C 3240.78,3276.26 3244.12,3278.43 3247.5,3280.5C 3260.51,3286.56 3273.51,3292.73 3286.5,3299C 3287.05,3299.92 3287.71,3300.76 3288.5,3301.5C 3294.93,3304.85 3301.59,3307.69 3308.5,3310C 3313.19,3313.68 3318.52,3316.01 3324.5,3317C 3331,3319.89 3337.33,3323.05 3343.5,3326.5C 3348.89,3326.75 3353.22,3328.91 3356.5,3333C 3365.33,3334.39 3373.33,3337.72 3380.5,3343C 3384.76,3342.98 3388.76,3343.82 3392.5,3345.5C 3393.09,3345.29 3393.59,3344.96 3394,3344.5C 3394.66,3347.42 3396.5,3348.75 3399.5,3348.5C 3399.5,3349.5 3399.5,3350.5 3399.5,3351.5C 3404.27,3351.69 3408.94,3352.52 3413.5,3354C 3414.97,3354.71 3415.64,3355.88 3415.5,3357.5C 3420.42,3357.29 3424.75,3358.79 3428.5,3362C 3439.02,3363.38 3448.69,3367.05 3457.5,3373C 3467.93,3375.09 3477.93,3378.26 3487.5,3382.5C 3553.03,3404.22 3619.7,3422.89 3687.5,3438.5C 3701.09,3439.3 3714.42,3441.3 3727.5,3444.5C 3727.5,3445.5 3727.5,3446.5 3727.5,3447.5C 3732.83,3447.5 3738.17,3447.5 3743.5,3447.5C 3743.5,3448.5 3743.5,3449.5 3743.5,3450.5C 3764.89,3453.18 3786.22,3456.51 3807.5,3460.5C 3962.08,3481.08 4116.75,3481.75 4271.5,3462.5C 4305.19,3457.97 4338.85,3452.81 4372.5,3447C 4429.79,3434.19 4486.79,3420.02 4543.5,3404.5C 4573.59,3393.97 4603.92,3384.14 4634.5,3375C 4638.55,3372.31 4642.89,3370.14 4647.5,3368.5C 4662.52,3364.48 4677.19,3359.64 4691.5,3354C 4703.68,3346.66 4716.68,3341.16 4730.5,3337.5C 4742.25,3331.1 4754.58,3326.1 4767.5,3322.5C 4767.5,3321.5 4767.5,3320.5 4767.5,3319.5C 4770.17,3319.5 4772.83,3319.5 4775.5,3319.5C 4775.5,3318.5 4775.5,3317.5 4775.5,3316.5C 4781.72,3313.1 4788.38,3310.6 4795.5,3309C 4801.01,3305.52 4806.67,3302.19 4812.5,3299C 4817.44,3298.94 4821.61,3297.11 4825,3293.5C 4839.99,3286.19 4854.99,3278.86 4870,3271.5C 4874.03,3267.45 4878.87,3265.28 4884.5,3265C 4888.05,3262.4 4891.72,3260.23 4895.5,3258.5C 4895.5,3257.5 4895.5,3256.5 4895.5,3255.5C 4900.37,3256.12 4904.37,3254.62 4907.5,3251C 4908.79,3250.51 4910.13,3250.34 4911.5,3250.5C 4911.5,3249.5 4911.5,3248.5 4911.5,3247.5C 4912.87,3247.66 4914.21,3247.49 4915.5,3247C 4920.28,3243.28 4925.61,3240.61 4931.5,3239C 4939.82,3232.01 4949.15,3226.84 4959.5,3223.5C 4959.5,3222.17 4959.5,3220.83 4959.5,3219.5 Z"/></g>
<g><path style="opacity:1" fill="#d7cfda" d="M 5727.5,3013.5 C 5758.65,3024.87 5790.65,3033.37 5823.5,3039C 5873.7,3046.92 5922.37,3041.76 5969.5,3023.5C 5959.28,3091.06 5942.78,3157.06 5920,3221.5C 5906.78,3258.28 5889.11,3292.61 5867,3324.5C 5858.81,3335.02 5849.65,3344.52 5839.5,3353C 5811.89,3366.43 5783.23,3377.09 5753.5,3385C 5691.83,3401.14 5629.66,3414.97 5567,3426.5C 5566.17,3426.17 5565.33,3425.83 5564.5,3425.5C 5637.67,3295.67 5692,3158.34 5727.5,3013.5 Z"/></g>
<g><path style="opacity:1" fill="#d7cfda" d="M 2624.5,3011.5 C 2660.31,3157.09 2714.97,3295.09 2788.5,3425.5C 2787.83,3425.83 2787.17,3426.17 2786.5,3426.5C 2723.67,3414.9 2661.34,3401.07 2599.5,3385C 2573.86,3378.12 2548.86,3369.45 2524.5,3359C 2510.89,3351.73 2499.39,3341.9 2490,3329.5C 2462.44,3291.38 2441.44,3249.71 2427,3204.5C 2407.67,3145.67 2393.17,3085.67 2383.5,3024.5C 2409.31,3033.86 2435.98,3039.7 2463.5,3042C 2516.54,3043.37 2567.88,3034.71 2617.5,3016C 2620.31,3014.95 2622.65,3013.45 2624.5,3011.5 Z"/></g>
<g><path style="opacity:1" fill="#9b8ca1" d="M 5155.5,3089.5 C 5155.83,3090.83 5156.17,3092.17 5156.5,3093.5C 5155.15,3092.97 5153.82,3092.81 5152.5,3093C 5149.61,3097.56 5145.78,3101.06 5141,3103.5C 5140.45,3107.43 5138.45,3108.76 5135,3107.5C 5133.42,3110.54 5130.92,3111.87 5127.5,3111.5C 5127.08,3113.91 5125.75,3115.74 5123.5,3117C 5118.27,3119.88 5113.27,3123.21 5108.5,3127C 5109.45,3127.48 5110.45,3127.65 5111.5,3127.5C 5111.5,3130.17 5111.5,3132.83 5111.5,3135.5C 5108.83,3135.5 5106.17,3135.5 5103.5,3135.5C 5103.76,3134.02 5103.43,3132.69 5102.5,3131.5C 5100.51,3132.29 5100.18,3133.46 5101.5,3135C 5099.61,3134.58 5097.61,3134.74 5095.5,3135.5C 5095.66,3136.87 5095.49,3138.21 5095,3139.5C 5094.59,3139.04 5094.09,3138.71 5093.5,3138.5C 5090.59,3140.36 5087.59,3142.02 5084.5,3143.5C 5083.57,3144.69 5083.24,3146.02 5083.5,3147.5C 5080.65,3147.03 5078.32,3147.86 5076.5,3150C 5077.5,3150.33 5078.5,3150.67 5079.5,3151C 5076.85,3151.5 5074.19,3151.66 5071.5,3151.5C 5071.66,3152.87 5071.49,3154.21 5071,3155.5C 5070.59,3155.04 5070.09,3154.71 5069.5,3154.5C 5066.59,3156.36 5063.59,3158.02 5060.5,3159.5C 5059.57,3160.69 5059.24,3162.02 5059.5,3163.5C 5056.65,3163.03 5054.32,3163.86 5052.5,3166C 5053.5,3166.33 5054.5,3166.67 5055.5,3167C 5052.85,3167.5 5050.19,3167.66 5047.5,3167.5C 5047.66,3168.87 5047.49,3170.21 5047,3171.5C 5046.59,3171.04 5046.09,3170.71 5045.5,3170.5C 5042.94,3172.23 5040.27,3173.73 5037.5,3175C 5039.32,3177.46 5039.99,3180.29 5039.5,3183.5C 5036.83,3183.5 5034.17,3183.5 5031.5,3183.5C 5031.76,3182.02 5031.43,3180.69 5030.5,3179.5C 5025.23,3181.47 5020.56,3184.47 5016.5,3188.5C 5015.51,3192.11 5015.18,3195.77 5015.5,3199.5C 5012.83,3199.5 5010.17,3199.5 5007.5,3199.5C 5007.6,3194.85 5006.27,3194.35 5003.5,3198C 5002.21,3198.49 5000.87,3198.66 4999.5,3198.5C 4999.5,3199.83 4999.5,3201.17 4999.5,3202.5C 4994.61,3201.88 4990.61,3203.38 4987.5,3207C 4986.21,3207.49 4984.87,3207.66 4983.5,3207.5C 4983.66,3208.87 4983.49,3210.21 4983,3211.5C 4982.59,3211.04 4982.09,3210.71 4981.5,3210.5C 4978.94,3212.23 4976.27,3213.73 4973.5,3215C 4975.32,3217.46 4975.99,3220.29 4975.5,3223.5C 4972.43,3223.82 4969.43,3223.48 4966.5,3222.5C 4967.33,3221.55 4967.49,3220.55 4967,3219.5C 4966.67,3219.83 4966.33,3220.17 4966,3220.5C 4963.91,3217.86 4962.41,3218.2 4961.5,3221.5C 4960.83,3220.83 4960.17,3220.17 4959.5,3219.5C 4938.45,3161.42 4948.78,3109.75 4990.5,3064.5C 5027.18,3029.46 5068.51,3022.63 5114.5,3044C 5132.62,3055.28 5146.28,3070.44 5155.5,3089.5 Z"/></g>
<g><path style="opacity:1" fill="#948b9c" d="M 5156.5,3093.5 C 5158.59,3098.03 5160.43,3102.7 5162,3107.5C 5174.77,3164.61 5159.94,3213.11 5117.5,3253C 5093.11,3273.1 5065.11,3281.43 5033.5,3278C 4999.91,3271.22 4975.91,3252.39 4961.5,3221.5C 4962.41,3218.2 4963.91,3217.86 4966,3220.5C 4966.33,3220.17 4966.67,3219.83 4967,3219.5C 4967.49,3220.55 4967.33,3221.55 4966.5,3222.5C 4969.43,3223.48 4972.43,3223.82 4975.5,3223.5C 4975.99,3220.29 4975.32,3217.46 4973.5,3215C 4976.27,3213.73 4978.94,3212.23 4981.5,3210.5C 4982.09,3210.71 4982.59,3211.04 4983,3211.5C 4983.49,3210.21 4983.66,3208.87 4983.5,3207.5C 4984.87,3207.66 4986.21,3207.49 4987.5,3207C 4990.61,3203.38 4994.61,3201.88 4999.5,3202.5C 4999.5,3201.17 4999.5,3199.83 4999.5,3198.5C 5000.87,3198.66 5002.21,3198.49 5003.5,3198C 5006.27,3194.35 5007.6,3194.85 5007.5,3199.5C 5010.17,3199.5 5012.83,3199.5 5015.5,3199.5C 5015.18,3195.77 5015.51,3192.11 5016.5,3188.5C 5020.56,3184.47 5025.23,3181.47 5030.5,3179.5C 5031.43,3180.69 5031.76,3182.02 5031.5,3183.5C 5034.17,3183.5 5036.83,3183.5 5039.5,3183.5C 5039.99,3180.29 5039.32,3177.46 5037.5,3175C 5040.27,3173.73 5042.94,3172.23 5045.5,3170.5C 5046.09,3170.71 5046.59,3171.04 5047,3171.5C 5047.49,3170.21 5047.66,3168.87 5047.5,3167.5C 5050.19,3167.66 5052.85,3167.5 5055.5,3167C 5054.5,3166.67 5053.5,3166.33 5052.5,3166C 5054.32,3163.86 5056.65,3163.03 5059.5,3163.5C 5059.24,3162.02 5059.57,3160.69 5060.5,3159.5C 5063.59,3158.02 5066.59,3156.36 5069.5,3154.5C 5070.09,3154.71 5070.59,3155.04 5071,3155.5C 5071.49,3154.21 5071.66,3152.87 5071.5,3151.5C 5074.19,3151.66 5076.85,3151.5 5079.5,3151C 5078.5,3150.67 5077.5,3150.33 5076.5,3150C 5078.32,3147.86 5080.65,3147.03 5083.5,3147.5C 5083.24,3146.02 5083.57,3144.69 5084.5,3143.5C 5087.59,3142.02 5090.59,3140.36 5093.5,3138.5C 5094.09,3138.71 5094.59,3139.04 5095,3139.5C 5095.49,3138.21 5095.66,3136.87 5095.5,3135.5C 5097.61,3134.74 5099.61,3134.58 5101.5,3135C 5100.18,3133.46 5100.51,3132.29 5102.5,3131.5C 5103.43,3132.69 5103.76,3134.02 5103.5,3135.5C 5106.17,3135.5 5108.83,3135.5 5111.5,3135.5C 5111.5,3132.83 5111.5,3130.17 5111.5,3127.5C 5110.45,3127.65 5109.45,3127.48 5108.5,3127C 5113.27,3123.21 5118.27,3119.88 5123.5,3117C 5125.75,3115.74 5127.08,3113.91 5127.5,3111.5C 5130.92,3111.87 5133.42,3110.54 5135,3107.5C 5138.45,3108.76 5140.45,3107.43 5141,3103.5C 5145.78,3101.06 5149.61,3097.56 5152.5,3093C 5153.82,3092.81 5155.15,3092.97 5156.5,3093.5 Z"/></g>
<g><path style="opacity:1" fill="#d7cfda" d="M 2795.5,3274.5 C 2940.26,3471.11 3115.26,3634.95 3320.5,3766C 3469.82,3859.92 3630.15,3929.25 3801.5,3974C 4086.17,4044.78 4368.17,4035.44 4647.5,3946C 4841.84,3881.86 5019.17,3787.52 5179.5,3663C 5322.39,3551.45 5447.55,3422.95 5555,3277.5C 5517.92,3358.68 5473.92,3435.68 5423,3508.5C 5236.95,3770.15 4993.12,3956.98 4691.5,4069C 4418.75,4165.09 4140.75,4183.76 3857.5,4125C 3547.54,4055.5 3284.04,3906.33 3067,3677.5C 2955.44,3557.69 2864.94,3423.36 2795.5,3274.5 Z"/></g>
<g><path style="opacity:1" fill="#fefefe" d="M 3041.5,4273.5 C 3040.51,4262.01 3040.17,4250.35 3040.5,4238.5C 3048.18,4126.61 3096.52,4037.11 3185.5,3970C 3204.51,3956.24 3224.68,3944.41 3246,3934.5C 3282.38,3959.95 3319.55,3984.28 3357.5,4007.5C 3236.25,4076.71 3130.92,4165.38 3041.5,4273.5 Z"/></g>
<g><path style="opacity:1" fill="#fdfdfd" d="M 5060.5,3965.5 C 5144.05,4024.85 5193.88,4105.52 5210,4207.5C 5210.67,4210.83 5210.67,4214.17 5210,4217.5C 5147.69,4136.51 5074.52,4067.34 4990.5,4010C 5014.41,3995.89 5037.74,3981.06 5060.5,3965.5 Z"/></g>
<g><path style="opacity:1" fill="#d7d0da" d="M 4994.5,4111.5 C 4903.61,4184.98 4803.28,4243.15 4693.5,4286C 4523.77,4350.21 4347.94,4382.04 4166,4381.5C 3957.15,4382.37 3757.98,4340.2 3568.5,4255C 3486.34,4216.61 3410.34,4168.78 3340.5,4111.5C 3372.49,4090.16 3405.83,4070.83 3440.5,4053.5C 3732.35,4203.03 4041.35,4259.2 4367.5,4222C 4558.75,4198.58 4739.92,4142.75 4911,4054.5C 4940.88,4070.67 4968.71,4089.67 4994.5,4111.5 Z"/></g>
<g><path style="opacity:1" fill="#fefefe" d="M 3340.5,4111.5 C 3410.34,4168.78 3486.34,4216.61 3568.5,4255C 3757.98,4340.2 3957.15,4382.37 4166,4381.5C 4347.94,4382.04 4523.77,4350.21 4693.5,4286C 4803.28,4243.15 4903.61,4184.98 4994.5,4111.5C 5027.91,4137.72 5059.41,4166.39 5089,4197.5C 5156.63,4271.8 5214.97,4352.8 5264,4440.5C 5331.97,4557.07 5380.31,4681.4 5409,4813.5C 5423.14,4881.78 5429.14,4950.78 5427,5020.5C 5424.33,5087.18 5410,5151.18 5384,5212.5C 5366.81,5250.93 5344.14,5285.59 5316,5316.5C 5290.34,5166.87 5228.01,5035.21 5129,4921.5C 5070.32,4854.95 5003.49,4798.62 4928.5,4752.5C 4928.17,4751.5 4927.83,4750.5 4927.5,4749.5C 4939.31,4689.64 4947.81,4629.3 4953,4568.5C 4956.85,4521.87 4959.85,4475.2 4962,4428.5C 4956.69,4417.27 4947.86,4413.1 4935.5,4416C 4930.33,4418.5 4926.5,4422.33 4924,4427.5C 4898.24,4510.54 4875.91,4594.54 4857,4679.5C 4853.99,4694.09 4851.49,4708.75 4849.5,4723.5C 4798.5,4724.13 4747.5,4724.46 4696.5,4724.5C 4695.75,4716.28 4693.92,4708.28 4691,4700.5C 4675.95,4665.45 4652.78,4636.95 4621.5,4615C 4593.17,4596.84 4563.17,4581.84 4531.5,4570C 4458.87,4543.27 4383.87,4527.94 4306.5,4524C 4267.82,4523.22 4229.16,4523.39 4190.5,4524.5C 4178.3,4524.88 4166.3,4525.88 4154.5,4527.5C 4104.17,4531.5 4054.17,4538 4004.5,4547C 3949.29,4556.51 3894.46,4567.67 3840,4580.5C 3818.15,4569.96 3796.31,4559.46 3774.5,4549C 3687.59,4513.29 3599.59,4510.29 3510.5,4540C 3482.76,4550.45 3457.26,4564.61 3434,4582.5C 3418.45,4530.74 3401.78,4479.41 3384,4428.5C 3379.19,4417.1 3370.69,4412.94 3358.5,4416C 3352.31,4418.19 3348.14,4422.36 3346,4428.5C 3345.34,4440.57 3346.01,4452.57 3348,4464.5C 3358.49,4554.13 3371.99,4643.13 3388.5,4731.5C 3240.09,4797.75 3136.59,4906.75 3078,5058.5C 3060.72,5104.22 3048.55,5151.22 3041.5,5199.5C 3039.74,5198.93 3038.08,5198.09 3036.5,5197C 2988.17,5152.54 2951,5100.04 2925,5039.5C 2904.27,4989.66 2888.61,4938.32 2878,4885.5C 2877.5,4880.85 2877.33,4876.18 2877.5,4871.5C 2900.96,4639.98 2991.46,4439.64 3149,4270.5C 3206.89,4209.72 3270.72,4156.72 3340.5,4111.5 Z"/></g>
<g><path style="opacity:1" fill="#c2bdc6" d="M 3040.5,4238.5 C 3040.17,4250.35 3040.51,4262.01 3041.5,4273.5C 3041.22,4274.29 3040.72,4274.96 3040,4275.5C 3039.17,4262.99 3039.34,4250.66 3040.5,4238.5 Z"/></g>
<g><path style="opacity:1" fill="#564160" d="M 4190.5,4524.5 C 4178.73,4526.41 4166.73,4527.41 4154.5,4527.5C 4166.3,4525.88 4178.3,4524.88 4190.5,4524.5 Z"/></g>
<g><path style="opacity:1" fill="#fdfdfd" d="M 3598.5,4599.5 C 3638.31,4596.46 3677.31,4600.63 3715.5,4612C 3631.26,4636.58 3547.59,4663.08 3464.5,4691.5C 3461.8,4683.35 3462.3,4675.35 3466,4667.5C 3472.36,4655.48 3481.19,4645.64 3492.5,4638C 3524.65,4616.34 3559.99,4603.51 3598.5,4599.5 Z"/></g>
<g><path style="opacity:1" fill="#fefefe" d="M 4488.5,4783.5 C 4458.65,4794.29 4428.98,4805.79 4399.5,4818C 4325.67,4851.25 4253,4886.58 4181.5,4924C 4052.96,4993.94 3922.96,5061.27 3791.5,5126C 3710.85,5164.67 3628.19,5198.67 3543.5,5228C 3486.68,5247.03 3428.68,5261.37 3369.5,5271C 3325.7,5277.65 3281.7,5279.65 3237.5,5277C 3201.73,5274.78 3167.06,5267.45 3133.5,5255C 3121.52,5249.52 3109.52,5244.35 3097.5,5239.5C 3097.5,5235.83 3097.5,5232.17 3097.5,5228.5C 3108.81,5129.38 3142.31,5038.72 3198,4956.5C 3254.92,4878.92 3327.75,4821.42 3416.5,4784C 3421.79,4784.48 3427.12,4784.98 3432.5,4785.5C 3436.24,4785.47 3439.9,4784.97 3443.5,4784C 3617.59,4718.56 3795.92,4667.89 3978.5,4632C 4054.8,4616.78 4131.8,4607.12 4209.5,4603C 4300.09,4597.44 4388.76,4607.77 4475.5,4634C 4512.05,4645.45 4546.39,4661.45 4578.5,4682C 4591,4690.5 4601.5,4701 4610,4713.5C 4613.02,4718.53 4615.18,4723.86 4616.5,4729.5C 4596.93,4734.3 4577.93,4740.8 4559.5,4749C 4535.5,4760 4511.84,4771.5 4488.5,4783.5 Z"/></g>
<g><path style="opacity:1" fill="#fefefe" d="M 5258.5,5339.5 C 5258.5,5341.5 5258.5,5343.5 5258.5,5345.5C 5117.66,5409.43 4970.66,5429.26 4817.5,5405C 4725.73,5388.77 4641.73,5354.43 4565.5,5302C 4543.05,5284.89 4523.22,5265.05 4506,5242.5C 4476.86,5197.74 4469.52,5149.4 4484,5097.5C 4495.03,5060.44 4510.69,5025.44 4531,4992.5C 4566.66,4937.16 4604.32,4883.16 4644,4830.5C 4649.77,4821.96 4655.27,4813.29 4660.5,4804.5C 4699.34,4804.83 4738,4804.5 4776.5,4803.5C 4815.84,4802.96 4855.17,4802.46 4894.5,4802C 5028.25,4885.08 5129.75,4997.24 5199,5138.5C 5229.04,5202.47 5248.88,5269.47 5258.5,5339.5 Z"/></g>
<g><path style="opacity:1" fill="#a99eaf" d="M 4776.5,4803.5 C 4738,4804.5 4699.34,4804.83 4660.5,4804.5C 4653.49,4804.58 4646.49,4804.91 4639.5,4805.5C 4640.95,4804.7 4642.62,4804.2 4644.5,4804C 4688.5,4803.5 4732.5,4803.33 4776.5,4803.5 Z"/></g>
<g><path style="opacity:1" fill="#d7cfda" d="M 4660.5,4804.5 C 4655.27,4813.29 4649.77,4821.96 4644,4830.5C 4604.32,4883.16 4566.66,4937.16 4531,4992.5C 4510.69,5025.44 4495.03,5060.44 4484,5097.5C 4469.52,5149.4 4476.86,5197.74 4506,5242.5C 4523.22,5265.05 4543.05,5284.89 4565.5,5302C 4641.73,5354.43 4725.73,5388.77 4817.5,5405C 4970.66,5429.26 5117.66,5409.43 5258.5,5345.5C 5258.5,5343.5 5258.5,5341.5 5258.5,5339.5C 5260.48,5348.65 5261.15,5357.98 5260.5,5367.5C 5213.23,5403.79 5160.23,5428.29 5101.5,5441C 5028.22,5457.08 4954.22,5461.42 4879.5,5454C 4798.32,5446.03 4718.66,5430.36 4640.5,5407C 4545.12,5378.54 4451.79,5344.54 4360.5,5305C 4251.26,5257.47 4143.59,5206.47 4037.5,5152C 4156.17,5077.67 4274.83,5003.33 4393.5,4929C 4449.9,4893.3 4508.23,4860.96 4568.5,4832C 4586.72,4824.06 4605.05,4816.39 4623.5,4809C 4628.79,4807.51 4634.12,4806.34 4639.5,4805.5C 4646.49,4804.91 4653.49,4804.58 4660.5,4804.5 Z"/></g>
<g><path style="opacity:1" fill="#d7cfda" d="M 4488.5,4783.5 C 4438.51,4811.3 4388.84,4839.8 4339.5,4869C 4230.23,4937.27 4121.23,5005.94 4012.5,5075C 3891.82,5148.86 3767.49,5216.86 3639.5,5279C 3568.42,5312.25 3495.09,5339.58 3419.5,5361C 3370.94,5374.43 3321.61,5383.76 3271.5,5389C 3216.66,5394.49 3162.66,5390.15 3109.5,5376C 3103.86,5374.06 3098.19,5372.23 3092.5,5370.5C 3090.94,5331.8 3091.44,5293.14 3094,5254.5C 3095.18,5245.69 3096.35,5237.02 3097.5,5228.5C 3097.5,5232.17 3097.5,5235.83 3097.5,5239.5C 3109.52,5244.35 3121.52,5249.52 3133.5,5255C 3167.06,5267.45 3201.73,5274.78 3237.5,5277C 3281.7,5279.65 3325.7,5277.65 3369.5,5271C 3428.68,5261.37 3486.68,5247.03 3543.5,5228C 3628.19,5198.67 3710.85,5164.67 3791.5,5126C 3922.96,5061.27 4052.96,4993.94 4181.5,4924C 4253,4886.58 4325.67,4851.25 4399.5,4818C 4428.98,4805.79 4458.65,4794.29 4488.5,4783.5 Z"/></g>
<g><path style="opacity:1" fill="#d7cfda" d="M 2877.5,4871.5 C 2877.33,4876.18 2877.5,4880.85 2878,4885.5C 2888.61,4938.32 2904.27,4989.66 2925,5039.5C 2951,5100.04 2988.17,5152.54 3036.5,5197C 3038.08,5198.09 3039.74,5198.93 3041.5,5199.5C 3034.03,5246.14 3030.53,5293.14 3031,5340.5C 3010.16,5326.33 2991.82,5309.33 2976,5289.5C 2941.25,5246.02 2915.92,5197.35 2900,5143.5C 2879.18,5071.32 2870.51,4997.65 2874,4922.5C 2874.88,4905.32 2876.05,4888.32 2877.5,4871.5 Z"/></g>
<g><path style="opacity:1" fill="#fefefe" d="M 4355.5,5541.5 C 4355.63,5542.38 4355.3,5543.04 4354.5,5543.5C 4312.66,5568.18 4268,5586.35 4220.5,5598C 4161.76,5612.8 4102.09,5619.97 4041.5,5619.5C 4041.83,5594.66 4041.5,5569.99 4040.5,5545.5C 4038.02,5474.05 4010.35,5414.55 3957.5,5367C 3938.83,5353.67 3921.33,5338.83 3905,5322.5C 3887.65,5301.8 3876.15,5278.13 3870.5,5251.5C 3870.53,5249.97 3871.2,5248.8 3872.5,5248C 3900.87,5232.15 3929.2,5216.32 3957.5,5200.5C 4060.66,5253.74 4165.33,5304.41 4271.5,5352.5C 4263.6,5400.81 4272.43,5445.81 4298,5487.5C 4312.85,5510.19 4332.02,5528.19 4355.5,5541.5 Z"/></g>
<g><path style="opacity:1" fill="#fefefe" d="M 3961.5,5615.5 C 3892.96,5608.63 3825.96,5594.47 3760.5,5573C 3695.5,5551.32 3632.83,5524.49 3572.5,5492.5C 3572.17,5458.93 3572.5,5425.43 3573.5,5392C 3650.24,5361.38 3725.07,5326.88 3798,5288.5C 3811.57,5331.48 3835.07,5367.98 3868.5,5398C 3884.15,5409.98 3899.48,5422.32 3914.5,5435C 3940.86,5462.56 3956.36,5495.39 3961,5533.5C 3961.5,5560.83 3961.67,5588.16 3961.5,5615.5 Z"/></g>
<g><path style="opacity:1" fill="#23a6f0" d="M 4495.5,5443.5 C 4487.5,5446.22 4479.5,5449.06 4471.5,5452C 4449.23,5457.53 4426.9,5457.86 4404.5,5453C 4391.81,5447.42 4379.14,5442.09 4366.5,5437C 4357.57,5431.4 4349.24,5425.07 4341.5,5418C 4337.83,5413.1 4333.83,5408.6 4329.5,5404.5C 4328.65,5395.53 4328.32,5386.53 4328.5,5377.5C 4383.65,5400.91 4439.32,5422.91 4495.5,5443.5 Z"/></g>
<g><path style="opacity:1" fill="#361b42" d="M 2963.5,5735.5 C 2962.53,5742.19 2962.53,5748.86 2963.5,5755.5C 2964.5,5755.5 2965.5,5755.5 2966.5,5755.5C 2967.19,5763.49 2967.36,5771.49 2967,5779.5C 2966.83,5775.46 2966.33,5771.46 2965.5,5767.5C 2964.52,5770.09 2964.19,5772.75 2964.5,5775.5C 2962.53,5765.41 2961.36,5755.07 2961,5744.5C 2960.5,5625.17 2960.33,5505.83 2960.5,5386.5C 2961.12,5386.61 2961.62,5386.94 2962,5387.5C 2962.22,5386.06 2962.72,5384.73 2963.5,5383.5C 2964.47,5385.74 2964.81,5388.08 2964.5,5390.5C 2965.55,5390.35 2966.55,5390.52 2967.5,5391C 2966.18,5505.94 2966.18,5620.94 2967.5,5736C 2967.11,5745.82 2966.78,5745.66 2966.5,5735.5C 2965.5,5735.5 2964.5,5735.5 2963.5,5735.5 Z"/></g>
<g><path style="opacity:1" fill="#39194b" d="M 2963.5,5735.5 C 2962.17,5678 2961.5,5620.17 2961.5,5562C 2961.67,5504.17 2961.83,5446.33 2962,5388.5C 2962.69,5389.03 2963.19,5389.69 2963.5,5390.5C 2962.18,5505.47 2962.18,5620.47 2963.5,5735.5 Z"/></g>
<g><path style="opacity:1" fill="#1c79e9" d="M 4329.5,5404.5 C 4333.83,5408.6 4337.83,5413.1 4341.5,5418C 4349.24,5425.07 4357.57,5431.4 4366.5,5437C 4379.14,5442.09 4391.81,5447.42 4404.5,5453C 4426.9,5457.86 4449.23,5457.53 4471.5,5452C 4479.5,5449.06 4487.5,5446.22 4495.5,5443.5C 4505.8,5446.42 4515.8,5450.09 4525.5,5454.5C 4497.71,5493.5 4460.04,5509 4412.5,5501C 4369.24,5488.07 4342.07,5459.57 4331,5415.5C 4330.58,5411.81 4330.08,5408.14 4329.5,5404.5 Z"/></g>
<g><path style="opacity:1" fill="#d7cfda" d="M 3491.5,5422.5 C 3492.5,5439.66 3492.83,5456.99 3492.5,5474.5C 3362.06,5480.46 3232.89,5496.46 3105,5522.5C 3083.02,5501.21 3068.85,5475.55 3062.5,5445.5C 3062.83,5444.83 3063.17,5444.17 3063.5,5443.5C 3067.01,5444.66 3070.35,5446 3073.5,5447.5C 3078.31,5454.16 3084.31,5460.32 3091.5,5466C 3100.61,5464.55 3109.77,5463.05 3119,5461.5C 3120.38,5461.32 3121.21,5460.65 3121.5,5459.5C 3136.62,5462.97 3151.95,5465.31 3167.5,5466.5C 3173.96,5467.81 3180.63,5468.48 3187.5,5468.5C 3262.92,5471.85 3337.25,5464.35 3410.5,5446C 3437.77,5438.93 3464.77,5431.1 3491.5,5422.5 Z"/></g>
<g><path style="opacity:1" fill="#aea0b2" d="M 3491.5,5422.5 C 3491.56,5421.96 3491.89,5421.62 3492.5,5421.5C 3493.83,5439.33 3493.83,5457 3492.5,5474.5C 3492.83,5456.99 3492.5,5439.66 3491.5,5422.5 Z"/></g>
<g><path style="opacity:1" fill="#f9f8fa" d="M 3073.5,5447.5 C 3089.33,5452.13 3105.33,5456.13 3121.5,5459.5C 3121.21,5460.65 3120.38,5461.32 3119,5461.5C 3109.77,5463.05 3100.61,5464.55 3091.5,5466C 3084.31,5460.32 3078.31,5454.16 3073.5,5447.5 Z"/></g>
<g><path style="opacity:1" fill="#655071" d="M 3167.5,5466.5 C 3174.39,5466.4 3181.05,5467.06 3187.5,5468.5C 3180.63,5468.48 3173.96,5467.81 3167.5,5466.5 Z"/></g>
<g><path style="opacity:1" fill="#d7d0da" d="M 4605.5,5479.5 C 4606.97,5495.73 4610.81,5511.39 4617,5526.5C 4619.17,5528.67 4621.33,5530.83 4623.5,5533C 4631.08,5532.8 4637.58,5529.96 4643,5524.5C 4650.23,5515.28 4656.07,5505.28 4660.5,5494.5C 4668.13,5496.32 4675.79,5497.99 4683.5,5499.5C 4683.67,5554.17 4683.5,5608.83 4683,5663.5C 4676.4,5707.09 4652.9,5737.59 4612.5,5755C 4603.75,5758.27 4594.75,5760.44 4585.5,5761.5C 4584.17,5761.5 4582.83,5761.5 4581.5,5761.5C 4401.5,5761.5 4221.5,5761.5 4041.5,5761.5C 4041.5,5714.17 4041.5,5666.83 4041.5,5619.5C 4102.09,5619.97 4161.76,5612.8 4220.5,5598C 4268,5586.35 4312.66,5568.18 4354.5,5543.5C 4355.3,5543.04 4355.63,5542.38 4355.5,5541.5C 4397.53,5564.36 4441.53,5568.86 4487.5,5555C 4530.01,5539.81 4562.01,5512.48 4583.5,5473C 4591.04,5474.55 4598.38,5476.72 4605.5,5479.5 Z"/></g>
<g><path style="opacity:1" fill="#fdfdfd" d="M 4605.5,5479.5 C 4623.95,5484.12 4642.28,5489.12 4660.5,5494.5C 4656.07,5505.28 4650.23,5515.28 4643,5524.5C 4637.58,5529.96 4631.08,5532.8 4623.5,5533C 4621.33,5530.83 4619.17,5528.67 4617,5526.5C 4610.81,5511.39 4606.97,5495.73 4605.5,5479.5 Z"/></g>
<g><path style="opacity:1" fill="#d7cfda" d="M 3572.5,5492.5 C 3632.83,5524.49 3695.5,5551.32 3760.5,5573C 3825.96,5594.47 3892.96,5608.63 3961.5,5615.5C 3961.5,5664.5 3961.5,5713.5 3961.5,5762.5C 3864.83,5762.67 3768.17,5762.5 3671.5,5762C 3626.97,5755.17 3596.13,5731 3579,5689.5C 3577.02,5683.58 3575.35,5677.58 3574,5671.5C 3572.54,5611.86 3572.04,5552.19 3572.5,5492.5 Z"/></g>
<g><path style="opacity:1" fill="#d5d3d5" d="M 5199.5,5492.5 C 5200.53,5492.9 5200.69,5493.56 5200,5494.5C 5197.28,5497.56 5194.94,5500.89 5193,5504.5C 5188.05,5510.24 5183.21,5516.07 5178.5,5522C 5163.95,5520.3 5149.62,5517.63 5135.5,5514C 5157.39,5508.09 5178.72,5500.93 5199.5,5492.5 Z"/></g>
<g><path style="opacity:1" fill="#ad9eb1" d="M 3477.5,5554.5 C 3482.64,5553.51 3487.97,5553.18 3493.5,5553.5C 3493.5,5589.17 3493.5,5624.83 3493.5,5660.5C 3492.5,5625.34 3492.17,5590 3492.5,5554.5C 3487.5,5554.5 3482.5,5554.5 3477.5,5554.5 Z"/></g>
<g><path style="opacity:1" fill="#fefefe" d="M 3599.5,5871.5 C 3607.81,5874.26 3616.48,5876.1 3625.5,5877C 3959.5,5877.67 4293.5,5877.67 4627.5,5877C 4636.09,5876.64 4644.42,5875.47 4652.5,5873.5C 4715.61,5858.9 4756.77,5820.57 4776,5758.5C 4778.65,5747.31 4780.31,5735.98 4781,5724.5C 4781.33,5709.5 4781.67,5694.5 4782,5679.5C 4790.58,5637.53 4815.08,5609.37 4855.5,5595C 4868.56,5590.95 4881.9,5589.62 4895.5,5591C 4975.07,5596.05 5054.07,5605.55 5132.5,5619.5C 5072.43,5756.76 4980.09,5867.26 4855.5,5951C 4788.16,5995 4716.16,6030 4639.5,6056C 4531.29,6091.54 4420.29,6113.87 4306.5,6123C 4151.66,6136.44 3997.33,6132.44 3843.5,6111C 3740.6,6096.11 3641.27,6069.11 3545.5,6030C 3466.66,5996.76 3394.32,5953.1 3328.5,5899C 3241.56,5824.5 3173.9,5735 3125.5,5630.5C 3125.04,5629.7 3124.38,5629.37 3123.5,5629.5C 3123.5,5628.83 3123.5,5628.17 3123.5,5627.5C 3123.62,5626.41 3124.29,5625.75 3125.5,5625.5C 3203.17,5611.87 3281.17,5600.37 3359.5,5591C 3403.68,5587.84 3438.18,5604.34 3463,5640.5C 3471.23,5655.04 3476.23,5670.71 3478,5687.5C 3473.58,5736.89 3486.24,5780.89 3516,5819.5C 3531.85,5837.99 3550.69,5852.49 3572.5,5863C 3581.16,5866.94 3590.16,5869.77 3599.5,5871.5 Z"/></g>
<g><path style="opacity:1" fill="#fdfdfd" d="M 5211.5,5631.5 C 5212.5,5666.66 5212.83,5702 5212.5,5737.5C 5208.29,5821.03 5178.79,5894.03 5124,5956.5C 5128.66,5902.84 5133.66,5849.17 5139,5795.5C 5169.06,5743.5 5193.23,5688.83 5211.5,5631.5 Z"/></g>
<g><path style="opacity:1" fill="#fdfcfd" d="M 3041.5,5639.5 C 3054.95,5682.67 3071.45,5724.67 3091,5765.5C 3106.47,5834.73 3123.81,5903.39 3143,5971.5C 3081.35,5908.14 3047.19,5832.14 3040.5,5743.5C 3040.17,5708.66 3040.5,5674 3041.5,5639.5 Z"/></g>
<g><path style="opacity:1" fill="#ccc0ce" d="M 5212.5,5737.5 C 5212.83,5702 5212.5,5666.66 5211.5,5631.5C 5211.89,5629.82 5212.39,5628.15 5213,5626.5C 5213.83,5663.67 5213.66,5700.67 5212.5,5737.5 Z"/></g>
<g><path style="opacity:1" fill="#c3bdc6" d="M 3041.5,5639.5 C 3040.5,5674 3040.17,5708.66 3040.5,5743.5C 3039.34,5707.34 3039.17,5671 3040,5634.5C 3040.61,5636.15 3041.11,5637.82 3041.5,5639.5 Z"/></g>
<g><path style="opacity:1" fill="#d7cfda" d="M 5019.5,6189.5 C 5019.63,6188.62 5019.3,6187.96 5018.5,6187.5C 4967.36,6212.61 4914.36,6233.11 4859.5,6249C 4745.7,6281.36 4630.03,6305.03 4512.5,6320C 4507.85,6320.54 4503.52,6321.71 4499.5,6323.5C 4442.03,6307.95 4384.7,6292.12 4327.5,6276C 4404.47,6266.43 4479.13,6247.76 4551.5,6220C 4563.51,6215.15 4568.01,6206.32 4565,6193.5C 4561.07,6183.95 4553.91,6179.61 4543.5,6180.5C 4412.51,6194.44 4281.18,6203.6 4149.5,6208C 4035.55,6211.57 3921.72,6209.4 3808,6201.5C 3792.3,6202.53 3785.3,6210.86 3787,6226.5C 3788.67,6232.84 3792.51,6237.34 3798.5,6240C 3893.11,6265.73 3989.45,6280.73 4087.5,6285C 4129.83,6286.55 4172.17,6286.88 4214.5,6286C 4217.71,6290.26 4221.05,6294.42 4224.5,6298.5C 4220.98,6301.42 4217.31,6304.09 4213.5,6306.5C 4174.34,6306.43 4135,6306.27 4095.5,6306C 4029.37,6303.66 3963.37,6299.32 3897.5,6293C 3811.02,6282.7 3724.35,6274.37 3637.5,6268C 3574.56,6263.22 3512.23,6267.22 3450.5,6280C 3420.27,6288.29 3391.27,6299.62 3363.5,6314C 3360.92,6315.08 3359.25,6316.91 3358.5,6319.5C 3313.12,6223.54 3274.28,6124.87 3242,6023.5C 3232.63,5993.72 3223.46,5963.88 3214.5,5934C 3214.85,5932.74 3215.52,5932.41 3216.5,5933C 3221.6,5938.1 3227.26,5942.43 3233.5,5946C 3250.85,5946.99 3259.35,5938.82 3259,5921.5C 3229.59,5871.34 3202.25,5820.01 3177,5767.5C 3156.11,5722.66 3138.28,5676.66 3123.5,5629.5C 3124.38,5629.37 3125.04,5629.7 3125.5,5630.5C 3173.9,5735 3241.56,5824.5 3328.5,5899C 3394.32,5953.1 3466.66,5996.76 3545.5,6030C 3641.27,6069.11 3740.6,6096.11 3843.5,6111C 3997.33,6132.44 4151.66,6136.44 4306.5,6123C 4420.29,6113.87 4531.29,6091.54 4639.5,6056C 4716.16,6030 4788.16,5995 4855.5,5951C 4980.09,5867.26 5072.43,5756.76 5132.5,5619.5C 5054.07,5605.55 4975.07,5596.05 4895.5,5591C 4881.9,5589.62 4868.56,5590.95 4855.5,5595C 4815.08,5609.37 4790.58,5637.53 4782,5679.5C 4781.67,5694.5 4781.33,5709.5 4781,5724.5C 4780.31,5735.98 4778.65,5747.31 4776,5758.5C 4756.77,5820.57 4715.61,5858.9 4652.5,5873.5C 4649.49,5872.72 4646.32,5872.05 4643,5871.5C 4295.25,5871.51 3947.41,5871.51 3599.5,5871.5C 3590.16,5869.77 3581.16,5866.94 3572.5,5863C 3550.69,5852.49 3531.85,5837.99 3516,5819.5C 3486.24,5780.89 3473.58,5736.89 3478,5687.5C 3476.23,5670.71 3471.23,5655.04 3463,5640.5C 3438.18,5604.34 3403.68,5587.84 3359.5,5591C 3281.17,5600.37 3203.17,5611.87 3125.5,5625.5C 3124.29,5625.75 3123.62,5626.41 3123.5,5627.5C 3120.46,5618.7 3117.79,5609.7 3115.5,5600.5C 3235.06,5576.66 3355.72,5561.33 3477.5,5554.5C 3482.5,5554.5 3487.5,5554.5 3492.5,5554.5C 3492.17,5590 3492.5,5625.34 3493.5,5660.5C 3498.68,5730.4 3531.34,5782.9 3591.5,5818C 3616.68,5832.04 3643.68,5839.71 3672.5,5841C 3977.17,5841.67 4281.83,5841.67 4586.5,5841C 4659.31,5833.16 4712.14,5796.66 4745,5731.5C 4753.94,5711.41 4759.61,5690.41 4762,5668.5C 4762.5,5629.83 4762.67,5591.17 4762.5,5552.5C 4890.38,5557.43 5017.05,5572.26 5142.5,5597C 5118.6,5687.7 5085.43,5774.87 5043,5858.5C 5042.33,5862.17 5042.33,5865.83 5043,5869.5C 5045.28,5874.26 5048.11,5878.6 5051.5,5882.5C 5041.33,5985.03 5030.67,6087.37 5019.5,6189.5 Z"/></g>
<g><path style="opacity:1" fill="#b5a3bb" d="M 4040.5,5545.5 C 4041.5,5569.99 4041.83,5594.66 4041.5,5619.5C 4041.5,5666.83 4041.5,5714.17 4041.5,5761.5C 4221.5,5761.5 4401.5,5761.5 4581.5,5761.5C 4401.67,5762.5 4221.67,5762.83 4041.5,5762.5C 4040.5,5690.34 4040.17,5618 4040.5,5545.5 Z"/></g>
<g><path style="opacity:1" fill="#351b3e" d="M 4581.5,5761.5 C 4582.83,5761.5 4584.17,5761.5 4585.5,5761.5C 4585.08,5762.22 4584.42,5762.72 4583.5,5763C 4402.67,5763.83 4222,5763.67 4041.5,5762.5C 4221.67,5762.83 4401.67,5762.5 4581.5,5761.5 Z"/></g>
<g><path style="opacity:1" fill="#d6d2d8" d="M 3655.5,5841.5 C 3967.4,5842.32 4279.4,5842.82 4591.5,5843C 4288.52,5844.33 3985.52,5844.99 3682.5,5845C 3978.45,5846.33 4274.45,5847 4570.5,5847C 4271.5,5847.67 3972.5,5847.67 3673.5,5847C 3676.1,5846.08 3678.77,5845.41 3681.5,5845C 3675.86,5843.93 3670.19,5843.59 3664.5,5844C 3664.04,5844.41 3663.71,5844.91 3663.5,5845.5C 3666.72,5846.33 3669.72,5846.66 3672.5,5846.5C 3667.11,5847.84 3661.78,5847.67 3656.5,5846C 3655.62,5844.64 3655.29,5843.14 3655.5,5841.5 Z"/></g>
<g><path style="opacity:1" fill="#d7d3da" d="M 3599.5,5871.5 C 3947.41,5871.51 4295.25,5871.51 4643,5871.5C 4646.32,5872.05 4649.49,5872.72 4652.5,5873.5C 4644.42,5875.47 4636.09,5876.64 4627.5,5877C 4293.5,5877.67 3959.5,5877.67 3625.5,5877C 3616.48,5876.1 3607.81,5874.26 3599.5,5871.5 Z"/></g>
<g><path style="opacity:1" fill="#fefefe" d="M 5019.5,6189.5 C 5009.88,6289.32 4998.88,6388.98 4986.5,6488.5C 4972.38,6496.56 4957.71,6503.56 4942.5,6509.5C 4922.91,6492.37 4901.91,6477.21 4879.5,6464C 4839.18,6441.78 4797.51,6422.45 4754.5,6406C 4670.58,6374.94 4585.58,6347.44 4499.5,6323.5C 4503.52,6321.71 4507.85,6320.54 4512.5,6320C 4630.03,6305.03 4745.7,6281.36 4859.5,6249C 4914.36,6233.11 4967.36,6212.61 5018.5,6187.5C 5019.3,6187.96 5019.63,6188.62 5019.5,6189.5 Z"/></g>
<g><path style="opacity:1" fill="#fefefe" d="M 4213.5,6306.5 C 4146.79,6353.68 4085.29,6407.34 4029,6467.5C 3924.04,6582.68 3836.87,6710.35 3767.5,6850.5C 3710.72,6810.91 3658.89,6765.25 3612,6713.5C 3553.66,6648.14 3501.66,6578.14 3456,6503.5C 3420.12,6444.08 3387.62,6382.74 3358.5,6319.5C 3359.25,6316.91 3360.92,6315.08 3363.5,6314C 3391.27,6299.62 3420.27,6288.29 3450.5,6280C 3512.23,6267.22 3574.56,6263.22 3637.5,6268C 3724.35,6274.37 3811.02,6282.7 3897.5,6293C 3963.37,6299.32 4029.37,6303.66 4095.5,6306C 4135,6306.27 4174.34,6306.43 4213.5,6306.5 Z"/></g>
<g><path style="opacity:1" fill="#fefefe" d="M 4268.5,6340.5 C 4279.5,6345.22 4290.83,6349.05 4302.5,6352C 4391.57,6375.1 4480.24,6399.77 4568.5,6426C 4643.08,6448.46 4716.08,6475.13 4787.5,6506C 4821.07,6520.77 4852.4,6539.11 4881.5,6561C 4889.84,6568 4896.67,6576.16 4902,6585.5C 4902.33,6636.5 4902.67,6687.5 4903,6738.5C 4905.27,6826.49 4907.27,6914.49 4909,7002.5C 4910.03,7068.52 4909.36,7134.52 4907,7200.5C 4905.69,7240.52 4901.36,7280.19 4894,7319.5C 4891.19,7330.61 4887.19,7341.28 4882,7351.5C 4872.07,7365.75 4858.9,7375.92 4842.5,7382C 4802.39,7395.5 4761.72,7397.16 4720.5,7387C 4682.15,7376.64 4653.98,7353.8 4636,7318.5C 4617.5,7279.83 4606.17,7239.16 4602,7196.5C 4598.71,7166.9 4597.71,7137.23 4599,7107.5C 4594.7,7090.86 4584.2,7080.69 4567.5,7077C 4420.71,7064.42 4276.04,7039.76 4133.5,7003C 4049.83,6981.22 3968.5,6952.89 3889.5,6918C 3865.82,6907.08 3842.65,6895.24 3820,6882.5C 3819.33,6881.5 3819.33,6880.5 3820,6879.5C 3890.23,6737.66 3979.23,6608.99 4087,6493.5C 4142.29,6435.71 4202.79,6384.71 4268.5,6340.5 Z"/></g>
<g><path style="opacity:1" fill="#9a88a2" d="M 4976.5,6558.5 C 4977.5,6558.5 4978.5,6558.5 4979.5,6558.5C 4978.52,6566.47 4977.52,6566.47 4976.5,6558.5 Z"/></g>
<g><path style="opacity:1" fill="#fefefe" d="M 4588.5,7390.5 C 4465.33,7391.5 4342,7391.83 4218.5,7391.5C 4209.24,7389.08 4202.07,7383.75 4197,7375.5C 4186.35,7356.25 4180.35,7335.58 4179,7313.5C 4178.33,7273.17 4178.33,7232.83 4179,7192.5C 4182.58,7177.01 4189.58,7163.35 4200,7151.5C 4215.59,7134.55 4233.92,7121.55 4255,7112.5C 4342.45,7130.04 4430.61,7143.04 4519.5,7151.5C 4520.79,7198.67 4527.62,7245.01 4540,7290.5C 4550.07,7326.97 4566.24,7360.31 4588.5,7390.5 Z"/></g>
<g><path style="opacity:1" fill="#b8acaf" d="M 4099.5,7220.5 C 4097.76,7256.2 4098.26,7291.87 4101,7327.5C 4103.98,7358.42 4112.98,7387.42 4128,7414.5C 4143.51,7439.85 4165.35,7457.18 4193.5,7466.5C 4199.24,7468.52 4205.24,7470.02 4211.5,7471C 4388.83,7471.5 4566.17,7471.67 4743.5,7471.5C 4783.01,7475.63 4821.67,7471.8 4859.5,7460C 4926.89,7437.25 4965.06,7390.42 4974,7319.5C 4978.86,7292.86 4982.36,7266.2 4984.5,7239.5C 4984.5,7241.17 4984.5,7242.83 4984.5,7244.5C 5123.2,7252.06 5261.54,7263.9 5399.5,7280C 5476.98,7289.41 5553.98,7301.75 5630.5,7317C 5663.22,7324.07 5695.55,7332.41 5727.5,7342C 5743.73,7347.78 5759.73,7354.12 5775.5,7361C 5780.8,7363.98 5786.13,7366.98 5791.5,7370C 5798.65,7375.15 5805.15,7380.98 5811,7387.5C 5815.86,7395.26 5816.69,7403.43 5813.5,7412C 5810.07,7416.86 5806.41,7421.52 5802.5,7426C 5781.71,7439.9 5759.37,7450.9 5735.5,7459C 5680.39,7475.89 5624.39,7489.22 5567.5,7499C 5471.96,7514.84 5375.96,7527.51 5279.5,7537C 5038.68,7559.11 4797.34,7572.45 4555.5,7577C 4213.9,7584.76 3872.56,7578.43 3531.5,7558C 3387.04,7549.07 3243.04,7535.4 3099.5,7517C 3023.54,7506.78 2948.2,7493.12 2873.5,7476C 2840.93,7467.87 2809.26,7457.21 2778.5,7444C 2722.57,7415.97 2722.57,7387.97 2778.5,7360C 2806.81,7348.01 2835.81,7338.01 2865.5,7330C 2959.82,7307.94 3055.16,7291.27 3151.5,7280C 3361.53,7256.04 3572.2,7240.37 3783.5,7233C 3888.47,7229.04 3993.47,7226.54 4098.5,7225.5C 4098.22,7223.59 4098.55,7221.92 4099.5,7220.5 Z"/></g>
<g><path style="opacity:1" fill="#9d89a4" d="M 4588.5,7390.5 C 4589.04,7390.56 4589.38,7390.89 4589.5,7391.5C 4465.67,7392.83 4342,7392.83 4218.5,7391.5C 4342,7391.83 4465.33,7391.5 4588.5,7390.5 Z"/></g>
<g><path style="opacity:1" fill="#3c2048" d="M 4743.5,7471.5 C 4566.17,7471.67 4388.83,7471.5 4211.5,7471C 4205.24,7470.02 4199.24,7468.52 4193.5,7466.5C 4196.36,7466.66 4199.03,7465.99 4201.5,7464.5C 4204.06,7464.74 4204.06,7465.24 4201.5,7466C 4203.42,7466.36 4205.09,7467.19 4206.5,7468.5C 4209.17,7466.58 4212.17,7465.41 4215.5,7465C 4214.5,7464.67 4213.5,7464.33 4212.5,7464C 4386.72,7463.18 4561.06,7463.34 4735.5,7464.5C 4564.5,7465.17 4393.5,7465.83 4222.5,7466.5C 4222.71,7467.09 4223.04,7467.59 4223.5,7468C 4396.83,7468.33 4570.17,7468.67 4743.5,7469C 4742.17,7469.33 4740.83,7469.67 4739.5,7470C 4741.06,7470.21 4742.39,7470.71 4743.5,7471.5 Z"/></g>
</svg>