<svg xmlns="http://www.w3.org/2000/svg" fill="none" viewBox="55.97 27 125.07 191.45">
<path fill-rule="evenodd" clip-rule="evenodd" d="M130.821 27.005C142.231 26.9478 152.228 30.6181 160.81 38.0157C167.431 43.9107 171.846 51.1777 174.055 59.8167C174.54 61.8213 174.893 63.8499 175.113 65.9027C176.74 67.2649 177.975 68.9211 178.818 70.8715C179.053 71.4096 179.259 71.9585 179.435 72.518C180.354 74.3391 180.873 76.2699 180.994 78.31C181.234 82.3006 180.303 85.9855 178.201 89.3649C177.33 90.6762 176.267 91.8081 175.01 92.7607C174.247 93.314 173.414 93.7353 172.511 94.025C170.736 95.1819 168.785 95.7799 166.661 95.8184C163.799 99.6209 160.408 102.855 156.488 105.521C158.694 106.286 160.86 107.148 162.985 108.108C164.701 108.902 166.338 109.823 167.895 110.872C169.027 111.659 170.061 112.566 170.997 113.591C171.703 114.404 172.252 115.316 172.644 116.326C172.907 117.172 173.103 118.035 173.232 118.913C173.63 121.534 173.812 124.17 173.776 126.822C173.747 130.887 173.468 134.934 172.938 138.965C172.511 141.964 172.021 144.953 171.468 147.932C171.267 148.898 171.042 149.858 170.791 150.813C170.227 152.761 169.639 154.701 169.027 156.635C168.448 158.373 167.743 160.058 166.91 161.692C166.423 162.62 165.855 163.492 165.205 164.308C164.285 165.364 163.182 166.173 161.898 166.734C160.263 167.439 158.568 167.949 156.811 168.263C155.176 168.55 153.529 168.747 151.872 168.851C150.842 168.902 149.818 168.956 148.799 169.013C147.782 171.895 146.851 174.806 146.006 177.745C145.718 178.556 145.807 179.321 146.271 180.038C149.172 183.449 152.073 186.859 154.974 190.27C156.826 192.729 157.394 195.463 156.679 198.473C156.115 200.511 155.331 202.461 154.327 204.323C152.138 208.336 149.33 211.87 145.903 214.923C142.796 217.518 139.209 218.684 135.142 218.421C133.455 218.274 131.916 217.725 130.527 216.775C129.125 215.706 128.189 214.319 127.719 212.615C127.252 210.558 127.32 208.52 127.925 206.499C128.286 205.269 128.756 204.083 129.336 202.942C129.355 202.903 129.355 202.863 129.336 202.824C125.349 198.769 121.37 194.702 117.399 190.623C115.195 188.185 113.705 185.352 112.93 182.126C112.664 181.089 112.458 180.04 112.312 178.98C111.886 175.848 111.656 172.702 111.622 169.542C110.13 170.277 108.592 170.9 107.006 171.409C104.88 172.063 102.724 172.597 100.537 173.011C100.525 173.994 100.569 174.974 100.67 175.951C101.009 178.498 101.342 181.047 101.669 183.596C102.001 186.182 102.212 188.78 102.301 191.387C102.216 193.718 101.246 195.575 99.3907 196.958C98.1679 197.68 96.8842 198.278 95.5391 198.752C93.1367 199.556 90.6767 200.105 88.1594 200.398C84.982 200.746 81.797 200.834 78.604 200.663C76.6336 200.543 74.6831 200.279 72.7532 199.869C71.5257 199.588 70.3303 199.205 69.1663 198.723C66.1959 197.292 64.6473 194.921 64.5209 191.607C64.6382 188.57 65.8827 186.12 68.2548 184.257C68.8082 183.856 69.4062 183.537 70.0483 183.302C69.976 177.862 69.8928 172.423 69.7984 166.984C69.4562 163.304 70.2303 159.884 72.1211 156.723C72.8152 155.568 73.5894 154.471 74.4438 153.43C76.1379 151.452 77.9951 149.643 80.0153 148.006C83.2785 145.409 86.7038 143.043 90.291 140.905C90.889 137.856 91.5996 134.832 92.4226 131.835C91.7034 130.473 91.6102 129.067 92.1433 127.616C92.3385 127.019 92.6325 126.48 93.0253 125.999C93.2108 125.803 93.4216 125.642 93.6574 125.514C90.4224 125.647 87.208 125.45 84.0139 124.926C81.4883 124.495 79.0871 123.702 76.8106 122.544C74.9956 121.592 73.4227 120.333 72.0917 118.766C71.1752 117.623 70.4402 116.368 69.8866 115.003C68.9002 112.605 68.2728 110.116 68.0049 107.535C67.8232 105.588 67.7644 103.638 67.8285 101.684C67.9385 99.4686 68.1543 97.2635 68.4753 95.0687C68.8437 92.7087 69.2797 90.3616 69.7837 88.0271C69.7716 87.9621 69.7325 87.9227 69.6661 87.9095C67.967 87.3177 66.5507 86.323 65.4176 84.9253C63.7079 82.7276 62.7671 80.2285 62.5951 77.428C62.3881 74.2665 63.1622 71.3755 64.9178 68.7546C65.9545 67.2693 67.2922 66.1471 68.9311 65.3882C70.3958 64.7555 71.915 64.5741 73.4882 64.8443C73.856 62.2805 74.9733 60.1098 76.84 58.3319C78.213 57.0724 79.8301 56.3274 81.6912 56.0974C84.656 55.9307 86.9149 57.1021 88.4681 59.6109C88.6372 59.9002 88.7989 60.1942 88.9532 60.4929C91.006 52.1253 95.1222 44.9761 101.302 39.0448C108.384 32.4421 116.763 28.5319 126.44 27.3137C127.901 27.1597 129.361 27.0568 130.821 27.005Z" fill="#371A46"/>
<path fill-rule="evenodd" clip-rule="evenodd" d="M171.718 59.4345C171.663 60.9522 171.521 62.4613 171.291 63.9623C171.283 63.9893 171.268 64.0087 171.247 64.0211C169.331 63.6109 167.459 63.7579 165.632 64.4621C164.577 59.8508 162.798 55.5485 160.295 51.555C156.019 44.8571 150.408 39.5896 143.463 35.7518C137.02 32.2766 130.13 30.4978 122.794 30.4155C122.421 30.3958 122.049 30.3764 121.677 30.3567C129.74 28.4492 137.688 28.8363 145.521 31.5181C153.18 34.2553 159.535 38.7978 164.588 45.1455C167.905 49.4184 170.282 54.1814 171.718 59.4345Z" fill="#FEFEFE"/>
<path fill-rule="evenodd" clip-rule="evenodd" d="M121.677 30.3567C122.049 30.3764 122.421 30.3958 122.794 30.4155C122.363 30.4205 121.931 30.4155 121.5 30.4008C121.557 30.377 121.616 30.3623 121.677 30.3567Z" fill="#C3B7C6"/>
<path fill-rule="evenodd" clip-rule="evenodd" d="M160.663 67.7844C160.38 65.6028 159.87 63.4763 159.134 61.4044C157.746 57.5105 155.781 53.9529 153.239 50.7317C148.811 45.1829 143.308 41.0717 136.73 38.3979C133.666 37.2031 130.5 36.4189 127.234 36.0458C114.148 34.4791 103.706 38.953 95.9066 49.4675C95.6223 49.8694 95.3383 50.271 95.054 50.6729C97.6125 45.9917 100.969 41.949 105.124 38.5449C107.595 36.5386 110.271 34.8333 113.15 33.4291C114.762 33.009 116.399 32.7247 118.06 32.5765C130.549 31.5551 141.467 35.1521 150.813 43.3667C155.701 47.7452 159.391 52.9739 161.883 59.0523C162.703 61.1015 163.321 63.2087 163.735 65.3735C162.623 66.0733 161.614 66.9065 160.707 67.8726C160.7 67.8362 160.685 67.8068 160.663 67.7844Z" fill="#FEFEFE"/>
<path fill-rule="evenodd" clip-rule="evenodd" d="M71.8712 37.0308C71.9362 37.9081 72.1273 38.7607 72.4445 39.5887C72.6485 40.097 72.9573 40.533 73.3706 40.897C73.5726 41.0461 73.7978 41.144 74.0469 41.191C73.6411 41.2931 73.303 41.5039 73.0325 41.8232C72.5862 42.4021 72.2825 43.0489 72.1211 43.7636C72.0161 44.2405 71.9379 44.7209 71.8859 45.2043C71.8333 44.0859 71.5098 43.0568 70.9156 42.1172C70.6919 41.8052 70.4126 41.5553 70.0777 41.3675C69.8804 41.279 69.6746 41.2202 69.4603 41.191C69.9454 41.1322 70.352 40.9214 70.6804 40.5589C71.3105 39.7683 71.683 38.8666 71.7977 37.854C71.8415 37.5812 71.8662 37.3069 71.8712 37.0308Z" fill="#FDFEFE"/>
<path fill-rule="evenodd" clip-rule="evenodd" d="M120.236 41.2352C125.382 41.0955 130.301 42.0707 134.995 44.1606C136.071 44.6392 137.071 45.2369 137.994 45.954C138.168 46.0884 138.296 46.2551 138.377 46.4539C138.374 46.4865 138.364 46.5159 138.347 46.5421C132.59 46.1193 126.886 46.4918 121.236 47.6593C117.564 48.429 114.075 49.6933 110.769 51.4521C109.279 52.2862 107.877 53.2467 106.565 54.3334C104.314 56.3488 102.668 58.7744 101.625 61.6102C99.5477 61.6396 97.4699 61.6493 95.3921 61.6396C96.5623 57.888 98.2628 54.4089 100.493 51.2021C102.103 48.9065 104.048 46.9413 106.329 45.3072C108.295 43.9489 110.441 42.9686 112.768 42.3671C115.221 41.7247 117.711 41.3472 120.236 41.2352Z" fill="#9B8CA1"/>
<path fill-rule="evenodd" clip-rule="evenodd" d="M59.4933 41.4704C59.5271 42.9863 59.8552 44.4369 60.4782 45.8217C60.7599 46.3795 61.1371 46.8646 61.6102 47.2771C61.9583 47.5391 62.3502 47.6861 62.7862 47.7181C62.314 47.7413 61.9024 47.908 61.5514 48.2179C60.8884 48.8324 60.4129 49.5724 60.1254 50.4377C59.7494 51.5729 59.5436 52.7393 59.508 53.9365C59.4874 52.4123 59.1346 50.9717 58.4495 49.6145C58.1238 48.9994 57.6778 48.4899 57.1118 48.0856C56.7584 47.8772 56.3762 47.7546 55.9651 47.7181C56.497 47.6772 56.9674 47.4911 57.3764 47.1595C58.1111 46.47 58.6356 45.6418 58.9494 44.6751C59.2881 43.6343 59.4695 42.5659 59.4933 41.4704Z" fill="#FEFEFE"/>
<path fill-rule="evenodd" clip-rule="evenodd" d="M68.49 52.9074C68.5471 53.7118 68.6991 54.5057 68.9458 55.2889C69.1592 55.8881 69.4876 56.4123 69.9307 56.8619C70.148 57.0342 70.3929 57.1518 70.6657 57.2147C70.4149 57.2567 70.1897 57.3546 69.9895 57.5087C69.5229 57.9277 69.1848 58.4325 68.9752 59.0229C68.6964 59.812 68.5394 60.6255 68.5047 61.4632C68.4944 60.4129 68.2495 59.423 67.7697 58.4936C67.5586 58.1252 67.289 57.8068 66.9612 57.5381C66.7268 57.3617 66.4622 57.2541 66.1673 57.2147C66.506 57.1385 66.8098 56.9915 67.0788 56.7737C67.5942 56.2874 67.952 55.7043 68.1519 55.0243C68.3704 54.336 68.483 53.6304 68.49 52.9074Z" fill="#FDFDFE"/>
<path fill-rule="evenodd" clip-rule="evenodd" d="M86.8952 61.5808C83.6266 61.6102 80.3534 61.6199 77.0752 61.6102C78.1189 59.9249 79.6084 58.8617 81.5442 58.4201C83.4791 58.1564 85.0323 58.7985 86.2042 60.3459C86.488 60.727 86.7182 61.1386 86.8952 61.5808Z" fill="#FEFEFE"/>
<path fill-rule="evenodd" clip-rule="evenodd" d="M171.718 59.4345C172.169 61.0909 172.522 62.7718 172.776 64.4768C172.766 64.4915 172.756 64.5062 172.747 64.5209C172.257 64.3121 171.758 64.1454 171.247 64.0211C171.268 64.0087 171.283 63.9893 171.291 63.9623C171.521 62.4613 171.663 60.9522 171.718 59.4345Z" fill="#C2B8C6"/>
<path fill-rule="evenodd" clip-rule="evenodd" d="M148.932 60.3459C150.669 60.3353 152.124 60.9625 153.298 62.2276C154.934 64.1772 155.474 66.402 154.915 68.9017C154.49 70.5434 153.574 71.8224 152.166 72.7385C150.011 73.8337 147.992 73.6279 146.109 72.1211C144.734 70.8707 143.946 69.3171 143.742 67.461C143.524 65.3427 144.122 63.5004 145.536 61.9336C146.472 60.988 147.604 60.4588 148.932 60.3459Z" fill="#9B8CA1"/>
<path fill-rule="evenodd" clip-rule="evenodd" d="M159.134 61.4044C159.87 63.4763 160.38 65.6028 160.663 67.7844C160.667 67.8344 160.662 67.8835 160.648 67.9314C160.487 68.0778 160.355 68.2445 160.251 68.4312C160.222 68.4312 160.192 68.4312 160.163 68.4312C159.735 69.0101 159.308 69.5982 158.884 70.1953C158.715 70.5223 158.524 70.836 158.311 71.1361C158.21 71.3296 158.122 71.5257 158.046 71.7242C158.017 71.7242 157.987 71.7242 157.958 71.7242C157.945 71.845 157.901 71.9526 157.826 72.0476C157.811 72.0955 157.806 72.1446 157.811 72.1946C157.781 72.1946 157.752 72.1946 157.723 72.1946C157.727 72.2543 157.723 72.3131 157.708 72.371C157.481 72.7864 157.285 73.2178 157.12 73.6646C157.105 73.7226 157.1 73.7814 157.105 73.8411C157.076 73.8411 157.046 73.8411 157.017 73.8411C156.992 74.0025 156.953 74.1592 156.899 74.3115C156.833 74.3982 156.784 74.4814 156.752 74.5614C156.762 74.5711 156.772 74.5811 156.782 74.5908C156.658 75.0639 156.516 75.5293 156.355 75.9873C155.828 78.1407 155.612 80.3264 155.709 82.5438C155.787 83.7669 155.963 84.9723 156.238 86.1601C156.354 86.5065 156.457 86.8546 156.547 87.2039C156.537 87.2136 156.527 87.2236 156.517 87.2333C156.654 87.4438 156.743 87.674 156.782 87.9242C156.107 89.1764 155.362 90.3819 154.547 91.5406C150.877 96.6011 146.163 100.359 140.405 102.816C139.594 103.157 138.771 103.465 137.936 103.742C137.906 103.745 137.882 103.735 137.862 103.713C137.298 100.828 136.71 97.9468 136.098 95.0687C135.799 93.6913 135.471 92.3241 135.113 90.9672C135.117 90.9446 135.127 90.9249 135.143 90.9084C135.788 90.615 136.416 90.2916 137.024 89.9382C137.236 89.8815 137.422 89.7786 137.583 89.6295C137.719 89.5622 137.857 89.4934 137.994 89.4237C138.012 89.4299 138.026 89.4396 138.039 89.4531C138.046 89.4202 138.061 89.3907 138.083 89.3649C138.266 89.244 138.452 89.1314 138.641 89.0268C138.759 89.0371 138.847 88.993 138.906 88.8945C138.961 88.8618 139.02 88.8374 139.082 88.821C139.243 88.7048 139.4 88.5822 139.553 88.4534C139.677 88.3861 139.805 88.3273 139.935 88.277C139.935 88.2476 139.935 88.2182 139.935 88.1888C139.988 88.1974 140.036 88.1874 140.082 88.1594C140.197 88.0671 140.324 87.9936 140.464 87.9389C140.641 87.7822 140.827 87.6402 141.023 87.5126C141.125 87.4661 141.224 87.4123 141.317 87.3509C141.341 87.3212 141.351 87.2868 141.346 87.248C141.386 87.2527 141.426 87.2477 141.464 87.2333C141.815 86.9993 142.148 86.7443 142.463 86.4689C142.653 86.3624 142.829 86.2398 142.993 86.1013C143.028 86.074 143.067 86.0643 143.11 86.0719C143.104 86.0373 143.113 86.0078 143.14 85.9837C143.398 85.7812 143.663 85.5951 143.933 85.4251C143.933 85.386 143.933 85.3466 143.933 85.3075C143.964 85.3119 143.994 85.3069 144.022 85.2928C144.098 85.212 144.186 85.1485 144.286 85.1017C144.482 84.9271 144.678 84.7507 144.874 84.5725C144.909 84.5451 144.948 84.5354 144.992 84.5431C144.982 84.4549 145.021 84.4158 145.11 84.4255C145.103 84.3908 145.113 84.3614 145.139 84.3373C145.22 84.2467 145.318 84.1782 145.433 84.1315C145.531 84.0045 145.649 83.8966 145.786 83.8081C145.812 83.7839 145.822 83.7545 145.815 83.7199C145.903 83.7296 145.942 83.6904 145.933 83.6022C145.972 83.6022 146.011 83.6022 146.05 83.6022C146.05 83.5631 146.05 83.5237 146.05 83.4846C146.081 83.4891 146.111 83.4841 146.139 83.4699C146.163 83.4061 146.207 83.362 146.271 83.3376C146.285 83.3097 146.29 83.2803 146.286 83.2494C146.809 82.8343 147.299 82.3739 147.756 81.8676C147.791 81.8402 147.83 81.8305 147.873 81.8382C148.023 81.6238 148.195 81.418 148.388 81.2208C148.402 81.1928 148.407 81.1634 148.402 81.1325C148.491 81.1422 148.53 81.1031 148.52 81.0149C148.551 81.0194 148.58 81.0144 148.608 81.0002C148.667 80.887 148.755 80.8135 148.873 80.7797C148.895 80.6677 148.953 80.5795 149.049 80.5151C149.764 81.3604 150.646 81.6003 151.695 81.2355C152.555 80.7768 153.02 80.0565 153.092 79.0745C153.134 78.1169 152.815 77.3033 152.136 76.6342C152.26 76.4169 152.392 76.2011 152.533 75.9873C152.563 75.9626 152.597 75.9529 152.636 75.9579C152.632 75.8774 152.667 75.8186 152.739 75.7815C152.768 75.726 152.787 75.6672 152.798 75.6051C152.894 75.5143 152.963 75.4064 153.004 75.2817C153.033 75.257 153.068 75.2473 153.107 75.2523C153.139 75.1391 153.188 75.0312 153.254 74.9289C153.273 74.9192 153.293 74.9092 153.312 74.8995C153.351 74.7284 153.434 74.5814 153.562 74.4585C153.577 74.4106 153.582 74.3615 153.577 74.3115C153.606 74.3115 153.636 74.3115 153.665 74.3115C153.661 74.2806 153.666 74.2512 153.68 74.2233C153.922 73.8757 154.133 73.5132 154.312 73.1354C154.578 72.8085 154.778 72.4457 154.915 72.0476C155.084 71.7389 155.26 71.4352 155.444 71.1361C155.646 70.7316 155.832 70.32 156.003 69.9013C156.188 69.622 156.325 69.3183 156.414 68.9899C156.538 68.8346 156.616 68.6582 156.649 68.4606C156.681 68.4404 156.715 68.4257 156.752 68.4165C156.737 68.4001 156.727 68.3804 156.723 68.3577C156.836 68.0875 156.944 67.8129 157.046 67.5345C157.088 67.4372 157.146 67.354 157.223 67.2846C157.213 67.2649 157.203 67.2455 157.193 67.2258C157.262 66.9747 157.361 66.7345 157.487 66.5055C157.616 66.1444 157.748 65.7866 157.884 65.4323C157.898 65.3329 157.917 65.235 157.943 65.1383C158.195 64.5379 158.391 63.9205 158.531 63.286C158.578 63.2602 158.607 63.2211 158.619 63.1684C158.78 62.6045 158.932 62.0359 159.075 61.4632C159.082 61.4276 159.102 61.4079 159.134 61.4044Z" fill="#220F2D"/>
<path fill-rule="evenodd" clip-rule="evenodd" d="M86.8952 61.5808C86.911 61.5825 86.921 61.5922 86.9246 61.6102C85.2781 61.6199 83.6316 61.6299 81.9852 61.6396C80.327 61.6396 78.6902 61.6299 77.0752 61.6102C80.3534 61.6199 83.6266 61.6102 86.8952 61.5808Z" fill="#D0C4D1"/>
<path fill-rule="evenodd" clip-rule="evenodd" d="M100.773 65.1677C101.411 65.3741 102.029 65.6387 102.625 65.9615C102.562 65.981 102.493 65.9909 102.419 65.9909C94.4516 65.5655 86.4838 65.1539 78.5158 64.7561C78.5152 65.6775 78.5005 66.5987 78.4717 67.5198C78.4682 67.5768 78.4438 67.616 78.3982 67.6374C78.1736 67.3884 77.9337 67.1532 77.6779 66.9318C77.6929 65.9521 77.7076 64.9722 77.722 63.9917C85.4054 64.3848 93.0891 64.7767 100.773 65.1677Z" fill="#EFEFEF"/>
<path fill-rule="evenodd" clip-rule="evenodd" d="M102.625 65.9615C102.655 66.0212 102.704 66.0603 102.772 66.0791C103.053 66.3388 103.2 66.6622 103.213 67.0494C103.183 67.0494 103.154 67.0494 103.125 67.0494C101.51 66.9094 99.8929 66.7871 98.2734 66.6819C97.3591 66.5781 96.7466 66.9556 96.4359 67.8138C96.3868 68.6653 96.3671 69.5179 96.3771 70.3717C96.5238 71.0476 96.9304 71.474 97.5972 71.6507C99.0288 71.7568 100.459 71.8597 101.89 71.9594C101.867 73.253 101.843 74.5467 101.816 75.8403C101.802 77.1922 101.606 78.5153 101.228 79.8095C100.842 80.98 100.2 81.9843 99.3025 82.8231C97.9574 83.8933 96.4679 84.1579 94.8335 83.6169C94.7159 83.5581 94.5983 83.4993 94.4807 83.4405C94.4492 83.4188 94.4295 83.3894 94.4219 83.3523C94.7818 82.7334 95.0317 82.0719 95.1716 81.3678C95.4868 79.3791 95.4968 77.3895 95.201 75.3993C95.0099 74.248 94.6377 73.1601 94.0838 72.1358C93.9144 71.8259 93.7233 71.5319 93.5104 71.2537C92.8207 69.804 91.8408 68.5838 90.5703 67.5933C88.6598 66.2311 86.6115 65.9862 84.4255 66.8583C83.1583 67.4725 82.1098 68.3495 81.2796 69.4897C80.7797 69.5288 80.2799 69.5288 79.7801 69.4897C79.3752 68.8302 78.9148 68.2128 78.3982 67.6374C78.4438 67.6159 78.4682 67.5768 78.4717 67.5198C78.5006 66.5987 78.5153 65.6775 78.5158 64.7561C86.4839 65.1539 94.4516 65.5655 102.419 65.9909C102.493 65.9909 102.562 65.9809 102.625 65.9615Z" fill="#CBCBCB"/>
<path fill-rule="evenodd" clip-rule="evenodd" d="M121.736 111.886C121.213 107.123 120.694 102.36 120.177 97.5972C120.387 97.4452 120.46 97.2394 120.398 96.9798C120.331 96.8251 120.219 96.7222 120.06 96.6711C119.445 96.7419 118.827 96.8007 118.207 96.8475C117.25 96.8878 116.3 96.8289 115.356 96.6711C115.242 96.6202 115.124 96.5808 115.003 96.5535C111.514 96.4885 109.138 94.8373 107.873 91.5994C107.81 91.425 107.756 91.2486 107.711 91.0701C107.737 90.7306 107.801 90.3974 107.902 90.0705C108.099 89.4807 108.344 88.9121 108.637 88.3652C109.127 87.5223 109.617 86.6797 110.107 85.8367C110.278 85.4977 110.439 85.1549 110.593 84.8077C110.854 84.6492 111.104 84.4728 111.342 84.2785C111.488 83.9883 111.424 83.7581 111.151 83.5875C111.056 83.5473 110.958 83.5376 110.857 83.5581C108.855 84.2876 106.856 85.0226 104.859 85.7632C104.016 85.9226 103.404 85.6236 103.022 84.8665C102.943 84.6254 102.972 84.3999 103.11 84.1903C104.469 82.8308 105.914 81.5812 107.447 80.4416C110.6 78.1689 113.834 76.0126 117.149 73.9734C117.537 73.6208 117.65 73.1945 117.487 72.6944C117.029 71.9644 116.578 71.2293 116.135 70.4893C115.351 69.1886 114.793 67.7968 114.459 66.3144C114.396 65.6234 114.694 65.1774 115.356 64.9766C115.602 64.9413 115.838 64.9804 116.061 65.0942C119.394 66.7551 122.231 69.0437 124.573 71.9594C126.087 73.8496 127.381 75.8883 128.454 78.0748C130.089 81.5715 131.402 85.1878 132.393 88.9239C133.048 91.4403 133.645 93.9688 134.187 96.5094C135.068 100.955 135.994 105.389 136.965 109.813C136.861 109.915 136.743 110.003 136.613 110.078C135.8 110.532 134.948 110.894 134.055 111.166C131.481 111.894 128.854 112.242 126.175 112.21C124.685 112.228 123.206 112.121 121.736 111.886Z" fill="#FEFEFE"/>
<path fill-rule="evenodd" clip-rule="evenodd" d="M100.773 65.1677C102.487 65.2671 104.202 65.3553 105.918 65.4323C105.918 65.6772 105.918 65.9224 105.918 66.1673C104.947 66.1212 103.977 66.0724 103.007 66.0203C102.916 66.0209 102.838 66.0406 102.772 66.0791C102.704 66.0603 102.655 66.0212 102.625 65.9615C102.029 65.6387 101.411 65.3741 100.773 65.1677Z" fill="#B8ADBB"/>
<path fill-rule="evenodd" clip-rule="evenodd" d="M112.327 65.5205C110.965 65.5205 109.603 65.5205 108.24 65.5205C108.24 65.7754 108.24 66.03 108.24 66.285C108.231 66.285 108.221 66.285 108.211 66.285C108.211 66.0203 108.211 65.7557 108.211 65.4911C109.588 65.4814 110.96 65.4911 112.327 65.5205Z" fill="#C4B8C9"/>
<path fill-rule="evenodd" clip-rule="evenodd" d="M112.327 65.5205C112.306 65.7257 112.296 65.9316 112.298 66.1379C112.298 66.1968 112.298 66.2556 112.298 66.3144C110.944 66.3238 109.592 66.3138 108.24 66.285C108.24 66.03 108.24 65.7754 108.24 65.5205C109.603 65.5205 110.965 65.5205 112.327 65.5205Z" fill="#EFEFEF"/>
<path fill-rule="evenodd" clip-rule="evenodd" d="M162.162 79.5449C161.539 79.9394 160.873 80.2482 160.163 80.471C159.35 80.6451 158.605 80.4931 157.928 80.0153C157.901 79.9803 157.891 79.9412 157.899 79.8977C158.167 76.2743 159.387 73.0205 161.559 70.1365C162.487 68.9831 163.57 68.0079 164.808 67.2111C166.289 66.3094 167.896 65.8877 169.63 65.9468C171.474 66.1094 173.051 66.8345 174.364 68.1225C172.729 67.7091 171.142 67.8465 169.601 68.5341C168.246 69.1733 167.065 70.0504 166.058 71.1655C163.986 73.5847 162.688 76.3778 162.162 79.5449Z" fill="#FEFEFE"/>
<path fill-rule="evenodd" clip-rule="evenodd" d="M105.918 65.4323C105.952 69.916 105.957 74.4047 105.932 78.8981C104.464 79.9738 103.082 81.1596 101.787 82.4556C101.465 82.7867 101.2 83.1592 100.993 83.5728C100.61 84.9615 100.958 86.1325 102.037 87.0863C102.912 87.7975 103.912 88.0768 105.036 87.9242C105.048 88.8745 105.146 89.8153 105.33 90.7467C96.3574 90.0446 87.39 89.329 78.4276 88.6004C78.457 88.6004 78.4864 88.6004 78.5158 88.6004C78.4911 87.5452 78.4323 86.4968 78.3394 85.4545C78.5402 85.229 78.7363 84.9988 78.9275 84.7636C79.7898 84.7404 80.6524 84.7304 81.5148 84.7342C82.6414 86.2239 84.1215 87.1548 85.9543 87.5273C87.5273 87.7184 88.978 87.3853 90.3057 86.5277C91.5326 85.6636 92.4979 84.571 93.2017 83.2494C94.4295 80.8665 94.9193 78.338 94.6718 75.6639C94.5395 74.1254 94.1523 72.6553 93.5104 71.2537C93.7233 71.5319 93.9144 71.8259 94.0838 72.1358C94.6377 73.1601 95.0099 74.248 95.201 75.3993C95.4968 77.3895 95.4868 79.3791 95.1716 81.3678C95.0317 82.0719 94.7817 82.7334 94.4219 83.3523C94.4295 83.3894 94.4492 83.4188 94.4807 83.4405C94.5983 83.4993 94.7159 83.5581 94.8335 83.6169C96.4679 84.1579 97.9574 83.8933 99.3025 82.8231C100.2 81.9843 100.842 80.9799 101.228 79.8095C101.606 78.5152 101.802 77.1922 101.816 75.8403C101.843 74.5467 101.867 73.253 101.89 71.9594C102.145 71.9664 102.399 71.9761 102.654 71.9888C103.449 71.9829 103.963 71.6007 104.198 70.8421C104.231 70.3926 104.246 69.9419 104.242 69.4897C104.246 69.0375 104.231 68.5868 104.198 68.1372C104.018 67.5951 103.661 67.2325 103.125 67.0494C103.154 67.0494 103.183 67.0494 103.213 67.0494C103.2 66.6622 103.053 66.3388 102.772 66.0791C102.838 66.0406 102.916 66.0209 103.007 66.0203C103.977 66.0724 104.947 66.1212 105.918 66.1673C105.918 65.9224 105.918 65.6772 105.918 65.4323Z" fill="#9F94A2"/>
<path fill-rule="evenodd" clip-rule="evenodd" d="M103.125 67.0494C103.661 67.2325 104.018 67.5951 104.198 68.1372C104.231 68.5868 104.246 69.0375 104.242 69.4897C104.246 69.9419 104.231 70.3926 104.198 70.8421C103.963 71.6007 103.449 71.9829 102.654 71.9888C102.399 71.9761 102.145 71.9664 101.89 71.9594C100.459 71.8597 99.0287 71.7568 97.5972 71.6507C96.9304 71.474 96.5238 71.0476 96.3771 70.3717C96.3671 69.5179 96.3868 68.6653 96.4359 67.8138C96.7466 66.9556 97.3591 66.5781 98.2734 66.6819C99.8928 66.7871 101.51 66.9094 103.125 67.0494Z" fill="#371A45"/>
<path fill-rule="evenodd" clip-rule="evenodd" d="M112.298 66.1379C112.425 67.2449 112.714 68.313 113.165 69.3427C113.18 69.4106 113.185 69.4791 113.18 69.5485C113.186 70.4061 113.205 71.2587 113.239 72.1064C113.264 72.7044 113.264 73.3021 113.239 73.8998C111.566 74.9751 109.91 76.0729 108.27 77.1928C108.25 74.7428 108.231 72.2925 108.211 69.8425C108.211 68.6567 108.211 67.4707 108.211 66.2849C108.221 66.2849 108.231 66.2849 108.24 66.2849C108.231 67.4613 108.24 68.6373 108.27 69.8131C109.663 68.7688 111 67.6515 112.283 66.4614C112.297 66.4134 112.302 66.3643 112.298 66.3143C112.298 66.2555 112.298 66.1967 112.298 66.1379Z" fill="#9F94A2"/>
<path fill-rule="evenodd" clip-rule="evenodd" d="M108.24 66.2849C109.592 66.3138 110.944 66.3238 112.298 66.3143C112.303 66.3643 112.298 66.4134 112.283 66.4613C111 67.6515 109.663 68.7688 108.27 69.8131C108.24 68.6373 108.231 67.4613 108.24 66.2849Z" fill="#CCCBCC"/>
<path fill-rule="evenodd" clip-rule="evenodd" d="M79.5449 72.7238C79.5781 72.9443 79.5537 73.1598 79.4714 73.3706C79.3482 73.6729 79.2306 73.9766 79.1186 74.2821C79.0889 74.3068 79.0545 74.3165 79.0157 74.3115C79.0068 74.4176 78.9724 74.5155 78.9128 74.6055C78.7193 74.858 78.4888 75.0686 78.2218 75.2376C78.1739 75.252 78.1248 75.257 78.0748 75.2523C78.0748 75.2817 78.0748 75.3111 78.0748 75.3405C77.7935 75.3967 77.5091 75.4114 77.2222 75.3846C77.1769 75.3058 77.1475 75.2226 77.134 75.1347C77.0755 73.0484 76.6295 71.0491 75.7962 69.1369C75.3349 68.1799 74.7322 67.3222 73.9881 66.5643C74.2885 66.6416 74.5826 66.7495 74.8701 66.8877C76.4119 67.6748 77.622 68.8164 78.5011 70.3129C78.9372 71.0762 79.285 71.8797 79.5449 72.7238Z" fill="#5F556D"/>
<path fill-rule="evenodd" clip-rule="evenodd" d="M68.6664 67.2846C68.9266 67.2552 69.1472 67.3337 69.328 67.5198C69.4329 67.713 69.4229 67.8991 69.2986 68.0784C69.2615 68.1446 69.2077 68.1837 69.1369 68.196C68.9999 68.4656 68.8282 68.7105 68.6223 68.9311C68.5771 68.989 68.5427 69.0525 68.5194 69.1222C68.4915 69.1363 68.4621 69.1413 68.4312 69.1369C68.4359 69.1771 68.4309 69.2165 68.4165 69.2545C68.2795 69.4306 68.1569 69.6167 68.049 69.8131C68.0249 69.8393 67.9955 69.849 67.9608 69.8425C67.9655 69.8828 67.9605 69.9222 67.9461 69.9601C66.3846 72.4718 65.7672 75.2061 66.0938 78.163C66.2217 79.001 66.4275 79.8145 66.7113 80.6033C66.8674 80.9373 67.0194 81.2707 67.167 81.603C67.1964 81.603 67.2258 81.603 67.2552 81.603C67.2552 81.6815 67.2552 81.7597 67.2552 81.8382C67.2846 81.8382 67.314 81.8382 67.3434 81.8382C67.3631 81.9167 67.3825 81.9949 67.4022 82.0734C67.4316 82.0734 67.461 82.0734 67.4904 82.0734C67.4904 82.1519 67.4904 82.2301 67.4904 82.3086C67.5198 82.3086 67.5492 82.3086 67.5786 82.3086C67.6292 82.507 67.693 82.7029 67.7697 82.8966C67.8905 83.4314 67.8123 83.9312 67.5345 84.3961C67.4425 84.4834 67.3396 84.5522 67.2258 84.6019C66.7277 84.1259 66.2914 83.5967 65.9174 83.0142C64.4835 80.6307 63.8955 78.0434 64.1534 75.2523C64.3518 73.0978 65.0771 71.1476 66.3291 69.4015C66.9327 68.6021 67.653 67.9208 68.49 67.3581C68.5462 67.3252 68.605 67.3005 68.6664 67.2846Z" fill="#5F556D"/>
<path fill-rule="evenodd" clip-rule="evenodd" d="M91.7464 71.2244C91.1175 70.3944 90.3627 69.7034 89.4825 69.1516C87.7263 68.1746 86.0799 68.3263 84.5431 69.6073C84.1153 69.5364 83.6843 69.502 83.2494 69.5044C84.0347 68.7097 84.9756 68.1905 86.0719 67.9461C87.5252 67.7544 88.8189 68.1172 89.9529 69.034C90.7006 69.6485 91.2983 70.3785 91.7464 71.2244Z" fill="#BDB9C5"/>
<path fill-rule="evenodd" clip-rule="evenodd" d="M102.654 68.2254C102.667 68.6876 102.652 69.1483 102.61 69.6073C102.445 70.0727 102.111 70.2982 101.61 70.2835C100.275 70.1668 98.937 70.0786 97.5972 70.0189C97.5925 69.3815 97.6072 68.7444 97.6413 68.1078C97.6651 68.0058 97.7286 67.942 97.8324 67.9167C99.4412 67.9952 101.048 68.0981 102.654 68.2254Z" fill="#FD8C08"/>
<path fill-rule="evenodd" clip-rule="evenodd" d="M91.7464 71.2244C91.946 71.5378 92.1127 71.8712 92.2462 72.224C92.2997 73.0787 92.275 73.9313 92.1727 74.7819C92.0348 75.5334 91.8681 76.2781 91.6729 77.0164C91.5594 77.2592 91.4515 77.5042 91.3495 77.7514C91.2177 77.9466 91.066 78.1231 90.8937 78.2806C90.8587 78.308 90.8196 78.3177 90.7761 78.31C90.722 78.4024 90.6438 78.4759 90.5409 78.5306C90.0191 78.7828 89.5289 78.7337 89.0709 78.3835C88.6469 77.9819 88.397 77.4868 88.3211 76.8988C88.3161 76.541 88.3014 76.1882 88.277 75.8403C88.2379 74.6946 88.0371 73.5773 87.6743 72.4886C87.1404 70.9697 86.0966 70.0092 84.5431 69.6073C86.0799 68.3263 87.7263 68.1746 89.4825 69.1516C90.3628 69.7034 91.1175 70.3944 91.7464 71.2244Z" fill="#5F556D"/>
<path fill-rule="evenodd" clip-rule="evenodd" d="M102.654 68.2254C102.805 68.2298 102.917 68.2983 102.992 68.4312C103.012 69.1466 103.012 69.8622 102.992 70.5775C102.958 70.651 102.904 70.7048 102.831 70.7392C102.448 70.7463 102.066 70.7363 101.684 70.7098C100.431 70.6096 99.176 70.5214 97.9206 70.4452C97.6628 70.4179 97.5552 70.2756 97.5972 70.0189C98.937 70.0786 100.275 70.1668 101.61 70.2835C102.111 70.2982 102.445 70.0727 102.61 69.6073C102.652 69.1483 102.667 68.6876 102.654 68.2254Z" fill="#C36A1A"/>
<path fill-rule="evenodd" clip-rule="evenodd" d="M108.211 69.8425C108.231 72.2925 108.25 74.7428 108.27 77.1928C108.268 77.2087 108.258 77.2187 108.24 77.2222C108.211 74.7625 108.201 72.3025 108.211 69.8425Z" fill="#867490"/>
<path fill-rule="evenodd" clip-rule="evenodd" d="M178.833 78.31C178.849 78.4832 178.805 78.6402 178.7 78.7804C177.87 80.3458 176.788 81.7129 175.452 82.8819C174.215 83.9115 172.804 84.5978 171.218 84.94C168.495 85.3395 166.304 84.4528 164.647 82.2792C164.5 82.0537 164.353 81.8285 164.206 81.603C164.163 81.5271 164.129 81.4489 164.103 81.3677C164.325 78.47 165.261 75.8336 166.91 73.4588C167.69 72.3654 168.656 71.4784 169.806 70.798C171.199 70.0062 172.66 69.8495 174.187 70.3276C175.038 70.6587 175.768 71.1632 176.378 71.8418C177.505 73.1828 178.24 74.7213 178.583 76.4577C178.707 77.0699 178.791 77.6873 178.833 78.31Z" fill="#FEFEFE"/>
<path fill-rule="evenodd" clip-rule="evenodd" d="M71.5478 70.2541C71.87 70.1924 72.1296 70.2906 72.3269 70.5481C72.6356 71.1076 72.6553 71.676 72.3857 72.2534C72.1308 72.6089 71.783 72.8 71.342 72.8267C71.1438 72.9267 70.9821 73.069 70.8568 73.253C70.6954 73.5515 70.4943 73.8211 70.2541 74.0616C69.804 74.3227 69.4759 74.2197 69.2692 73.7529C69.1369 73.2583 69.1957 72.7879 69.4456 72.3416C69.7987 71.6907 70.2544 71.1173 70.8127 70.6216C70.761 70.6175 70.7122 70.6322 70.6657 70.6657C70.6304 70.6554 70.6304 70.6407 70.6657 70.6216C70.9468 70.4611 71.2408 70.3388 71.5478 70.2541Z" fill="#AFA2B4"/>
<path fill-rule="evenodd" clip-rule="evenodd" d="M113.18 69.5485C113.225 69.9936 113.255 70.4446 113.268 70.9009C113.241 71.3023 113.231 71.7039 113.239 72.1064C113.205 71.2587 113.186 70.4061 113.18 69.5485Z" fill="#432C4E"/>
<path fill-rule="evenodd" clip-rule="evenodd" d="M85.8367 72.224C85.835 72.2399 85.8253 72.2499 85.8073 72.2534C85.379 72.0064 84.9185 71.8447 84.4255 71.7683C83.2591 71.7536 82.0931 71.7486 80.9267 71.7536C80.8385 71.5181 80.7503 71.2828 80.6621 71.0479C81.7303 71.0429 82.7987 71.0479 83.8669 71.0626C84.7051 71.1529 85.3616 71.5401 85.8367 72.224Z" fill="#EEEDEE"/>
<path fill-rule="evenodd" clip-rule="evenodd" d="M80.9267 71.7536C82.0931 71.7486 83.2591 71.7536 84.4255 71.7683C84.9185 71.8447 85.379 72.0064 85.8073 72.2534C85.8253 72.2498 85.835 72.2399 85.8367 72.224C86.0302 72.4992 86.1672 72.8029 86.2483 73.1354C86.3998 74.17 86.0275 74.9492 85.1311 75.4728C84.4334 75.8218 83.6934 75.9738 82.9113 75.9285C82.5132 75.9288 82.1163 75.9091 81.7206 75.8697C81.6744 74.4532 81.4098 73.0813 80.9267 71.7536Z" fill="#CBCBCB"/>
<path fill-rule="evenodd" clip-rule="evenodd" d="M79.5449 72.7238C80.0212 74.2327 80.2026 75.7812 80.0888 77.3692C79.9239 80.0453 78.9733 82.3874 77.2369 84.3961C77.2072 84.4208 77.1728 84.4305 77.134 84.4255C77.0849 84.5334 77.0067 84.6116 76.8988 84.6607C76.9032 84.6916 76.8982 84.721 76.8841 84.7489C76.0764 85.508 75.1503 86.0767 74.1057 86.4542C74.073 86.4183 74.068 86.3789 74.091 86.3366C74.4094 85.9737 74.6887 85.5818 74.9289 85.1605C74.953 85.1343 74.9824 85.1246 75.0171 85.1311C75.0124 85.0811 75.0174 85.032 75.0318 84.9841C75.6389 83.9201 76.0994 82.7931 76.4137 81.603C77.0029 79.4861 77.2431 77.3298 77.134 75.1347C77.1475 75.2226 77.1769 75.3058 77.2222 75.3846C77.5091 75.4114 77.7935 75.3967 78.0748 75.3405C78.0748 75.3111 78.0748 75.2817 78.0748 75.2523C78.1248 75.257 78.1739 75.252 78.2218 75.2376C78.4888 75.0686 78.7193 74.858 78.9128 74.6055C78.9724 74.5155 79.0068 74.4176 79.0157 74.3115C79.0545 74.3165 79.0889 74.3068 79.1186 74.2821C79.2306 73.9766 79.3482 73.6729 79.4714 73.3706C79.5537 73.1598 79.5781 72.9443 79.5449 72.7238Z" fill="#4E3D5D"/>
<path fill-rule="evenodd" clip-rule="evenodd" d="M92.2462 72.224C92.3629 72.4604 92.4658 72.7053 92.5549 72.959C92.8295 73.8314 93.0206 74.7231 93.1282 75.6345C93.1559 77.1878 92.9354 78.707 92.4667 80.1917C91.9422 81.7168 91.1437 83.0739 90.0705 84.2638C89.6612 84.6198 89.2202 84.9235 88.7475 85.1752C87.5617 85.5654 86.366 85.5851 85.1605 85.234C84.8297 85.1273 84.5063 85.0047 84.1903 84.8665C84.0503 84.7342 83.8836 84.6754 83.6905 84.6901C84.9191 84.556 85.9188 84.0071 86.6894 83.0436C86.7135 83.0175 86.7429 83.0078 86.7776 83.0142C86.7729 82.974 86.7779 82.9346 86.7923 82.8966C86.9699 82.6591 87.1169 82.4045 87.2333 82.1322C88.0177 80.1117 88.3655 78.0146 88.277 75.8403C88.3014 76.1882 88.3161 76.541 88.3211 76.8988C88.397 77.4868 88.6469 77.9819 89.0709 78.3835C89.5289 78.7337 90.0191 78.7828 90.5409 78.5306C90.6438 78.4759 90.722 78.4024 90.7761 78.31C90.8197 78.3177 90.8588 78.308 90.8937 78.2806C91.066 78.1231 91.2177 77.9466 91.3495 77.7514C91.4515 77.5042 91.5594 77.2592 91.6729 77.0164C91.8681 76.2781 92.0348 75.5334 92.1727 74.7819C92.275 73.9313 92.2997 73.0787 92.2462 72.224Z" fill="#4E3E5D"/>
<path fill-rule="evenodd" clip-rule="evenodd" d="M86.2483 73.1354C86.4912 73.8164 86.6429 74.522 86.7041 75.2523C86.8919 77.4547 86.5785 79.5816 85.7632 81.6324C85.6865 81.7764 85.6033 81.9134 85.5133 82.044C85.5154 82.031 85.5104 82.0213 85.4986 82.0146C85.0238 82.3101 84.5093 82.5012 83.9551 82.5879C82.7002 82.6476 81.4457 82.7017 80.1917 82.7496C81.2757 80.5889 81.7852 78.2956 81.7206 75.8697C82.1163 75.9091 82.5132 75.9288 82.9113 75.9285C83.6934 75.9738 84.4334 75.8218 85.1311 75.4728C86.0275 74.9492 86.3998 74.17 86.2483 73.1354Z" fill="#9F94A2"/>
<path fill-rule="evenodd" clip-rule="evenodd" d="M69.0487 75.0465C69.7428 75.0206 70.0418 75.3537 69.9454 76.0461C69.7469 76.5495 69.3794 76.77 68.8429 76.7077C68.4889 76.4742 68.3566 76.1458 68.4459 75.7227C68.4753 75.6639 68.5047 75.6051 68.5341 75.5463C68.6482 75.4387 68.7411 75.3164 68.8135 75.1788C68.8899 75.1259 68.9684 75.0818 69.0487 75.0465Z" fill="#AFA2B4"/>
<path fill-rule="evenodd" clip-rule="evenodd" d="M152.107 76.6342C151.155 77.9525 150.136 79.2362 149.049 80.4857C148.685 80.0656 148.464 79.5758 148.388 79.0157C148.225 77.8961 148.593 76.9993 149.49 76.3255C150.436 75.833 151.308 75.9359 152.107 76.6342Z" fill="#9B8CA1"/>
<path fill-rule="evenodd" clip-rule="evenodd" d="M152.107 76.6342C152.117 76.6342 152.127 76.6342 152.136 76.6342C152.815 77.3033 153.134 78.1169 153.092 79.0745C153.02 80.0565 152.555 80.7768 151.695 81.2354C150.646 81.6003 149.764 81.3604 149.049 80.5151C149.049 80.5054 149.049 80.4954 149.049 80.4857C150.136 79.2362 151.155 77.9525 152.107 76.6342Z" fill="#918696"/>
<path fill-rule="evenodd" clip-rule="evenodd" d="M178.833 78.31C179.048 81.5424 178.396 84.5901 176.877 87.4538C176.098 88.8512 175.074 90.042 173.805 91.026C172.623 91.8875 171.3 92.2797 169.836 92.2021C168.787 92.0498 167.866 91.6285 167.072 90.9378C166.04 89.9632 165.29 88.8018 164.823 87.4538C164.146 85.4736 163.906 83.4449 164.103 81.3678C164.129 81.4489 164.163 81.5271 164.206 81.603C164.353 81.8285 164.5 82.0537 164.647 82.2792C166.304 84.4528 168.495 85.3396 171.218 84.94C172.804 84.5978 174.215 83.9115 175.452 82.8819C176.788 81.7129 177.87 80.3458 178.7 78.7804C178.805 78.6402 178.849 78.4832 178.833 78.31Z" fill="#C3B8C6"/>
<path fill-rule="evenodd" clip-rule="evenodd" d="M162.162 79.5449C161.711 82.1372 161.824 84.7051 162.5 87.248C162.983 89.0018 163.816 90.56 164.999 91.9228C165.634 92.6117 166.364 93.1703 167.19 93.5987C166.891 93.6278 166.587 93.6378 166.278 93.6281C165.046 93.5357 163.909 93.1582 162.868 92.4961C161.432 91.5209 160.32 90.2616 159.531 88.7181C158.376 86.3754 157.812 83.8957 157.84 81.2796C157.836 80.8133 157.855 80.3525 157.899 79.8977C157.891 79.9412 157.901 79.9803 157.928 80.0153C158.605 80.4931 159.35 80.6451 160.163 80.471C160.873 80.2482 161.539 79.9395 162.162 79.5449Z" fill="#C3B8C6"/>
<path fill-rule="evenodd" clip-rule="evenodd" d="M67.2258 84.6019C67.3396 84.5522 67.4425 84.4834 67.5345 84.3961C67.8123 83.9312 67.8905 83.4314 67.7697 82.8966C67.693 82.7029 67.6292 82.5071 67.5786 82.3086C67.5492 82.3086 67.5198 82.3086 67.4904 82.3086C67.4904 82.2301 67.4904 82.1519 67.4904 82.0734C67.461 82.0734 67.4316 82.0734 67.4022 82.0734C67.3825 81.9949 67.3631 81.9167 67.3434 81.8382C67.314 81.8382 67.2846 81.8382 67.2552 81.8382C67.2552 81.7597 67.2552 81.6815 67.2552 81.603C67.2258 81.603 67.1964 81.603 67.167 81.603C67.0194 81.2707 66.8674 80.9373 66.7113 80.6033C66.4275 79.8145 66.2217 79.001 66.0938 78.163C65.7672 75.2062 66.3846 72.4718 67.9461 69.9601C67.9605 69.9222 67.9655 69.8828 67.9608 69.8425C67.9955 69.849 68.0249 69.8393 68.049 69.8131C68.1569 69.6167 68.2795 69.4306 68.4165 69.2545C68.4309 69.2165 68.4359 69.1771 68.4312 69.1369C68.4621 69.1413 68.4915 69.1363 68.5194 69.1222C68.5427 69.0525 68.5771 68.989 68.6223 68.9311C68.8282 68.7106 68.9999 68.4656 69.1369 68.196C69.2077 68.1837 69.2615 68.1446 69.2986 68.0784C69.4229 67.8991 69.4329 67.713 69.328 67.5198C69.1472 67.3337 68.9266 67.2552 68.6664 67.2846C69.5529 66.6869 70.5331 66.3685 71.6066 66.3291C71.9841 66.5325 72.3369 66.7727 72.665 67.0494C71.2349 67.593 70.0101 68.4359 68.9899 69.5779C68.9658 69.6041 68.9363 69.6138 68.9017 69.6073C68.9061 69.6382 68.9011 69.6676 68.887 69.6955C67.4719 71.3611 66.6386 73.2918 66.3879 75.4875C66.0988 78.1189 66.7066 80.5101 68.2107 82.6614C68.8825 83.5587 69.6814 84.3282 70.6069 84.9694C70.985 85.2026 71.3672 85.4281 71.7536 85.6456C71.8418 85.675 71.93 85.7044 72.0182 85.7338C72.2293 85.8541 72.4448 85.9667 72.665 86.0719C72.3675 86.356 72.0244 86.5665 71.636 86.7041C70.9318 86.6903 70.2556 86.5432 69.6073 86.2631C68.6973 85.8676 67.9035 85.314 67.2258 84.6019Z" fill="#4E3D5D"/>
<path fill-rule="evenodd" clip-rule="evenodd" d="M85.5133 82.044C85.0835 82.6347 84.5052 82.9922 83.7787 83.1171C82.7502 83.1554 81.7212 83.1798 80.6915 83.1906C80.4563 83.1809 80.2211 83.1709 79.9859 83.1612C80.055 83.0233 80.1235 82.886 80.1917 82.7496C81.4457 82.7017 82.7002 82.6476 83.9551 82.5879C84.5093 82.5012 85.0238 82.3101 85.4986 82.0146C85.5104 82.0213 85.5154 82.0311 85.5133 82.044Z" fill="#CBCACB"/>
<path fill-rule="evenodd" clip-rule="evenodd" d="M93.1282 75.6345C93.3464 77.9096 92.9886 80.0853 92.0551 82.1616C91.6008 83.0962 90.9981 83.9245 90.2469 84.646C89.5225 85.3022 88.6795 85.7432 87.7184 85.969C86.1257 86.2157 84.7439 85.7941 83.5728 84.7048C83.6108 84.6904 83.6502 84.6854 83.6904 84.6901C83.8836 84.6754 84.0503 84.7342 84.1903 84.8665C84.5063 85.0047 84.8297 85.1273 85.1605 85.234C86.3659 85.5851 87.5617 85.5654 88.7474 85.1752C89.2202 84.9235 89.6612 84.6198 90.0705 84.2638C91.1436 83.0739 91.9422 81.7167 92.4667 80.1917C92.9353 78.7069 93.1559 77.1878 93.1282 75.6345Z" fill="#5F546D"/>
<path fill-rule="evenodd" clip-rule="evenodd" d="M110.593 84.8077C110.439 85.1549 110.278 85.4977 110.107 85.8367C109.617 86.6797 109.127 87.5223 108.637 88.3652C108.344 88.9121 108.099 89.4807 107.902 90.0705C107.801 90.3974 107.737 90.7306 107.711 91.0701C107.288 89.7515 107.136 88.399 107.255 87.0128C108.364 86.2713 109.477 85.5363 110.593 84.8077Z" fill="#C3B8C6"/>
<path fill-rule="evenodd" clip-rule="evenodd" d="M78.3394 85.4545C78.4323 86.4968 78.4911 87.5452 78.5158 88.6004C78.4864 88.6004 78.457 88.6004 78.4276 88.6004C78.275 88.6098 78.128 88.6001 77.9866 88.571C78.016 88.571 78.0454 88.571 78.0748 88.571C78.0831 87.669 78.1028 86.7673 78.1336 85.8661C78.1319 85.8032 78.1125 85.7541 78.0748 85.7191C78.1533 85.6212 78.2415 85.533 78.3394 85.4545Z" fill="#CBCBCB"/>
<path fill-rule="evenodd" clip-rule="evenodd" d="M78.0748 85.7191C78.1125 85.7541 78.1319 85.8032 78.1336 85.8661C78.1028 86.7673 78.0831 87.669 78.0748 88.571C78.0454 88.571 78.016 88.571 77.9866 88.571C77.7996 88.5716 77.6135 88.5619 77.428 88.5416C77.3862 88.5137 77.3371 88.504 77.281 88.5122C77.281 88.1691 77.281 87.8263 77.281 87.4832C77.276 87.1304 77.281 86.7776 77.2957 86.4248C77.5691 86.2051 77.829 85.9699 78.0748 85.7191Z" fill="#EEEEEE"/>
<path fill-rule="evenodd" clip-rule="evenodd" d="M77.1634 90.8055C77.6917 91.2271 78.211 91.6632 78.7216 92.1139C82.1395 95.326 85.4766 98.6336 88.7327 102.037C88.8036 102.122 88.8674 102.21 88.9239 102.301C87.7784 103.168 86.5141 103.82 85.1311 104.257C82.106 105.208 79.0286 105.424 75.8991 104.903C74.3879 104.647 72.9961 104.098 71.7242 103.257C71.4943 103.081 71.2784 102.89 71.0773 102.684C70.7586 101.653 70.5087 100.605 70.3276 99.5377C70.3129 99.391 70.3079 99.244 70.3129 99.0967C70.5508 96.5799 70.9086 94.0808 71.3861 91.5994C71.5975 90.4992 71.818 89.4016 72.0476 88.3064C72.4912 88.3061 72.9323 88.272 73.3706 88.2035C73.9193 88.0933 74.4582 87.9513 74.9877 87.7772C74.9624 88.4631 74.9574 89.1491 74.973 89.8353C75.1053 90.2813 75.3943 90.5703 75.8403 90.7026C76.2816 90.7359 76.7227 90.77 77.1634 90.8055Z" fill="#FEFEFE"/>
<path fill-rule="evenodd" clip-rule="evenodd" d="M77.281 87.4832C77.281 87.8263 77.281 88.1691 77.281 88.5122C77.3372 88.504 77.3863 88.5137 77.428 88.5416C77.3692 88.5416 77.3104 88.5416 77.2516 88.5416C77.2419 88.1835 77.2516 87.8307 77.281 87.4832Z" fill="#8C7F94"/>
<path fill-rule="evenodd" clip-rule="evenodd" d="M156.782 87.9242C156.985 88.3596 157.181 88.8007 157.37 89.2473C157.376 89.3028 157.356 89.3469 157.311 89.3796C156.421 90.1422 155.505 90.8726 154.562 91.57C154.55 91.5632 154.545 91.5535 154.547 91.5406C155.362 90.3819 156.107 89.1764 156.782 87.9242Z" fill="#FCFCFC"/>
<path fill-rule="evenodd" clip-rule="evenodd" d="M157.37 89.2473C157.764 90.0385 158.225 90.7882 158.752 91.4965C155.202 97.1729 150.459 101.554 144.521 104.639C142.607 105.625 140.618 106.434 138.553 107.064C138.347 105.973 138.121 104.885 137.877 103.801C137.899 103.781 137.918 103.761 137.936 103.742C138.771 103.465 139.594 103.157 140.405 102.816C146.163 100.359 150.877 96.6011 154.547 91.5406C154.545 91.5535 154.55 91.5632 154.562 91.57C155.505 90.8726 156.421 90.1422 157.311 89.3796C157.356 89.3469 157.376 89.3028 157.37 89.2473Z" fill="#C3B8C6"/>
<path fill-rule="evenodd" clip-rule="evenodd" d="M77.1634 90.8055C81.2978 91.1439 85.4336 91.4674 89.5707 91.7758C89.618 95.049 89.6524 98.3225 89.6736 101.596C89.4363 101.848 89.1864 102.083 88.9239 102.301C88.8674 102.21 88.8036 102.122 88.7328 102.037C85.4766 98.6336 82.1395 95.326 78.7217 92.1139C78.211 91.6632 77.6917 91.2271 77.1634 90.8055Z" fill="#C3B8C6"/>
<path fill-rule="evenodd" clip-rule="evenodd" d="M91.864 91.9816C92.5793 92.0333 93.2946 92.0871 94.0103 92.1433C95.328 94.3237 96.8275 96.3718 98.5086 98.2881C96.2492 98.638 94.0735 99.2701 91.9816 100.185C91.9295 97.4505 91.8904 94.7162 91.864 91.9816Z" fill="#A4A3F3"/>
<path fill-rule="evenodd" clip-rule="evenodd" d="M113.797 103.889C108.768 102.34 104.191 99.9684 100.067 96.774C99.8308 96.6143 99.63 96.4182 99.4642 96.1859C99.3583 96.1119 99.2651 96.0237 99.1849 95.9213C99.0399 95.6882 98.8732 95.4727 98.6851 95.2745C98.5986 95.1281 98.4957 94.9908 98.3763 94.8629C98.3349 94.7997 98.3102 94.7309 98.3028 94.6571C98.2346 94.6009 98.1561 94.5618 98.0676 94.5395C98.0764 94.4777 98.0667 94.4189 98.0382 94.3631C97.9271 94.2913 97.8489 94.1931 97.803 94.0691C97.4946 93.7115 97.2203 93.3293 96.9798 92.9224C96.9945 92.9127 97.0092 92.9027 97.0239 92.893C97.576 93.0712 98.1297 93.2526 98.6851 93.4369C99.7091 93.6968 100.728 93.9615 101.743 94.2308C103.638 94.6383 105.549 94.9764 107.476 95.2451C107.532 95.3357 107.576 95.4336 107.608 95.5391C107.662 95.5856 107.721 95.6247 107.785 95.6567C107.891 95.7746 107.984 95.9022 108.064 96.0389C108.099 96.0663 108.138 96.076 108.182 96.0683C108.226 96.2156 108.324 96.3085 108.476 96.3477C108.504 96.3894 108.528 96.4335 108.549 96.48C108.847 96.7125 109.145 96.9427 109.446 97.1709C109.494 97.1853 109.543 97.1903 109.593 97.1856C109.588 97.2244 109.598 97.2588 109.622 97.2885C109.838 97.3967 110.054 97.5043 110.269 97.6119C110.323 97.666 110.382 97.7151 110.446 97.7589C110.643 97.8527 110.849 97.9312 111.063 97.9941C111.136 98.0382 111.209 98.0823 111.283 98.1264C111.631 98.2414 111.978 98.354 112.327 98.4645C112.777 98.5504 113.228 98.6239 113.68 98.685C113.699 100.352 113.748 102.018 113.827 103.683C113.827 103.758 113.817 103.826 113.797 103.889Z" fill="#220F2D"/>
<path fill-rule="evenodd" clip-rule="evenodd" d="M160.104 93.0694C160.997 93.8879 161.996 94.5495 163.103 95.054C163.468 95.2066 163.84 95.3389 164.22 95.4509C159.817 100.887 154.398 104.979 147.961 107.726C147.696 107.682 147.431 107.623 147.168 107.549C146.054 107.356 144.937 107.336 143.816 107.491C143.332 107.591 142.851 107.699 142.375 107.814C149.246 104.965 154.847 100.521 159.178 94.4807C159.494 94.0144 159.803 93.544 160.104 93.0694Z" fill="#C3B8C6"/>
<path fill-rule="evenodd" clip-rule="evenodd" d="M167.19 93.5986C167.213 93.6069 167.233 93.6216 167.249 93.6427C166.92 93.6672 166.597 93.6622 166.278 93.628C166.587 93.6378 166.891 93.6278 167.19 93.5986Z" fill="#93829C"/>
<path fill-rule="evenodd" clip-rule="evenodd" d="M120.177 97.5972C120.694 102.36 121.213 107.123 121.736 111.886C120.372 111.685 119.059 111.308 117.796 110.754C117.343 110.536 116.922 110.271 116.532 109.96C116.467 109.905 116.413 109.842 116.37 109.769C116.07 106.061 115.918 102.347 115.914 98.6262C116.988 98.5419 118.036 98.3311 119.06 97.9941C119.435 97.8645 119.807 97.7321 120.177 97.5972Z" fill="#C3B8C6"/>
<path fill-rule="evenodd" clip-rule="evenodd" d="M100.067 96.774C104.191 99.9684 108.768 102.34 113.797 103.889C113.812 103.918 113.826 103.947 113.841 103.977C113.889 105.056 113.938 106.134 113.988 107.211C108.624 104.711 103.974 101.236 100.037 96.7887C100.044 96.7769 100.054 96.7719 100.067 96.774Z" fill="#C3B8C6"/>
<path fill-rule="evenodd" clip-rule="evenodd" d="M99.9199 111.857C96.2456 113.209 92.492 114.292 88.6592 115.106C87.0489 115.442 85.4222 115.589 83.7786 115.547C82.0075 115.485 80.3905 114.966 78.9275 113.988C78.1113 113.349 77.3712 112.628 76.7077 111.827C76.0226 110.946 75.3364 110.064 74.6496 109.181C74.0048 108.313 73.3974 107.421 72.8267 106.506C72.8111 106.467 72.8258 106.448 72.8708 106.447C74.4861 107.023 76.152 107.351 77.869 107.432C80.8865 107.573 83.8169 107.142 86.66 106.138C87.8748 105.688 89.0021 105.085 90.0411 104.33C90.1152 104.955 90.169 105.582 90.2028 106.212C90.2357 106.863 90.5544 107.074 91.1583 106.844C91.2806 106.751 91.3542 106.629 91.3788 106.476C91.4691 105.264 91.5623 104.054 91.6582 102.845C94.4319 101.467 97.3623 100.643 100.449 100.376C104.44 104.321 109.017 107.413 114.179 109.652C114.386 111.791 114.626 113.928 114.9 116.061C115.056 117.163 115.238 118.261 115.444 119.354C112.316 118.626 109.19 117.895 106.065 117.164C103.569 116.896 101.594 117.773 100.14 119.795C99.8858 120.216 99.67 120.657 99.4936 121.118C99.1752 122.431 98.8565 123.745 98.538 125.058C97.9418 125.116 97.3438 125.131 96.7446 125.102C96.7172 125.091 96.6978 125.071 96.6858 125.043C98.3719 120.245 100.337 115.566 102.581 111.004C102.719 110.365 102.479 109.938 101.86 109.725C101.401 109.637 101.033 109.779 100.758 110.152C100.47 110.717 100.191 111.286 99.9199 111.857Z" fill="#FEFEFE"/>
<path fill-rule="evenodd" clip-rule="evenodd" d="M70.3129 99.0967C70.3079 99.244 70.3129 99.391 70.3276 99.5377C70.5087 100.605 70.7586 101.653 71.0773 102.684C70.6981 102.337 70.3894 101.935 70.1512 101.478C70.175 100.678 70.2288 99.8846 70.3129 99.0967Z" fill="#C2B8C6"/>
<path fill-rule="evenodd" clip-rule="evenodd" d="M72.8708 106.447C72.8258 106.448 72.8111 106.467 72.8267 106.506C73.3974 107.421 74.0048 108.313 74.6496 109.181C75.3364 110.064 76.0226 110.946 76.7077 111.827C77.3713 112.628 78.1113 113.349 78.9275 113.988C80.3905 114.966 82.0075 115.485 83.7787 115.547C85.4222 115.589 87.0489 115.442 88.6592 115.106C92.492 114.292 96.2456 113.209 99.9199 111.857C98.1811 115.533 96.6131 119.286 95.2157 123.117C91.8419 123.397 88.4805 123.294 85.1311 122.809C82.8419 122.472 80.6468 121.825 78.5452 120.868C76.902 120.088 75.4564 119.034 74.2086 117.708C73.2557 116.626 72.5109 115.411 71.9741 114.062C70.7974 111.139 70.19 108.101 70.1512 104.948C70.9815 105.581 71.8882 106.081 72.8708 106.447Z" fill="#C3B8C6"/>
<path fill-rule="evenodd" clip-rule="evenodd" d="M171.012 135.584C170.581 137.562 170.101 139.532 169.571 141.493C166.357 141.157 163.142 140.818 159.928 140.479C159.35 140.418 158.772 140.374 158.193 140.347C158.459 138.492 158.661 136.63 158.796 134.76C159.042 131.293 158.895 127.843 158.355 124.411C158.139 123.223 157.874 122.047 157.561 120.883C157.501 120.659 157.427 120.443 157.34 120.236C157.08 118.381 156.595 116.588 155.885 114.856C154.785 112.266 153.006 110.291 150.549 108.931C151.706 108.367 152.843 107.765 153.959 107.123C156.553 107.937 159.091 108.893 161.574 109.99C163.41 110.809 165.154 111.779 166.808 112.901C167.527 113.414 168.203 113.982 168.836 114.606C164.627 113.759 160.374 113.269 156.076 113.136C155.743 113.323 155.66 113.592 155.826 113.944C155.926 114.075 156.059 114.149 156.223 114.165C159.444 114.532 162.638 115.051 165.808 115.723C167.409 116.08 168.972 116.556 170.497 117.149C170.628 117.59 170.741 118.036 170.836 118.487C171.183 120.456 171.394 122.441 171.468 124.44C171.56 128.166 171.408 131.88 171.012 135.584Z" fill="#FEFEFE"/>
<path fill-rule="evenodd" clip-rule="evenodd" d="M140.846 108.387C140.877 108.383 140.907 108.388 140.935 108.402C140.298 108.687 139.69 109.02 139.112 109.402C139.087 109.422 139.068 109.417 139.053 109.387C139.032 109.285 139.013 109.182 138.994 109.078C139.004 109.064 139.014 109.049 139.023 109.034C139.64 108.835 140.248 108.62 140.846 108.387Z" fill="#BFB5C4"/>
<path fill-rule="evenodd" clip-rule="evenodd" d="M146.58 109.652C145.564 109.746 144.614 110.045 143.728 110.548C142.638 111.196 141.683 112.005 140.861 112.974C140.205 113.758 139.592 114.571 139.023 115.414C139.111 114.28 139.155 113.143 139.156 112.004C140.348 111.067 141.666 110.346 143.11 109.843C144.256 109.508 145.412 109.445 146.58 109.652Z" fill="#C3B8C6"/>
<path fill-rule="evenodd" clip-rule="evenodd" d="M146.58 109.652C147.168 109.755 147.737 109.926 148.285 110.166C149.509 110.744 150.616 111.488 151.607 112.401C151.74 112.472 151.868 112.55 151.989 112.636C151.944 112.725 151.929 112.818 151.945 112.915C152.728 113.871 153.345 114.93 153.798 116.091C154.501 117.96 154.942 119.891 155.121 121.883C155.418 125.328 155.359 128.768 154.944 132.202C154.811 133.313 154.66 134.42 154.488 135.525C153.381 136.052 152.215 136.243 150.99 136.098C149.959 135.99 148.95 135.784 147.961 135.481C147.222 135.152 146.859 134.589 146.874 133.79C146.997 133.546 146.939 133.364 146.697 133.246C144.135 132.955 141.567 132.725 138.994 132.555C136.492 131.935 134.042 131.146 131.644 130.188C130.285 129.642 129.002 128.966 127.792 128.16C125.918 126.845 124.561 125.125 123.72 123C123.091 121.297 122.659 119.542 122.427 117.737C122.272 116.562 122.13 115.386 122 114.209C122.004 114.164 122.024 114.134 122.059 114.121C125.689 114.558 129.296 114.416 132.879 113.694C134.473 113.372 135.992 112.838 137.436 112.092C137.453 112.098 137.468 112.108 137.48 112.121C137.818 113.643 138.024 115.181 138.097 116.737C138.206 116.926 138.368 117 138.582 116.958C138.722 116.926 138.815 116.843 138.862 116.708C138.921 116.277 138.974 115.846 139.023 115.414C139.592 114.571 140.205 113.758 140.861 112.974C141.683 112.005 142.638 111.196 143.728 110.548C144.614 110.045 145.564 109.746 146.58 109.652Z" fill="#FEFEFE"/>
<path fill-rule="evenodd" clip-rule="evenodd" d="M122.059 114.121C122.024 114.134 122.004 114.164 122 114.209C122.13 115.386 122.272 116.562 122.426 117.737C122.659 119.542 123.091 121.297 123.72 123C124.561 125.125 125.918 126.845 127.792 128.16C129.002 128.966 130.285 129.642 131.644 130.188C134.042 131.146 136.492 131.935 138.994 132.555C136.238 132.386 133.504 132.048 130.791 131.541C129.029 131.193 127.323 130.664 125.675 129.953C121.649 128.161 119.056 125.137 117.899 120.883C117.609 119.719 117.384 118.543 117.222 117.355C116.981 115.762 116.784 114.165 116.634 112.562C117.414 112.973 118.232 113.291 119.089 113.518C120.07 113.78 121.06 113.981 122.059 114.121Z" fill="#C3B8C6"/>
<path fill-rule="evenodd" clip-rule="evenodd" d="M110.828 140.876C107.815 140.328 104.894 139.471 102.066 138.303C100.655 137.691 99.3219 136.951 98.0676 136.083C99.1646 131.358 100.267 126.634 101.375 121.912C101.878 120.449 102.882 119.542 104.389 119.192C104.971 119.086 105.549 119.106 106.124 119.251C107.525 119.585 108.926 119.914 110.328 120.236C109.582 123.561 108.823 126.883 108.049 130.203C107.629 132.579 108.286 134.597 110.019 136.26C111.071 137.655 111.34 139.193 110.828 140.876Z" fill="#FEFEFE"/>
<path fill-rule="evenodd" clip-rule="evenodd" d="M118.942 141.611C117.438 141.717 115.929 141.673 114.415 141.478C113.73 141.381 113.044 141.287 112.357 141.199C112.357 141.16 112.357 141.121 112.357 141.082C112.989 138.515 112.357 136.32 110.46 134.496C109.546 133.308 109.242 131.975 109.549 130.497C110.308 127.196 111.068 123.893 111.827 120.589C113.217 120.926 114.608 121.255 116.002 121.574C116.698 123.961 117.869 126.073 119.516 127.91C120.572 129.025 121.762 129.961 123.088 130.718C121.834 130.344 120.648 130.501 119.53 131.188C118.069 132.183 117.143 133.55 116.752 135.29C116.427 136.753 116.555 138.174 117.134 139.553C117.534 140.418 118.137 141.104 118.942 141.611Z" fill="#FEFEFE"/>
<path fill-rule="evenodd" clip-rule="evenodd" d="M157.34 120.236C157.427 120.443 157.501 120.659 157.561 120.883C157.874 122.047 158.139 123.223 158.355 124.411C158.895 127.843 159.042 131.293 158.796 134.76C158.661 136.63 158.459 138.492 158.193 140.347C158.113 140.349 158.035 140.359 157.958 140.376C157.747 139.082 157.212 137.945 156.355 136.965C156.604 135.45 156.839 133.931 157.061 132.408C157.48 129.463 157.666 126.503 157.62 123.529C157.571 122.427 157.478 121.33 157.34 120.236Z" fill="#C3B8C6"/>
<path fill-rule="evenodd" clip-rule="evenodd" d="M97.1856 130.909C96.0798 130.584 95.1243 130.016 94.319 129.203C94.1479 128.998 93.9909 128.783 93.8486 128.557C93.8341 128.509 93.8291 128.46 93.8339 128.41C93.9476 128.025 94.1093 127.663 94.319 127.322C94.6336 127.003 95.0158 126.846 95.4656 126.851C96.3406 126.929 97.2176 126.959 98.097 126.94C97.7971 128.263 97.4931 129.586 97.1856 130.909Z" fill="#FEFDFE"/>
<path fill-rule="evenodd" clip-rule="evenodd" d="M93.8339 128.41C93.8291 128.46 93.8341 128.509 93.8486 128.557C93.9909 128.783 94.1479 128.998 94.319 129.203C95.1243 130.016 96.0798 130.584 97.1856 130.909C97.0295 131.533 96.8825 132.16 96.7446 132.79C95.6573 132.48 94.7706 131.883 94.0838 130.997C93.7145 130.401 93.5772 129.754 93.6721 129.056C93.7136 128.834 93.7674 128.619 93.8339 128.41Z" fill="#C3B8C6"/>
<path fill-rule="evenodd" clip-rule="evenodd" d="M124.94 135.76C124.662 135.01 124.231 134.358 123.647 133.805C122.486 132.897 121.231 132.75 119.883 133.364C119.25 133.708 118.701 134.154 118.237 134.701C118.683 133.467 119.496 132.56 120.677 131.982C122.443 131.461 123.722 132.034 124.514 133.702C124.804 134.357 124.946 135.043 124.94 135.76Z" fill="#BBE3F9"/>
<path fill-rule="evenodd" clip-rule="evenodd" d="M125.264 132.467C126.382 132.676 127.191 133.294 127.689 134.319C128.174 135.448 128.281 136.615 128.013 137.818C127.753 138.999 127.18 139.993 126.293 140.802C125.686 141.326 124.981 141.615 124.176 141.67C123.833 141.661 123.5 141.603 123.176 141.493C124.096 140.912 124.812 140.142 125.323 139.185C126.26 137.362 126.412 135.475 125.778 133.525C125.629 133.159 125.458 132.807 125.264 132.467Z" fill="#1C79E9"/>
<path fill-rule="evenodd" clip-rule="evenodd" d="M131.467 133.467C131.071 134.18 130.645 134.876 130.188 135.554C129.945 135.92 129.676 136.262 129.38 136.583C129.403 135.172 128.991 133.908 128.145 132.79C128.16 132.781 128.174 132.771 128.189 132.761C129.27 133.055 130.362 133.29 131.467 133.467Z" fill="#FDFDFD"/>
<path fill-rule="evenodd" clip-rule="evenodd" d="M124.94 135.76C124.929 135.997 124.909 136.232 124.881 136.466C124.612 136.75 124.347 137.039 124.088 137.333C123.772 137.56 123.449 137.776 123.117 137.98C122.804 138.086 122.49 138.189 122.177 138.288C121.265 138.45 120.422 138.283 119.648 137.789C119.505 137.648 119.348 137.525 119.178 137.421C118.915 137.139 118.674 136.84 118.457 136.524C118.312 136.158 118.16 135.795 118.002 135.437C118.056 135.181 118.135 134.936 118.237 134.701C118.701 134.154 119.25 133.708 119.883 133.364C121.231 132.75 122.486 132.897 123.647 133.805C124.231 134.358 124.662 135.01 124.94 135.76Z" fill="#23A6F0"/>
<path fill-rule="evenodd" clip-rule="evenodd" d="M131.467 133.467C131.662 133.506 131.858 133.535 132.055 133.555C131.115 137.561 130.179 141.57 129.248 145.58C128.804 147.886 127.456 149.37 125.205 150.034C124.454 150.186 123.699 150.205 122.941 150.093C118.982 149.192 115.023 148.29 111.063 147.388C111.048 147.372 111.038 147.352 111.034 147.329C111.464 145.241 111.905 143.158 112.357 141.082C112.357 141.121 112.357 141.16 112.357 141.199C113.044 141.287 113.73 141.381 114.415 141.478C115.929 141.673 117.438 141.717 118.942 141.611C119.465 141.93 120.034 142.112 120.648 142.155C121.627 142.431 122.617 142.666 123.617 142.86C124.672 142.969 125.642 142.734 126.528 142.155C127.809 141.236 128.666 140.016 129.101 138.494C129.266 137.868 129.36 137.231 129.38 136.583C129.676 136.262 129.945 135.92 130.188 135.554C130.645 134.876 131.071 134.18 131.467 133.467Z" fill="#C3B8C6"/>
<path fill-rule="evenodd" clip-rule="evenodd" d="M95.0099 140.347C94.9975 140.276 94.9584 140.222 94.8923 140.185C93.8747 139.688 93.1444 139.957 92.7019 140.993C92.6331 141.209 92.579 141.425 92.5402 141.64C92.6022 140.607 92.7051 139.578 92.8489 138.553C93.2097 136.865 93.6213 135.189 94.0838 133.525C94.7341 133.968 95.4347 134.316 96.1859 134.569C96.2365 134.584 96.2759 134.614 96.3036 134.657C95.8411 136.551 95.41 138.447 95.0099 140.347Z" fill="#C3B8C6"/>
<path fill-rule="evenodd" clip-rule="evenodd" d="M138.7 134.055C139.02 134.065 139.333 134.094 139.641 134.143C139.586 134.399 139.527 134.654 139.464 134.907C138.344 134.709 137.373 134.999 136.554 135.775C136.239 136.138 135.916 136.491 135.584 136.833C135.331 137.052 135.047 137.219 134.731 137.333C134.165 137.475 133.714 137.314 133.378 136.848C133.608 135.84 133.834 134.83 134.055 133.819C135.6 133.952 137.149 134.03 138.7 134.055Z" fill="#FEFEFE"/>
<path fill-rule="evenodd" clip-rule="evenodd" d="M146.874 133.79C146.859 134.589 147.222 135.152 147.961 135.481C148.95 135.784 149.959 135.99 150.99 136.098C152.215 136.243 153.381 136.052 154.488 135.525C154.407 136.012 154.319 136.497 154.224 136.98C149.836 137.662 145.436 137.765 141.023 137.289C141.259 136.209 141.503 135.131 141.758 134.055C143.406 134.042 145.052 133.988 146.697 133.893C146.762 133.866 146.82 133.832 146.874 133.79Z" fill="#C3B8C6"/>
<path fill-rule="evenodd" clip-rule="evenodd" d="M138.7 134.055C139.023 134.055 139.347 134.055 139.67 134.055C139.677 134.093 139.667 134.122 139.641 134.143C139.333 134.094 139.02 134.065 138.7 134.055Z" fill="#776880"/>
<path fill-rule="evenodd" clip-rule="evenodd" d="M118.002 135.437C118.16 135.795 118.312 136.158 118.457 136.524C118.674 136.84 118.915 137.139 119.178 137.421C119.348 137.525 119.505 137.648 119.648 137.789C120.422 138.283 121.265 138.45 122.177 138.288C122.49 138.189 122.804 138.086 123.117 137.98C123.449 137.776 123.772 137.56 124.088 137.333C124.347 137.039 124.612 136.75 124.881 136.466C124.71 137.931 124.083 139.161 123 140.155C122.568 140.47 122.098 140.705 121.589 140.861C120.614 141.051 119.762 140.816 119.031 140.155C118.329 139.393 117.932 138.486 117.84 137.436C117.82 137.044 117.82 136.652 117.84 136.26C117.866 135.979 117.92 135.704 118.002 135.437Z" fill="#1C79EA"/>
<path fill-rule="evenodd" clip-rule="evenodd" d="M98.0676 136.083C99.3219 136.951 100.655 137.691 102.066 138.303C104.894 139.471 107.815 140.328 110.828 140.876C110.413 142.922 109.982 144.966 109.534 147.006C106.374 146.319 103.219 145.603 100.067 144.86C98.4046 144.403 97.4002 143.33 97.0533 141.64C96.9965 141.209 96.9965 140.778 97.0533 140.347C97.3785 138.918 97.7166 137.497 98.0676 136.083Z" fill="#C3B8C6"/>
<path fill-rule="evenodd" clip-rule="evenodd" d="M139.464 134.907C139.304 135.592 139.147 136.278 138.994 136.965C138.6 136.901 138.208 136.828 137.818 136.745C136.374 136.645 135.183 137.139 134.246 138.23C133.527 139.301 133.272 140.477 133.481 141.758C133.71 142.916 134.293 143.852 135.231 144.566C135.719 144.918 136.249 145.192 136.818 145.389C136.876 145.404 136.935 145.408 136.995 145.404C136.794 146.326 136.583 147.247 136.363 148.167C135.772 150.009 134.552 151.22 132.702 151.798C131.887 152.004 131.064 152.043 130.233 151.916C129.33 151.7 128.428 151.485 127.528 151.269C129.497 150.131 130.717 148.44 131.188 146.197C131.915 143.076 132.645 139.96 133.378 136.848C133.714 137.314 134.165 137.475 134.731 137.333C135.047 137.219 135.331 137.052 135.584 136.833C135.916 136.491 136.239 136.138 136.554 135.775C137.373 134.999 138.344 134.709 139.464 134.907Z" fill="#C3B8C6"/>
<path fill-rule="evenodd" clip-rule="evenodd" d="M156.135 141.287C154.582 141.835 152.985 142.202 151.343 142.39C148.799 142.664 146.251 142.713 143.698 142.537C141.633 142.388 139.585 142.113 137.553 141.714C136.677 141.408 135.952 140.894 135.378 140.17C135.539 139.442 135.97 138.947 136.671 138.685C136.921 138.613 137.176 138.569 137.436 138.553C141.181 139.313 144.964 139.592 148.785 139.391C150.955 139.282 153.111 139.042 155.253 138.671C155.308 138.667 155.352 138.687 155.385 138.729C155.787 139.338 156.042 140.005 156.15 140.729C156.172 140.916 156.167 141.103 156.135 141.287Z" fill="#FEFEFE"/>
<path fill-rule="evenodd" clip-rule="evenodd" d="M171.012 135.584C170.802 137.63 170.538 139.668 170.218 141.699C170.003 141.63 169.787 141.562 169.571 141.493C170.101 139.532 170.581 137.562 171.012 135.584Z" fill="#C3B9C6"/>
<path fill-rule="evenodd" clip-rule="evenodd" d="M95.0099 140.347C94.8458 142.585 95.6297 144.408 97.362 145.815C97.5834 146.044 97.8283 146.244 98.097 146.418C99.0723 147.038 100.101 147.557 101.184 147.976C102.799 148.606 104.426 149.214 106.065 149.799C108.199 150.52 110.336 151.236 112.474 151.945C113.408 152.302 114.31 152.723 115.179 153.21C116.422 153.992 117.608 154.854 118.737 155.797C119.459 156.411 120.062 157.121 120.545 157.928C121.285 159.24 121.216 160.505 120.339 161.721C119.099 163.207 117.516 164.103 115.591 164.411C114.544 164.535 113.505 164.486 112.474 164.264C110.322 163.781 108.274 163.026 106.329 162C103.784 160.641 101.442 158.994 99.3025 157.061C99.2466 157.019 99.1878 156.985 99.1261 156.958C98.3872 156.008 97.711 155.014 97.0974 153.974C96.7916 153.82 96.5614 153.894 96.4065 154.194C96.3868 154.273 96.3868 154.351 96.4065 154.43C96.4873 154.677 96.5705 154.922 96.6564 155.165C96.3579 157.779 95.7258 160.308 94.76 162.75C94.3346 163.782 93.7662 164.723 93.0547 165.573C91.6596 166.85 90.6697 168.389 90.0852 170.189C89.932 170.737 89.8438 171.295 89.8206 171.865C89.81 173.266 89.7856 174.668 89.7471 176.069C85.967 176.404 82.2427 176.075 78.5746 175.084C76.5624 174.524 74.6905 173.671 72.959 172.526C72.5944 172.279 72.2463 172.01 71.9153 171.718C71.848 169.082 71.8185 166.445 71.8271 163.809C72.0205 161.937 72.5595 160.173 73.4441 158.516C74.4896 156.598 75.7736 154.854 77.2957 153.283C79.0795 151.44 80.9858 149.749 83.0142 148.211C85.5074 146.361 88.085 144.631 90.7467 143.022C90.9126 143.581 91.084 144.139 91.2613 144.698C91.5591 145.465 91.9757 146.156 92.5108 146.771C92.7225 146.863 92.8942 146.819 93.0253 146.638C93.045 146.55 93.045 146.462 93.0253 146.374C92.5828 144.826 92.4211 143.248 92.5402 141.64C92.579 141.425 92.6331 141.209 92.7019 140.993C93.1444 139.957 93.8747 139.688 94.8923 140.185C94.9585 140.222 94.9976 140.276 95.0099 140.347Z" fill="#FEFEFE"/>
<path fill-rule="evenodd" clip-rule="evenodd" d="M135.378 140.17C135.952 140.894 136.677 141.408 137.553 141.714C139.585 142.113 141.633 142.388 143.698 142.537C146.251 142.713 148.799 142.664 151.343 142.39C152.985 142.202 154.582 141.835 156.135 141.287C156.061 142.107 155.717 142.789 155.106 143.331C153.221 143.931 151.291 144.293 149.314 144.419C145.269 144.659 141.261 144.385 137.289 143.595C136.477 143.323 135.875 142.808 135.481 142.052C135.235 141.431 135.2 140.804 135.378 140.17Z" fill="#C3B8C6"/>
<path fill-rule="evenodd" clip-rule="evenodd" d="M167.719 153.636C166.973 154.284 166.14 154.798 165.22 155.179C163.272 155.957 161.518 155.653 159.957 154.268C159.441 153.771 158.99 153.217 158.605 152.607C158.561 150.842 158.722 149.097 159.09 147.373C159.243 146.779 159.415 146.191 159.604 145.609C159.567 145.419 159.449 145.336 159.251 145.359C159.205 145.39 159.161 145.424 159.119 145.462C159.01 145.652 158.912 145.848 158.825 146.05C158.074 148.098 157.618 150.205 157.458 152.372C157.296 152.529 157.129 152.681 156.958 152.827C156.525 153.039 156.157 152.956 155.856 152.577C155.694 152.313 155.581 152.029 155.518 151.725C155.585 150.424 155.766 149.141 156.061 147.873C156.394 146.396 156.815 144.946 157.326 143.522C157.502 143.258 157.639 142.973 157.737 142.669C157.978 142.429 158.267 142.336 158.605 142.39C162.114 142.751 165.622 143.114 169.13 143.478C169.745 143.683 170.024 144.109 169.968 144.757C169.613 147.234 169.055 149.665 168.292 152.048C168.116 152.583 167.925 153.113 167.719 153.636Z" fill="#FEFEFE"/>
<path fill-rule="evenodd" clip-rule="evenodd" d="M144.198 181.596C143.31 180.683 142.982 179.596 143.213 178.333C143.75 176.34 144.328 174.361 144.948 172.394C146.154 168.723 147.37 165.058 148.594 161.398C149.698 157.979 150.62 154.509 151.357 150.99C151.677 149.322 151.947 147.646 152.166 145.962C152.471 145.877 152.785 145.819 153.107 145.786C152.768 148.31 152.292 150.81 151.681 153.283C150.426 158.085 148.927 162.809 147.182 167.454C146.008 170.761 144.94 174.103 143.978 177.48C143.656 178.72 143.818 179.891 144.463 180.994C144.377 181.199 144.289 181.4 144.198 181.596Z" fill="#FDFDFD"/>
<path fill-rule="evenodd" clip-rule="evenodd" d="M152.166 145.962C151.947 147.646 151.677 149.322 151.357 150.99C150.62 154.509 149.698 157.979 148.594 161.398C147.37 165.058 146.154 168.723 144.948 172.394C144.328 174.361 143.75 176.34 143.213 178.333C142.982 179.596 143.31 180.683 144.198 181.596C143.474 183.33 142.518 184.918 141.331 186.359C140.176 187.784 138.858 189.029 137.377 190.093C135.589 187.901 133.938 185.607 132.423 183.213C132.139 182.686 131.904 182.137 131.717 181.567C131.65 181.217 131.606 180.864 131.585 180.509C131.615 179.815 131.767 179.148 132.041 178.509C132.428 177.725 132.791 176.931 133.129 176.128C133.704 174.577 133.841 172.989 133.54 171.365C132.984 169.035 131.509 167.923 129.115 168.028C128.418 168.118 127.731 168.265 127.057 168.469C124.963 169.195 122.807 169.622 120.589 169.748C120.609 169.728 120.628 169.709 120.648 169.689C121.764 169.591 122.862 169.39 123.941 169.086C124.215 168.831 124.215 168.577 123.941 168.322C123.902 168.302 123.862 168.283 123.823 168.263C119.378 168.019 115.086 167.088 110.945 165.47C107.324 164.001 104.09 161.943 101.243 159.296C100.5 158.548 99.7947 157.769 99.1261 156.958C99.1878 156.985 99.2466 157.019 99.3025 157.061C101.442 158.994 103.784 160.641 106.329 162C108.274 163.026 110.322 163.781 112.474 164.264C113.505 164.486 114.544 164.535 115.591 164.411C117.516 164.103 119.099 163.207 120.339 161.721C121.216 160.505 121.285 159.24 120.545 157.928C120.062 157.121 119.459 156.411 118.737 155.797C117.608 154.854 116.422 153.992 115.179 153.21C114.31 152.723 113.408 152.302 112.474 151.945C110.336 151.236 108.199 150.52 106.065 149.799C104.426 149.214 102.799 148.606 101.184 147.976C100.101 147.557 99.0723 147.038 98.097 146.418C97.8283 146.244 97.5834 146.044 97.362 145.815C98.1067 146.339 98.93 146.697 99.8317 146.888C110.372 149.366 120.917 151.826 131.467 154.268C133.356 154.472 135.003 153.943 136.407 152.68C137.161 151.941 137.696 151.064 138.009 150.049C138.35 148.632 138.688 147.216 139.023 145.8C141.06 146.097 143.108 146.283 145.168 146.359C147.513 146.426 149.845 146.294 152.166 145.962Z" fill="#C3B9C6"/>
<path fill-rule="evenodd" clip-rule="evenodd" d="M155.518 151.725C155.581 152.029 155.694 152.313 155.856 152.577C156.157 152.956 156.525 153.039 156.958 152.827C157.129 152.681 157.296 152.529 157.458 152.372C157.385 153.779 157.537 155.161 157.914 156.517C158.054 156.968 158.211 157.409 158.384 157.84C157.634 157.464 156.987 156.955 156.444 156.311C156.014 155.68 155.74 154.984 155.62 154.224C155.493 153.39 155.458 152.557 155.518 151.725Z" fill="#C3B8C6"/>
<path fill-rule="evenodd" clip-rule="evenodd" d="M158.605 152.607C158.99 153.217 159.441 153.77 159.957 154.268C161.518 155.653 163.272 155.957 165.22 155.179C166.14 154.798 166.973 154.284 167.719 153.636C167.385 154.461 166.988 155.255 166.528 156.017C166.116 156.714 165.572 157.287 164.896 157.737C163.638 158.422 162.295 158.687 160.869 158.531C159.89 157.472 159.239 156.232 158.913 154.812C158.751 154.085 158.648 153.35 158.605 152.607Z" fill="#C3B8C6"/>
<path fill-rule="evenodd" clip-rule="evenodd" d="M153.548 154.194C153.692 155.163 153.991 156.084 154.444 156.958C155.027 157.894 155.787 158.654 156.723 159.237C158.733 160.447 160.899 160.859 163.221 160.472C163.933 160.344 164.615 160.123 165.264 159.81C164.766 160.956 164.119 162.014 163.324 162.985C162.566 163.759 161.689 164.361 160.692 164.794C159.346 165.36 157.955 165.771 156.517 166.028C154.241 166.42 151.948 166.63 149.637 166.661C150.478 164.229 151.296 161.789 152.092 159.34C152.628 157.639 153.113 155.924 153.548 154.194Z" fill="#C3B8C6"/>
<path fill-rule="evenodd" clip-rule="evenodd" d="M96.6564 155.165C97.464 157.143 98.5666 158.936 99.964 160.545C101.233 161.971 102.629 163.25 104.154 164.382C104.518 164.642 104.881 164.902 105.242 165.161C105.256 165.211 105.276 165.26 105.3 165.308C105.328 165.284 105.358 165.279 105.389 165.293C106.572 166.116 107.817 166.841 109.122 167.469C109.197 167.493 109.266 167.488 109.328 167.454C109.653 167.597 109.981 167.735 110.313 167.866C110.328 167.876 110.343 167.886 110.357 167.895C110.315 167.938 110.266 167.967 110.21 167.984C110.208 167.947 110.189 167.922 110.152 167.91C109.842 167.795 109.538 167.662 109.24 167.513C106.874 168.613 104.424 169.47 101.89 170.086C100.546 170.408 99.1931 170.692 97.8324 170.938C97.8007 171.058 97.781 171.18 97.7736 171.306C97.8618 171.306 97.95 171.306 98.0382 171.306C97.3767 171.34 96.7105 171.345 96.0389 171.321C95.3665 171.253 94.7 171.15 94.0397 171.012C93.7312 171.036 93.5548 171.202 93.5104 171.512C93.5348 171.703 93.623 171.855 93.775 171.967C95.1154 172.614 96.5267 172.962 98.0088 173.011C97.9303 173.011 97.8521 173.011 97.7736 173.011C97.8151 173.481 97.8445 173.951 97.8618 174.422C95.2328 175.322 92.5278 175.871 89.7471 176.069C89.7856 174.668 89.81 173.266 89.8206 171.865C89.8438 171.295 89.932 170.737 90.0852 170.189C90.6697 168.389 91.6596 166.85 93.0547 165.573C93.7662 164.723 94.3346 163.782 94.76 162.75C95.7258 160.308 96.3579 157.779 96.6564 155.165Z" fill="#C3B8C6"/>
<path fill-rule="evenodd" clip-rule="evenodd" d="M105.242 165.161C105.901 165.574 106.568 165.981 107.241 166.381C107.931 166.756 108.627 167.113 109.328 167.454C109.266 167.488 109.197 167.493 109.122 167.469C107.817 166.841 106.572 166.116 105.389 165.293C105.358 165.279 105.328 165.284 105.3 165.308C105.276 165.26 105.257 165.211 105.242 165.161Z" fill="#97889F"/>
<path fill-rule="evenodd" clip-rule="evenodd" d="M110.21 167.984C107.844 169.046 105.394 169.864 102.86 170.439C101.644 170.735 100.419 170.99 99.1849 171.203C98.8044 171.257 98.4222 171.292 98.0382 171.306C97.95 171.306 97.8618 171.306 97.7736 171.306C97.781 171.18 97.8007 171.058 97.8324 170.938C99.1931 170.692 100.546 170.408 101.89 170.086C104.424 169.47 106.874 168.613 109.24 167.513C109.538 167.662 109.842 167.795 110.152 167.91C110.189 167.922 110.208 167.947 110.21 167.984Z" fill="#FDFDFD"/>
<path fill-rule="evenodd" clip-rule="evenodd" d="M137.377 190.093C133.983 192.615 130.17 194.11 125.94 194.577C125.353 194.632 124.765 194.661 124.176 194.665C122.357 192.817 120.549 190.96 118.751 189.094C116.854 186.908 115.561 184.399 114.87 181.567C114.437 179.548 114.128 177.509 113.944 175.452C113.97 175.273 114.034 175.106 114.135 174.952C115.622 172.49 117.715 170.765 120.413 169.777C120.468 169.752 120.527 169.743 120.589 169.748C122.807 169.622 124.963 169.195 127.057 168.469C127.731 168.265 128.418 168.118 129.115 168.028C131.509 167.923 132.984 169.035 133.54 171.365C133.841 172.989 133.704 174.577 133.129 176.128C132.791 176.931 132.428 177.725 132.041 178.509C131.767 179.148 131.615 179.815 131.585 180.509C131.606 180.864 131.65 181.217 131.717 181.567C131.904 182.137 132.139 182.686 132.423 183.213C133.938 185.607 135.589 187.901 137.377 190.093Z" fill="#FEFEFE"/>
<path fill-rule="evenodd" clip-rule="evenodd" d="M120.413 169.777C117.715 170.765 115.622 172.49 114.135 174.952C114.034 175.106 113.97 175.273 113.944 175.452C113.795 173.744 113.707 172.029 113.68 170.306C113.68 169.904 113.68 169.503 113.68 169.101C115.893 169.629 118.137 169.854 120.413 169.777Z" fill="#C3B9C6"/>
<path fill-rule="evenodd" clip-rule="evenodd" d="M120.648 169.689C120.628 169.709 120.609 169.728 120.589 169.748C120.527 169.743 120.468 169.752 120.413 169.777C118.137 169.854 115.893 169.629 113.68 169.101C113.68 169.503 113.68 169.904 113.68 170.306C113.65 169.88 113.641 169.449 113.65 169.013C114.83 169.309 116.026 169.52 117.237 169.645C118.373 169.724 119.51 169.739 120.648 169.689Z" fill="#95849C"/>
<path fill-rule="evenodd" clip-rule="evenodd" d="M98.0088 173.011C98.1755 173.011 98.3419 173.011 98.5086 173.011C98.5183 173.413 98.5086 173.815 98.4792 174.217C98.2787 174.303 98.0729 174.372 97.8618 174.422C97.8445 173.951 97.8151 173.481 97.7736 173.011C97.8521 173.011 97.9303 173.011 98.0088 173.011Z" fill="#FBFAFB"/>
<path fill-rule="evenodd" clip-rule="evenodd" d="M89.3649 178.127C89.4728 178.127 89.5804 178.127 89.6883 178.127C89.6339 181.731 89.4428 185.328 89.115 188.917C89.0432 189.953 88.8177 190.952 88.4387 191.916C87.8481 193.193 86.9316 194.168 85.6897 194.842C84.1468 195.637 82.51 196.136 80.7797 196.341C76.7856 196.803 72.8752 196.421 69.0487 195.194C68.4445 194.99 67.8564 194.75 67.2846 194.474C66.8794 193.753 66.6492 192.979 66.5937 192.151C66.5084 189.838 67.2975 187.883 68.9605 186.286C69.4223 185.883 69.9322 185.55 70.4893 185.286C70.5655 185.248 70.644 185.228 70.7245 185.227C71.2443 185.82 71.8521 186.301 72.5474 186.668C74.4332 187.637 76.4372 188.113 78.5599 188.094C78.918 188.091 79.2759 188.077 79.6331 188.05C79.8659 187.972 79.9591 187.81 79.9124 187.565C79.8812 187.475 79.8274 187.401 79.7507 187.344C78.3829 187.225 77.0502 186.941 75.7521 186.492C74.7002 186.123 73.7593 185.574 72.9296 184.845C72.615 184.531 72.3457 184.183 72.1211 183.801C72.0458 180.636 71.9967 177.471 71.9741 174.305C73.7623 175.481 75.688 176.367 77.7514 176.966C80.7774 177.819 83.8645 178.236 87.0128 178.215C87.7978 178.209 88.5819 178.18 89.3649 178.127Z" fill="#FEFEFE"/>
<path fill-rule="evenodd" clip-rule="evenodd" d="M76.8988 198.473C80.2373 198.628 83.5696 198.496 86.8952 198.076C88.7883 197.826 90.6503 197.434 92.4814 196.9C94.0635 196.437 95.5629 195.79 96.9798 194.959C98.6956 193.733 99.5383 192.057 99.5083 189.932C99.4066 187.341 99.196 184.758 98.8762 182.184C98.6165 180.284 98.3666 178.383 98.1264 176.481C98.3043 176.428 98.4807 176.369 98.6556 176.304C99.0067 178.929 99.3545 181.556 99.6994 184.184C99.9919 186.552 100.183 188.929 100.273 191.313C100.229 193.058 99.4939 194.42 98.0676 195.4C96.305 196.347 94.4527 197.063 92.5108 197.547C89.5636 198.244 86.5744 198.627 83.5434 198.693C81.3231 198.765 79.108 198.692 76.8988 198.473Z" fill="#FDFCFD"/>
<path fill-rule="evenodd" clip-rule="evenodd" d="M98.1264 176.481C98.3666 178.383 98.6165 180.284 98.8762 182.184C99.196 184.758 99.4066 187.341 99.5083 189.932C99.5383 192.057 98.6956 193.733 96.9798 194.959C95.5629 195.79 94.0635 196.437 92.4814 196.9C90.6503 197.434 88.7883 197.826 86.8952 198.076C83.5696 198.496 80.2373 198.628 76.8988 198.473C75.1867 198.304 73.5009 197.995 71.8418 197.547C70.606 197.208 69.4788 196.659 68.4606 195.9C67.9761 195.499 67.5842 195.024 67.2846 194.474C67.8564 194.75 68.4445 194.99 69.0487 195.194C72.8752 196.421 76.7856 196.803 80.7797 196.341C82.51 196.136 84.1468 195.637 85.6897 194.842C86.9316 194.168 87.8481 193.193 88.4387 191.916C88.8177 190.952 89.0432 189.953 89.115 188.917C89.4428 185.328 89.6339 181.731 89.6883 178.127C89.5804 178.127 89.4728 178.127 89.3649 178.127C92.3485 177.93 95.2689 177.381 98.1264 176.481Z" fill="#C3B9C7"/>
<path fill-rule="evenodd" clip-rule="evenodd" d="M148.638 209.116C149.895 207.357 150.998 205.495 151.945 203.53C152.743 201.865 153.351 200.13 153.768 198.326C154.276 195.464 153.58 192.945 151.681 190.77C149.673 188.331 147.674 185.891 145.683 183.449C145.668 183.411 145.663 183.371 145.668 183.331C145.743 183.142 145.826 182.956 145.918 182.772C148.397 185.683 150.877 188.594 153.357 191.505C154.877 193.472 155.318 195.667 154.68 198.09C154.384 199.201 154.002 200.279 153.533 201.325C152.254 204.159 150.623 206.756 148.638 209.116Z" fill="#FDFCFD"/>
<path fill-rule="evenodd" clip-rule="evenodd" d="M145.668 183.331C145.663 183.371 145.668 183.411 145.683 183.449C147.674 185.891 149.673 188.331 151.681 190.77C153.58 192.945 154.276 195.464 153.768 198.326C153.351 200.13 152.743 201.865 151.945 203.53C150.998 205.495 149.895 207.357 148.638 209.116C147.494 210.549 146.24 211.886 144.874 213.129C142.439 215.268 139.591 216.38 136.333 216.466C135.18 216.485 134.078 216.27 133.026 215.819C135.003 216.103 136.914 215.863 138.759 215.099C140.997 214.096 142.854 212.611 144.33 210.645C145.67 208.837 146.572 206.828 147.035 204.617C147.183 203.758 147.202 202.895 147.094 202.03C146.951 201.19 146.647 200.416 146.183 199.707C145.786 199.115 145.345 198.556 144.86 198.032C143.667 196.897 142.5 195.751 141.361 194.592C140.457 193.658 139.585 192.698 138.744 191.71C138.724 191.688 138.7 191.678 138.671 191.681C141.658 189.439 143.99 186.656 145.668 183.331Z" fill="#C3B9C6"/>
<path fill-rule="evenodd" clip-rule="evenodd" d="M138.671 191.681C138.7 191.678 138.724 191.688 138.744 191.71C139.585 192.698 140.457 193.658 141.361 194.592C142.5 195.751 143.667 196.897 144.86 198.032C145.345 198.556 145.786 199.115 146.183 199.707C146.647 200.416 146.951 201.19 147.094 202.03C147.202 202.895 147.183 203.758 147.035 204.617C146.572 206.828 145.67 208.837 144.33 210.645C142.854 212.611 140.997 214.096 138.759 215.099C136.914 215.863 135.003 216.103 133.026 215.819C131.241 215.088 130.109 213.784 129.63 211.909C129.321 210.325 129.389 208.757 129.836 207.205C130.171 206.029 130.617 204.897 131.173 203.809C131.966 203.853 132.76 203.863 133.555 203.838C135.058 203.726 136.42 203.236 137.642 202.368C138.309 201.831 138.834 201.18 139.215 200.413C139.282 200.18 139.208 200.008 138.994 199.899C138.883 199.874 138.775 199.884 138.671 199.928C137.662 201.349 136.28 202.104 134.525 202.192C133.387 202.247 132.27 202.12 131.173 201.81C129.478 200.075 127.783 198.34 126.087 196.606C130.734 196.085 134.929 194.443 138.671 191.681Z" fill="#FEFEFE"/>
</svg>